<svg
    xmlns="http://www.w3.org/2000/svg"
    viewBox="0 0 76 76"
    id="vector"
    width="76px"
    height="76px">
    <g id="group_2">
        <path
            id="path"
            d="M 51.739 47.989 L 51.739 47.989 L 51.739 47.989 L 51.739 47.989 L 51.739 47.989 L 51.739 47.989 L 51.739 47.989 L 51.739 47.989 L 51.739 47.989 L 51.739 47.989 L 51.739 47.989 L 51.739 47.989 L 51.739 47.989 L 51.739 47.989 L 51.739 47.989 L 51.739 47.989 Z"
            fill="#ffffff"
            stroke-width="1"/>
        <g id="group">
            <path
                id="path_1"
                d="M 30.502 52.681 L 30.502 52.681 L 35.622 52.666 L 35.622 52.666 L 35.622 52.666 L 35.622 52.666 L 35.622 52.666 L 35.622 52.666 L 35.622 52.666 L 35.622 52.666 L 35.622 52.666 L 35.622 52.666 L 35.622 52.666 L 35.622 52.666 L 35.622 52.666 L 35.622 52.666 L 35.622 52.666 L 35.622 52.666 L 35.622 52.666 L 35.622 52.666 Z"
                fill="#ffffff"
                stroke-width="1"/>
            <g id="group_1">
                <path
                    id="path_2"
                    d="M 19.675 23.787 L 19.666 23.8 L 19.675 23.787 L 24.814 23.787 L 24.823 23.793 L 24.817 23.778 L 24.814 23.787 L 19.694 23.787 L 19.675 23.787 Z"
                    fill="#ffffff"
                    stroke-width="1"/>
            </g>
        </g>
    </g>
</svg>
