<svg
    xmlns="http://www.w3.org/2000/svg"
    viewBox="0 0 76 76"
    id="vector"
    width="76px"
    height="76px">
    <g id="group_2">
        <path
            id="path"
            d="M 51.739 47.989 L 51.739 47.989 L 51.739 47.989 L 51.739 47.989 L 51.739 47.989 L 51.739 47.989 L 51.739 47.989 L 51.739 47.989 L 51.739 47.989 L 51.739 47.989 L 51.739 47.989 L 51.739 47.989 L 51.739 47.989 L 51.739 47.989 L 51.739 47.989 L 51.739 47.989 Z"
            fill="#ffffff"
            stroke-width="1"/>
        <g
            id="group"
            transform="translate(-7.025586242289043 0)">
            <path
                id="path_1"
                d="M 33.536 44.568 L 30.502 52.681 L 35.622 52.666 L 38.234 45.717 L 38.234 45.717 L 38.234 45.717 L 38.234 45.717 L 38.234 45.717 L 38.234 45.717 L 38.234 45.717 L 38.234 45.717 L 38.234 45.717 L 38.234 45.717 L 38.234 45.717 L 38.234 45.717 L 38.234 45.717 L 38.234 45.717 L 38.234 45.717 L 38.234 45.717 L 38.234 45.717 Z"
                fill="#ffffff"
                stroke-width="1"/>
            <g
                id="group_1"
                transform="translate(5.620468993831234 0)">
                <path
                    id="path_2"
                    d="M 20.473 25.916 L 19.666 23.8 L 19.675 23.787 L 24.814 23.787 L 24.823 23.793 L 25.419 25.394 L 25.416 25.403 L 20.492 25.916 L 20.473 25.916 Z"
                    fill="#ffffff"
                    stroke-width="1"/>
            </g>
        </g>
    </g>
</svg>
