<svg
    xmlns="http://www.w3.org/2000/svg"
    viewBox="0 0 76 76"
    id="vector"
    width="76px"
    height="76px">
    <g id="group_2">
        <path
            id="path"
            d="M 51.739 47.989 L 51.739 47.989 L 51.739 47.989 L 51.739 47.989 L 51.739 47.989 L 51.739 47.989 L 51.739 47.989 L 51.739 47.989 L 51.739 47.989 L 51.739 47.989 L 51.739 47.989 L 51.739 47.989 L 51.739 47.989 L 51.739 47.989 L 51.739 47.989 L 51.739 47.989 Z"
            fill="#ffffff"
            stroke-width="1"/>
        <g
            id="group"
            transform="translate(-2.3251746420753863 0)">
            <path
                id="path_1"
                d="M 41.407 23.518 L 30.502 52.681 L 35.622 52.666 L 45.01 27.686 L 48.635 28.995 C 49.211 29.203 49.779 29.519 50.119 30.05 C 50.386 30.467 50.579 30.941 50.425 31.441 L 50.425 31.441 L 50.051 32.613 L 50.051 32.613 L 50.051 32.613 L 50.051 32.613 L 52.401 31.83 L 52.401 31.83 L 52.401 31.83 L 52.401 31.83 C 52.973 30.647 53.232 29.214 52.498 28.026 C 51.911 27.078 50.877 26.5 49.858 26.132 L 46.409 24.886 L 45.813 24.699 Z"
                fill="#ffffff"
                stroke-width="1"/>
            <g
                id="group_1"
                transform="translate(1.8601397136603088 0)">
                <path
                    id="path_2"
                    d="M 25.951 40.545 L 19.666 23.8 L 19.675 23.787 L 24.814 23.787 L 24.823 23.793 L 29.556 36.498 L 29.553 36.508 L 25.97 40.545 L 25.951 40.545 Z"
                    fill="#ffffff"
                    stroke-width="1"/>
            </g>
        </g>
    </g>
</svg>
