<svg
    xmlns="http://www.w3.org/2000/svg"
    viewBox="0 0 76 76"
    id="vector"
    width="76px"
    height="76px">
    <g
        id="group_2"
        transform="translate(36.5 38.5) scale(1.95 1.95) translate(-36.5 -38.5)">
        <path
            id="path"
            d="M 51.739 47.989 L 51.739 47.989 L 51.739 47.989 L 51.739 47.989 L 51.739 47.989 L 51.739 47.989 L 51.739 47.989 L 51.739 47.989 L 51.739 47.989 L 51.739 47.989 L 51.739 47.989 L 51.739 47.989 L 51.739 47.989 L 51.739 47.989 L 51.739 47.989 L 51.739 47.989 Z"
            fill="#ffffff"
            stroke-width="1"/>
        <g
            id="group"
            transform="translate(-7.578575842314179 0)">
            <path
                id="path_1"
                d="M 32.443 47.489 L 30.502 52.681 L 35.622 52.666 L 37.293 48.219 L 37.293 48.219 L 37.293 48.219 L 37.293 48.219 L 37.293 48.219 L 37.293 48.219 L 37.293 48.219 L 37.293 48.219 L 37.293 48.219 L 37.293 48.219 L 37.293 48.219 L 37.293 48.219 L 37.293 48.219 L 37.293 48.219 L 37.293 48.219 L 37.293 48.219 L 37.293 48.219 Z"
                fill="#ffffff"
                stroke-width="1"/>
            <g
                id="group_1"
                transform="translate(6.062860673851343 0)">
                <path
                    id="path_2"
                    d="M 20.191 25.164 L 19.666 23.8 L 19.675 23.787 L 24.814 23.787 L 24.823 23.793 L 25.206 24.823 L 25.203 24.832 L 20.21 25.164 L 20.191 25.164 Z"
                    fill="#ffffff"
                    stroke-width="1"/>
            </g>
        </g>
    </g>
</svg>
