<svg
    xmlns="http://www.w3.org/2000/svg"
    viewBox="0 0 76 76"
    id="vector"
    width="76px"
    height="76px">
    <g id="group_2">
        <path
            id="path"
            d="M 51.739 47.989 L 51.739 47.989 L 51.739 47.989 L 51.739 47.989 L 51.739 47.989 L 51.739 47.989 L 51.739 47.989 L 51.739 47.989 L 51.739 47.989 L 51.739 47.989 L 51.739 47.989 L 51.739 47.989 L 51.739 47.989 L 51.739 47.989 L 51.739 47.989 L 51.739 47.989 Z"
            fill="#ffffff"
            stroke-width="1"/>
        <g
            id="group"
            transform="translate(-2.0235439511525843 0)">
            <path
                id="path_1"
                d="M 41.407 23.518 L 30.502 52.681 L 35.622 52.666 L 45.01 27.686 L 48.635 28.995 C 49.413 29.275 50.18 29.703 50.637 30.418 C 50.998 30.981 51.259 31.621 51.051 32.296 L 51.051 32.296 L 50.546 33.877 L 50.546 33.877 L 50.546 33.877 L 50.546 33.877 L 53.29 33.823 L 53.29 33.823 L 53.29 33.823 L 53.29 33.823 C 54.063 32.226 54.412 30.291 53.421 28.688 C 52.629 27.409 51.233 26.629 49.858 26.132 L 46.409 24.886 L 45.813 24.699 Z"
                fill="#ffffff"
                stroke-width="1"/>
            <g
                id="group_1"
                transform="translate(1.6188351609220675 0)">
                <path
                    id="path_2"
                    d="M 26.49 41.985 L 19.666 23.8 L 19.675 23.787 L 24.814 23.787 L 24.823 23.793 L 29.963 37.591 L 29.96 37.601 L 26.509 41.985 L 26.49 41.985 Z"
                    fill="#ffffff"
                    stroke-width="1"/>
            </g>
        </g>
    </g>
</svg>
