<svg
    xmlns="http://www.w3.org/2000/svg"
    viewBox="0 0 76 76"
    id="vector"
    width="76px"
    height="76px">
    <g id="group_2">
        <path
            id="path"
            d="M 52.123 48.302 C 52.123 48.303 52.122 48.304 52.122 48.305 L 52.123 50.064 C 52.124 50.065 52.123 50.066 52.123 50.067 C 52.123 50.068 52.122 50.068 52.121 50.069 C 52.12 50.069 52.119 50.069 52.118 50.069 L 51.355 50.069 C 51.354 50.069 51.353 50.068 51.352 50.067 C 51.351 50.066 51.351 50.065 51.351 50.064 L 51.351 48.305 C 51.351 48.304 51.35 48.303 51.35 48.302 C 51.349 48.301 51.348 48.301 51.347 48.301 L 51.347 48.301 L 49.62 48.301 C 49.619 48.301 49.618 48.301 49.617 48.3 C 49.617 48.299 49.616 48.299 49.616 48.298 C 49.616 48.297 49.616 48.296 49.616 48.295 L 49.8 47.531 C 49.8 47.53 49.801 47.529 49.802 47.529 C 49.803 47.528 49.804 47.528 49.805 47.528 L 51.347 47.528 C 51.348 47.528 51.349 47.528 51.35 47.527 C 51.35 47.526 51.351 47.525 51.351 47.524 L 51.351 46.214 C 51.351 46.214 51.35 46.213 51.351 46.212 C 51.351 46.211 51.351 46.211 51.352 46.21 C 51.352 46.209 51.353 46.209 51.354 46.209 L 52.117 45.91 C 52.118 45.909 52.119 45.909 52.119 45.909 C 52.12 45.91 52.121 45.91 52.122 45.911 C 52.122 45.912 52.123 45.913 52.122 45.914 L 52.122 47.524 C 52.122 47.525 52.123 47.526 52.123 47.526 C 52.123 47.527 52.124 47.528 52.125 47.528 C 52.126 47.528 52.127 47.528 52.128 47.528 L 53.858 47.528 C 53.859 47.528 53.86 47.528 53.861 47.529 C 53.861 47.529 53.862 47.53 53.862 47.531 C 53.862 47.532 53.862 47.532 53.862 47.533 L 53.745 48.296 C 53.745 48.297 53.744 48.299 53.743 48.3 C 53.742 48.3 53.742 48.301 53.741 48.301 L 52.128 48.301 C 52.127 48.301 52.126 48.301 52.125 48.301 C 52.124 48.301 52.123 48.301 52.123 48.302"
            fill="#ffffff"
            stroke-width="1"/>
        <g id="group">
            <path
                id="path_1"
                d="M 41.407 23.518 L 30.502 52.681 L 35.622 52.666 L 45.01 27.686 L 48.635 28.995 C 49.88 29.444 51.108 30.128 51.841 31.274 C 52.418 32.175 52.836 33.199 52.503 34.28 L 52.503 34.28 L 51.695 36.812 C 51.218 38.25 49.846 39.107 48.323 39.338 C 47.242 39.503 46.146 39.282 45.11 38.907 L 41.324 37.449 L 39.625 40.251 L 43.974 41.814 C 46.783 42.834 50.224 43.409 52.846 41.529 C 53.948 40.743 54.766 39.656 55.353 38.445 C 56.59 35.888 57.149 32.791 55.563 30.225 C 54.295 28.177 52.06 26.928 49.858 26.132 L 46.409 24.886 L 45.813 24.699 Z"
                fill="#ffffff"
                stroke-width="1"/>
            <g id="group_1">
                <path
                    id="path_2"
                    d="M 29.581 50.237 L 19.666 23.8 L 19.675 23.787 L 24.814 23.787 L 24.823 23.793 L 32.297 43.855 L 32.294 43.865 L 29.6 50.237 L 29.581 50.237 Z"
                    fill="#ffffff"
                    stroke-width="1"/>
            </g>
        </g>
    </g>
</svg>
