<svg
    xmlns="http://www.w3.org/2000/svg"
    viewBox="0 0 76 76"
    id="vector"
    width="76px"
    height="76px">
    <g id="group_2">
        <path
            id="path"
            d="M 51.739 47.989 L 51.739 47.989 L 51.739 47.989 L 51.739 47.989 L 51.739 47.989 L 51.739 47.989 L 51.739 47.989 L 51.739 47.989 L 51.739 47.989 L 51.739 47.989 L 51.739 47.989 L 51.739 47.989 L 51.739 47.989 L 51.739 47.989 L 51.739 47.989 L 51.739 47.989 Z"
            fill="#ffffff"
            stroke-width="1"/>
        <g
            id="group"
            transform="translate(-1.2443313329353494 0)">
            <path
                id="path_1"
                d="M 41.407 23.518 L 30.502 52.681 L 35.622 52.666 L 45.01 27.686 L 48.635 28.995 C 49.88 29.444 51.108 30.128 51.841 31.274 C 52.418 32.175 52.836 33.199 52.503 34.28 L 52.503 34.28 L 51.695 36.812 C 51.608 37.075 51.357 37.232 51.079 37.274 L 51.079 37.274 L 51.079 37.274 L 54.895 39.009 L 54.895 39.009 L 54.895 39.009 C 55.096 38.865 55.246 38.666 55.353 38.445 C 56.59 35.888 57.149 32.791 55.563 30.225 C 54.295 28.177 52.06 26.928 49.858 26.132 L 46.409 24.886 L 45.813 24.699 Z"
                fill="#ffffff"
                stroke-width="1"/>
            <g
                id="group_1"
                transform="translate(0.9954650663482791 0)">
                <path
                    id="path_2"
                    d="M 27.934 45.839 L 19.666 23.8 L 19.675 23.787 L 24.814 23.787 L 24.823 23.793 L 31.053 40.516 L 31.05 40.526 L 27.953 45.839 L 27.934 45.839 Z"
                    fill="#ffffff"
                    stroke-width="1"/>
            </g>
        </g>
    </g>
</svg>
