<svg
    xmlns="http://www.w3.org/2000/svg"
    viewBox="0 0 76 76"
    id="vector"
    width="76px"
    height="76px">
    <g id="group_2">
        <path
            id="path"
            d="M 51.739 47.989 L 51.739 47.989 L 51.739 47.989 L 51.739 47.989 L 51.739 47.989 L 51.739 47.989 L 51.739 47.989 L 51.739 47.989 L 51.739 47.989 L 51.739 47.989 L 51.739 47.989 L 51.739 47.989 L 51.739 47.989 L 51.739 47.989 L 51.739 47.989 L 51.739 47.989 Z"
            fill="#ffffff"
            stroke-width="1"/>
        <g
            id="group"
            transform="translate(-1.7428598359883125 0)">
            <path
                id="path_1"
                d="M 41.407 23.518 L 30.502 52.681 L 35.622 52.666 L 45.01 27.686 L 48.635 28.995 C 49.614 29.348 50.58 29.886 51.156 30.787 C 51.61 31.496 51.938 32.301 51.677 33.151 L 51.677 33.151 L 51.041 35.142 L 51.041 35.142 L 51.041 35.142 L 51.041 35.142 L 54.179 35.815 L 54.179 35.815 L 54.179 35.815 L 54.179 35.815 C 55.152 33.804 55.592 31.369 54.344 29.351 C 53.347 27.74 51.59 26.758 49.858 26.132 L 46.409 24.886 L 45.813 24.699 Z"
                fill="#ffffff"
                stroke-width="1"/>
            <g
                id="group_1"
                transform="translate(1.3942878687906495 0)">
                <path
                    id="path_2"
                    d="M 27.005 43.359 L 19.666 23.8 L 19.675 23.787 L 24.814 23.787 L 24.823 23.793 L 30.352 38.634 L 30.349 38.644 L 27.024 43.359 L 27.005 43.359 Z"
                    fill="#ffffff"
                    stroke-width="1"/>
            </g>
        </g>
    </g>
</svg>
