<svg
    xmlns="http://www.w3.org/2000/svg"
    viewBox="0 0 76 76"
    id="vector"
    width="76px"
    height="76px">
    <g id="group_2">
        <path
            id="path"
            d="M 52.523 48.629 C 52.523 48.631 52.522 48.633 52.522 48.634 L 52.524 52.228 C 52.525 52.229 52.524 52.232 52.523 52.233 C 52.523 52.235 52.521 52.236 52.519 52.237 C 52.517 52.238 52.515 52.238 52.513 52.237 L 50.955 52.237 C 50.953 52.237 50.951 52.236 50.949 52.234 C 50.947 52.232 50.946 52.23 50.946 52.228 L 50.946 48.634 C 50.946 48.632 50.945 48.63 50.944 48.628 C 50.943 48.627 50.941 48.626 50.938 48.625 L 50.938 48.625 L 47.411 48.625 C 47.409 48.625 47.407 48.625 47.405 48.624 C 47.404 48.623 47.403 48.622 47.402 48.62 C 47.402 48.618 47.402 48.616 47.403 48.614 L 47.779 47.053 C 47.779 47.051 47.781 47.05 47.782 47.049 C 47.784 47.047 47.786 47.047 47.788 47.047 L 50.938 47.047 C 50.941 47.047 50.943 47.046 50.944 47.045 C 50.945 47.043 50.946 47.041 50.946 47.038 L 50.946 44.364 C 50.946 44.363 50.945 44.361 50.946 44.359 C 50.946 44.358 50.947 44.357 50.948 44.355 C 50.949 44.354 50.951 44.353 50.952 44.353 L 52.511 43.742 C 52.512 43.741 52.514 43.741 52.516 43.741 C 52.518 43.742 52.52 43.743 52.521 43.745 C 52.522 43.747 52.523 43.749 52.522 43.75 L 52.522 47.038 C 52.522 47.041 52.523 47.043 52.523 47.044 C 52.524 47.045 52.526 47.046 52.528 47.047 C 52.53 47.048 52.532 47.048 52.534 47.047 L 56.067 47.047 C 56.069 47.047 56.071 47.047 56.073 47.049 C 56.074 47.05 56.075 47.052 56.075 47.053 C 56.076 47.055 56.076 47.056 56.075 47.058 L 55.836 48.617 C 55.836 48.619 55.835 48.622 55.833 48.624 C 55.831 48.624 55.829 48.625 55.828 48.625 L 52.534 48.625 C 52.532 48.625 52.53 48.625 52.528 48.625 C 52.526 48.626 52.524 48.627 52.523 48.629"
            fill="#ffffff"
            stroke-width="1"/>
        <g id="group">
            <path
                id="path_1"
                d="M 41.407 23.518 L 30.502 52.681 L 35.622 52.666 L 45.01 27.686 L 48.635 28.995 C 49.88 29.444 51.108 30.128 51.841 31.274 C 52.418 32.175 52.836 33.199 52.503 34.28 L 52.503 34.28 L 51.695 36.812 C 51.218 38.25 49.846 39.107 48.323 39.338 C 47.242 39.503 46.146 39.282 45.11 38.907 L 41.324 37.449 L 39.625 40.251 L 43.974 41.814 C 46.783 42.834 50.224 43.409 52.846 41.529 C 53.948 40.743 54.766 39.656 55.353 38.445 C 56.59 35.888 57.149 32.791 55.563 30.225 C 54.295 28.177 52.06 26.928 49.858 26.132 L 46.409 24.886 L 45.813 24.699 Z"
                fill="#ffffff"
                stroke-width="1"/>
            <g id="group_1">
                <path
                    id="path_2"
                    d="M 29.581 50.237 L 19.666 23.8 L 19.675 23.787 L 24.814 23.787 L 24.823 23.793 L 32.297 43.855 L 32.294 43.865 L 29.6 50.237 L 29.581 50.237 Z"
                    fill="#ffffff"
                    stroke-width="1"/>
            </g>
        </g>
    </g>
</svg>
