<svg
    xmlns="http://www.w3.org/2000/svg"
    viewBox="0 0 76 76"
    id="vector"
    width="76px"
    height="76px">
    <g
        id="group_2"
        transform="translate(36.5 38.5) scale(1.95 1.95) translate(-36.5 -38.5)">
        <path
            id="path"
            d="M 52.256 48.411 C 52.255 48.412 52.255 48.413 52.255 48.414 L 52.256 50.781 C 52.257 50.782 52.256 50.784 52.256 50.785 C 52.255 50.786 52.254 50.787 52.253 50.787 C 52.252 50.788 52.25 50.788 52.249 50.787 L 51.222 50.787 C 51.221 50.787 51.22 50.787 51.219 50.786 C 51.217 50.784 51.217 50.783 51.217 50.781 L 51.217 48.414 C 51.217 48.412 51.216 48.411 51.216 48.41 C 51.214 48.409 51.213 48.409 51.211 48.408 L 51.211 48.408 L 48.888 48.408 C 48.886 48.408 48.885 48.408 48.884 48.408 C 48.883 48.406 48.882 48.406 48.882 48.405 C 48.882 48.403 48.882 48.402 48.882 48.401 L 49.13 47.372 C 49.13 47.371 49.132 47.37 49.132 47.37 C 49.133 47.369 49.135 47.369 49.136 47.369 L 51.211 47.369 C 51.213 47.369 51.214 47.368 51.216 47.367 C 51.216 47.366 51.217 47.364 51.217 47.363 L 51.217 45.601 C 51.217 45.6 51.216 45.599 51.217 45.598 C 51.217 45.597 51.217 45.596 51.218 45.595 C 51.219 45.594 51.22 45.594 51.22 45.594 L 52.247 45.191 C 52.249 45.191 52.25 45.191 52.251 45.191 C 52.252 45.191 52.253 45.192 52.254 45.193 C 52.255 45.194 52.255 45.196 52.255 45.197 L 52.255 47.363 C 52.255 47.364 52.255 47.366 52.256 47.366 C 52.256 47.367 52.258 47.368 52.259 47.369 C 52.26 47.369 52.261 47.369 52.262 47.369 L 54.59 47.369 C 54.592 47.369 54.593 47.369 54.594 47.37 C 54.595 47.37 54.596 47.372 54.596 47.372 C 54.596 47.373 54.596 47.375 54.596 47.376 L 54.438 48.403 C 54.438 48.404 54.437 48.406 54.436 48.407 C 54.435 48.408 54.434 48.408 54.433 48.408 L 52.262 48.408 C 52.261 48.408 52.26 48.408 52.259 48.408 C 52.258 48.409 52.256 48.409 52.256 48.411"
            fill="#ffffff"
            stroke-width="1"/>
        <g id="group">
            <path
                id="path_1"
                d="M 41.407 23.518 L 30.502 52.681 L 35.622 52.666 L 45.01 27.686 L 48.635 28.995 C 49.88 29.444 51.108 30.128 51.841 31.274 C 52.418 32.175 52.836 33.199 52.503 34.28 L 52.503 34.28 L 51.695 36.812 C 51.218 38.25 49.846 39.107 48.323 39.338 C 47.242 39.503 46.146 39.282 45.11 38.907 L 41.324 37.449 L 39.625 40.251 L 43.974 41.814 C 46.783 42.834 50.224 43.409 52.846 41.529 C 53.948 40.743 54.766 39.656 55.353 38.445 C 56.59 35.888 57.149 32.791 55.563 30.225 C 54.295 28.177 52.06 26.928 49.858 26.132 L 46.409 24.886 L 45.813 24.699 Z"
                fill="#ffffff"
                stroke-width="1"/>
            <g id="group_1">
                <path
                    id="path_2"
                    d="M 29.581 50.237 L 19.666 23.8 L 19.675 23.787 L 24.814 23.787 L 24.823 23.793 L 32.297 43.855 L 32.294 43.865 L 29.6 50.237 L 29.581 50.237 Z"
                    fill="#ffffff"
                    stroke-width="1"/>
            </g>
        </g>
    </g>
</svg>
