<svg
    xmlns="http://www.w3.org/2000/svg"
    viewBox="0 0 76 76"
    id="vector"
    width="76px"
    height="76px">
    <g id="group_2">
        <path
            id="path"
            d="M 51.739 47.989 L 51.739 47.989 L 51.739 47.989 L 51.739 47.989 L 51.739 47.989 L 51.739 47.989 L 51.739 47.989 L 51.739 47.989 L 51.739 47.989 L 51.739 47.989 L 51.739 47.989 L 51.739 47.989 L 51.739 47.989 L 51.739 47.989 L 51.739 47.989 L 51.739 47.989 Z"
            fill="#ffffff"
            stroke-width="1"/>
        <g
            id="group"
            transform="translate(-1.4831222965825646 0)">
            <path
                id="path_1"
                d="M 41.407 23.518 L 30.502 52.681 L 35.622 52.666 L 45.01 27.686 L 48.635 28.995 C 49.816 29.421 50.98 30.069 51.675 31.156 C 52.222 32.01 52.618 32.981 52.303 34.006 L 52.303 34.006 L 51.537 36.407 L 51.537 36.407 L 51.537 36.407 L 51.537 36.407 L 55.068 37.807 L 55.068 37.807 L 55.068 37.807 L 55.068 37.807 C 56.241 35.383 56.771 32.446 55.268 30.013 C 54.065 28.071 51.946 26.887 49.858 26.132 L 46.409 24.886 L 45.813 24.699 Z"
                fill="#ffffff"
                stroke-width="1"/>
            <g
                id="group_1"
                transform="translate(1.1864978372660522 0)">
                <path
                    id="path_2"
                    d="M 27.488 44.649 L 19.666 23.8 L 19.675 23.787 L 24.814 23.787 L 24.823 23.793 L 30.717 39.614 L 30.714 39.623 L 27.507 44.649 L 27.488 44.649 Z"
                    fill="#ffffff"
                    stroke-width="1"/>
            </g>
        </g>
    </g>
</svg>
