<svg
    xmlns="http://www.w3.org/2000/svg"
    viewBox="0 0 76 76"
    id="vector"
    width="76px"
    height="76px">
    <g
        id="group_2"
        transform="translate(36.5 38.5) scale(1.95 1.95) translate(-36.5 -38.5)">
        <path
            id="path"
            d="M 51.969 48.176 C 51.968 48.177 51.968 48.177 51.968 48.178 L 51.969 49.229 C 51.969 49.23 51.969 49.231 51.969 49.231 C 51.968 49.231 51.968 49.232 51.967 49.232 C 51.967 49.232 51.966 49.232 51.966 49.232 L 51.509 49.232 C 51.509 49.232 51.508 49.232 51.508 49.231 C 51.507 49.231 51.507 49.23 51.507 49.229 L 51.507 48.178 C 51.507 48.177 51.507 48.177 51.507 48.176 C 51.506 48.176 51.505 48.175 51.505 48.175 L 51.505 48.175 L 50.473 48.175 C 50.472 48.175 50.472 48.175 50.471 48.175 C 50.47 48.174 50.47 48.174 50.47 48.174 C 50.47 48.173 50.47 48.173 50.47 48.172 L 50.58 47.715 C 50.58 47.715 50.581 47.714 50.581 47.714 C 50.582 47.713 50.582 47.713 50.583 47.713 L 51.505 47.713 C 51.505 47.713 51.506 47.713 51.507 47.713 C 51.507 47.712 51.507 47.712 51.507 47.711 L 51.507 46.928 C 51.507 46.928 51.507 46.928 51.507 46.927 C 51.507 46.926 51.507 46.926 51.508 46.926 C 51.508 46.925 51.508 46.925 51.509 46.925 L 51.965 46.746 C 51.965 46.746 51.966 46.746 51.966 46.746 C 51.967 46.746 51.967 46.747 51.968 46.747 C 51.968 46.748 51.968 46.748 51.968 46.749 L 51.968 47.711 C 51.968 47.712 51.968 47.712 51.969 47.712 C 51.969 47.713 51.969 47.713 51.97 47.713 C 51.97 47.714 51.971 47.714 51.971 47.713 L 53.005 47.713 C 53.006 47.713 53.006 47.713 53.007 47.714 C 53.007 47.714 53.008 47.715 53.008 47.715 C 53.008 47.716 53.008 47.716 53.008 47.717 L 52.938 48.173 C 52.938 48.173 52.937 48.174 52.937 48.175 C 52.936 48.175 52.936 48.175 52.935 48.175 L 51.971 48.175 C 51.971 48.175 51.97 48.175 51.97 48.175 C 51.969 48.175 51.969 48.176 51.969 48.176"
            fill="#ffffff"
            stroke-width="1"/>
        <g id="group">
            <path
                id="path_1"
                d="M 41.407 23.518 L 30.502 52.681 L 35.622 52.666 L 45.01 27.686 L 48.635 28.995 C 49.88 29.444 51.108 30.128 51.841 31.274 C 52.418 32.175 52.836 33.199 52.503 34.28 L 52.503 34.28 L 51.695 36.812 C 51.218 38.25 49.846 39.107 48.323 39.338 C 47.242 39.503 46.146 39.282 45.11 38.907 L 41.324 37.449 L 39.625 40.251 L 43.974 41.814 C 46.783 42.834 50.224 43.409 52.846 41.529 C 53.948 40.743 54.766 39.656 55.353 38.445 C 56.59 35.888 57.149 32.791 55.563 30.225 C 54.295 28.177 52.06 26.928 49.858 26.132 L 46.409 24.886 L 45.813 24.699 Z"
                fill="#ffffff"
                stroke-width="1"/>
            <g id="group_1">
                <path
                    id="path_2"
                    d="M 29.581 50.237 L 19.666 23.8 L 19.675 23.787 L 24.814 23.787 L 24.823 23.793 L 32.297 43.855 L 32.294 43.865 L 29.6 50.237 L 29.581 50.237 Z"
                    fill="#ffffff"
                    stroke-width="1"/>
            </g>
        </g>
    </g>
</svg>
