<svg
    xmlns="http://www.w3.org/2000/svg"
    viewBox="0 0 76 76"
    id="vector"
    width="76px"
    height="76px">
    <g
        id="group_2"
        transform="translate(36.5 38.5) scale(1.95 1.95) translate(-36.5 -38.5)">
        <path
            id="path"
            d="M 51.739 47.989 L 51.739 47.989 L 51.739 47.989 L 51.739 47.989 L 51.739 47.989 L 51.739 47.989 L 51.739 47.989 L 51.739 47.989 L 51.739 47.989 L 51.739 47.989 L 51.739 47.989 L 51.739 47.989 L 51.739 47.989 L 51.739 47.989 L 51.739 47.989 L 51.739 47.989 Z"
            fill="#ffffff"
            stroke-width="1"/>
        <g
            id="group"
            transform="translate(-9.363224096940753 0)">
            <path
                id="path_1"
                d="M 30.623 52.356 L 30.502 52.681 L 35.622 52.666 L 35.726 52.388 L 35.726 52.388 L 35.726 52.388 L 35.726 52.388 L 35.726 52.388 L 35.726 52.388 L 35.726 52.388 L 35.726 52.388 L 35.726 52.388 L 35.726 52.388 L 35.726 52.388 L 35.726 52.388 L 35.726 52.388 L 35.726 52.388 L 35.726 52.388 L 35.726 52.388 L 35.726 52.388 Z"
                fill="#ffffff"
                stroke-width="1"/>
            <g
                id="group_1"
                transform="translate(7.4905792775526026 0)">
                <path
                    id="path_2"
                    d="M 19.708 23.874 L 19.666 23.8 L 19.675 23.787 L 24.814 23.787 L 24.823 23.793 L 24.842 23.844 L 24.839 23.853 L 19.727 23.874 L 19.708 23.874 Z"
                    fill="#ffffff"
                    stroke-width="1"/>
            </g>
        </g>
    </g>
</svg>
