<svg
    xmlns="http://www.w3.org/2000/svg"
    viewBox="0 0 76 76"
    id="vector"
    width="76px"
    height="76px">
    <g
        id="group_2"
        transform="translate(36.5 38.5) scale(1.95 1.95) translate(-36.5 -38.5)">
        <path
            id="path"
            d="M 51.739 47.989 L 51.739 47.989 L 51.739 47.989 L 51.739 47.989 L 51.739 47.989 L 51.739 47.989 L 51.739 47.989 L 51.739 47.989 L 51.739 47.989 L 51.739 47.989 L 51.739 47.989 L 51.739 47.989 L 51.739 47.989 L 51.739 47.989 L 51.739 47.989 L 51.739 47.989 Z"
            fill="#ffffff"
            stroke-width="1"/>
        <g
            id="group"
            transform="translate(-3.741163163351871 0)">
            <path
                id="path_1"
                d="M 41.407 23.518 L 30.502 52.681 L 35.622 52.666 L 45.01 27.686 L 46.774 28.323 L 46.774 28.323 C 46.774 28.323 46.773 28.323 46.773 28.323 L 46.774 28.323 L 46.774 28.323 L 46.774 28.323 L 46.774 28.323 L 46.774 28.323 L 47.781 25.396 L 47.781 25.396 L 47.781 25.396 L 47.781 25.396 L 47.781 25.396 L 47.781 25.396 L 46.103 24.79 L 45.813 24.699 Z"
                fill="#ffffff"
                stroke-width="1"/>
            <g
                id="group_1"
                transform="translate(2.9929305306814964 0)">
                <path
                    id="path_2"
                    d="M 23.693 34.516 L 19.666 23.8 L 19.675 23.787 L 24.814 23.787 L 24.823 23.793 L 27.851 31.922 L 27.848 31.931 L 23.712 34.516 L 23.693 34.516 Z"
                    fill="#ffffff"
                    stroke-width="1"/>
            </g>
        </g>
    </g>
</svg>
