<svg
    xmlns="http://www.w3.org/2000/svg"
    viewBox="0 0 76 76"
    id="vector"
    width="76px"
    height="76px">
    <g
        id="group_2"
        transform="translate(36.5 38.5) scale(1.95 1.95) translate(-36.5 -38.5)">
        <path
            id="path"
            d="M 51.739 47.989 L 51.739 47.989 L 51.739 47.989 L 51.739 47.989 L 51.739 47.989 L 51.739 47.989 L 51.739 47.989 L 51.739 47.989 L 51.739 47.989 L 51.739 47.989 L 51.739 47.989 L 51.739 47.989 L 51.739 47.989 L 51.739 47.989 L 51.739 47.989 L 51.739 47.989 Z"
            fill="#ffffff"
            stroke-width="1"/>
        <g
            id="group"
            transform="translate(-6.493543218022433 0)">
            <path
                id="path_1"
                d="M 34.87 40.999 L 30.502 52.681 L 35.622 52.666 L 39.383 42.66 L 39.383 42.66 L 39.383 42.66 L 39.383 42.66 L 39.383 42.66 L 39.383 42.66 L 39.383 42.66 L 39.383 42.66 L 39.383 42.66 L 39.383 42.66 L 39.383 42.66 L 39.383 42.66 L 39.383 42.66 L 39.383 42.66 L 39.383 42.66 L 39.383 42.66 L 39.383 42.66 Z"
                fill="#ffffff"
                stroke-width="1"/>
            <g
                id="group_1"
                transform="translate(5.194834574417946 0)">
                <path
                    id="path_2"
                    d="M 20.809 26.816 L 19.666 23.8 L 19.675 23.787 L 24.814 23.787 L 24.823 23.793 L 25.674 26.077 L 25.671 26.086 L 20.828 26.816 L 20.809 26.816 Z"
                    fill="#ffffff"
                    stroke-width="1"/>
            </g>
        </g>
    </g>
</svg>
