<svg
    xmlns="http://www.w3.org/2000/svg"
    viewBox="0 0 76 76"
    id="vector"
    width="76px"
    height="76px">
    <g
        id="group_2"
        transform="translate(36.5 38.5) scale(1.95 1.95) translate(-36.5 -38.5)">
        <path
            id="path"
            d="M 51.739 47.989 L 51.739 47.989 L 51.739 47.989 L 51.739 47.989 L 51.739 47.989 L 51.739 47.989 L 51.739 47.989 L 51.739 47.989 L 51.739 47.989 L 51.739 47.989 L 51.739 47.989 L 51.739 47.989 L 51.739 47.989 L 51.739 47.989 L 51.739 47.989 L 51.739 47.989 Z"
            fill="#ffffff"
            stroke-width="1"/>
        <g
            id="group"
            transform="translate(-4.147526733067313 0)">
            <path
                id="path_1"
                d="M 41.407 23.518 L 30.502 52.681 L 35.622 52.666 L 45.01 27.686 L 45.141 27.733 L 45.141 27.733 C 45.141 27.733 45.141 27.733 45.141 27.733 L 45.141 27.733 L 45.141 27.733 L 45.141 27.733 L 45.141 27.733 L 45.141 27.733 L 45.959 24.751 L 45.959 24.751 L 45.959 24.751 L 45.959 24.751 L 45.959 24.751 L 45.959 24.751 L 45.834 24.706 L 45.813 24.699 Z"
                fill="#ffffff"
                stroke-width="1"/>
            <g
                id="group_1"
                transform="translate(3.31802138645385 0)">
                <path
                    id="path_2"
                    d="M 23.141 33.041 L 19.666 23.8 L 19.675 23.787 L 24.814 23.787 L 24.823 23.793 L 27.434 30.802 L 27.431 30.812 L 23.16 33.041 L 23.141 33.041 Z"
                    fill="#ffffff"
                    stroke-width="1"/>
            </g>
        </g>
    </g>
</svg>
