<svg
    xmlns="http://www.w3.org/2000/svg"
    viewBox="0 0 76 76"
    id="vector"
    width="76px"
    height="76px">
    <g
        id="group_2"
        transform="translate(36.5 38.5) scale(1.95 1.95) translate(-36.5 -38.5)">
        <path
            id="path"
            d="M 51.739 47.989 L 51.739 47.989 L 51.739 47.989 L 51.739 47.989 L 51.739 47.989 L 51.739 47.989 L 51.739 47.989 L 51.739 47.989 L 51.739 47.989 L 51.739 47.989 L 51.739 47.989 L 51.739 47.989 L 51.739 47.989 L 51.739 47.989 L 51.739 47.989 L 51.739 47.989 Z"
            fill="#ffffff"
            stroke-width="1"/>
        <g
            id="group"
            transform="translate(-4.57483687854128 0)">
            <path
                id="path_1"
                d="M 41.407 23.518 L 30.502 52.681 L 35.622 52.666 L 45.01 27.686 L 45.01 27.686 L 45.01 27.686 L 45.01 27.686 L 45.01 27.686 L 45.01 27.686 L 45.01 27.686 L 45.01 27.686 L 45.01 27.686 L 45.242 26.824 L 45.242 26.824 L 45.242 26.824 L 45.242 26.824 L 45.242 26.824 L 45.242 26.824 L 45.242 26.824 L 45.242 26.824 Z"
                fill="#ffffff"
                stroke-width="1"/>
            <g
                id="group_1"
                transform="translate(3.6598695028330237 0)">
                <path
                    id="path_2"
                    d="M 22.608 31.619 L 19.666 23.8 L 19.675 23.787 L 24.814 23.787 L 24.823 23.793 L 27.032 29.723 L 27.029 29.732 L 22.627 31.619 L 22.608 31.619 Z"
                    fill="#ffffff"
                    stroke-width="1"/>
            </g>
        </g>
    </g>
</svg>
