<svg
    xmlns="http://www.w3.org/2000/svg"
    viewBox="0 0 76 76"
    id="vector"
    width="76px"
    height="76px">
    <g id="group_2">
        <path
            id="path"
            d="M 51.739 47.989 L 51.739 47.989 L 51.739 47.989 L 51.739 47.989 L 51.739 47.989 L 51.739 47.989 L 51.739 47.989 L 51.739 47.989 L 51.739 47.989 L 51.739 47.989 L 51.739 47.989 L 51.739 47.989 L 51.739 47.989 L 51.739 47.989 L 51.739 47.989 L 51.739 47.989 Z"
            fill="#ffffff"
            stroke-width="1"/>
        <g
            id="group"
            transform="translate(-3.35574616939496 0)">
            <path
                id="path_1"
                d="M 41.407 23.518 L 30.502 52.681 L 35.622 52.666 L 45.01 27.686 L 48.406 28.912 L 48.406 28.912 C 48.406 28.912 48.405 28.912 48.405 28.912 L 48.406 28.912 L 48.406 28.912 L 48.406 28.912 L 48.406 28.912 L 48.406 28.912 L 49.603 26.042 L 49.603 26.042 L 49.603 26.042 L 49.603 26.042 L 49.603 26.042 L 49.603 26.042 L 46.371 24.874 L 45.813 24.699 Z"
                fill="#ffffff"
                stroke-width="1"/>
            <g
                id="group_1"
                transform="translate(2.684596935515968 0)">
                <path
                    id="path_2"
                    d="M 24.258 36.024 L 19.666 23.8 L 19.675 23.787 L 24.814 23.787 L 24.823 23.793 L 28.278 33.066 L 28.275 33.076 L 24.277 36.024 L 24.258 36.024 Z"
                    fill="#ffffff"
                    stroke-width="1"/>
            </g>
        </g>
    </g>
</svg>
