<svg xmlns="http://www.w3.org/2000/svg" viewBox="0 0 5548 76" width="5548" height="76"><path d="M66.21605 57.00355zM24.8039 66.15295l9.984-.02925zM3.69125 9.80965L3.6737 9.835l.01755-.02535H13.7123l.01755.0117-.0117-.02925-.00585.01755H3.69125zM142.21605 57.00355zM100.8039 66.15295l9.984-.02925zM79.69125 9.80965l-.01755.02535.01755-.02535H89.7123l.01755.0117-.0117-.02925-.00585.01755H79.69125zM218.21605 57.00355zM176.8039 66.15295l9.984-.02925zM155.69125 9.80965l-.01755.02535.01755-.02535h10.02105l.01755.0117-.0117-.02925-.00585.01755h-10.02105zM294.21605 57.00355zM252.8039 66.15295l9.984-.02925zM231.69125 9.80965l-.01755.02535.01755-.02535h10.02105l.01755.0117-.0117-.02925-.00585.01755h-10.02105zM370.21605 57.00355zM328.8039 66.15295l9.984-.02925zM307.69125 9.80965l-.01755.02535.01755-.02535h10.02105l.01755.0117-.0117-.02925-.00585.01755h-10.02105zM446.21605 57.00355zM404.8039 66.15295l9.984-.02925zM383.69125 9.80965l-.01755.02535.01755-.02535h10.02105l.01755.0117-.0117-.02925-.00585.01755h-10.02105zM522.21605 57.00355zM480.8039 66.15295l9.984-.02925zM459.69125 9.80965l-.01755.02535.01755-.02535h10.02105l.01755.0117-.0117-.02925-.00585.01755h-10.02105zM598.21605 57.00355zM556.8039 66.15295l9.984-.02925zM535.69125 9.80965l-.01755.02535.01755-.02535h10.02105l.01755.0117-.0117-.02925-.00585.01755h-10.02105zM674.21605 57.00355zM632.8039 66.15295l9.984-.02925zM611.69125 9.80965l-.01755.02535.01755-.02535h10.02105l.01755.0117-.0117-.02925-.00585.01755h-10.02105zM750.21605 57.00355zM708.8039 66.15295l9.984-.02925zM687.69125 9.80965l-.01755.02535.01755-.02535h10.02105l.01755.0117-.0117-.02925-.00585.01755h-10.02105zM826.21605 57.00355zM784.8039 66.15295l9.984-.02925zM763.69125 9.80965l-.01755.02535.01755-.02535h10.02105l.01755.0117-.0117-.02925-.00585.01755h-10.02105zM902.21605 57.00355zM860.8039 66.15295l9.984-.02925zM839.69125 9.80965l-.01755.02535.01755-.02535h10.02105l.01755.0117-.0117-.02925-.00585.01755h-10.02105zM978.21605 57.00355zM917.3039 66.15295l9.984-.02925zM911.79125 9.80965l-.01755.02535.01755-.02535h10.02105l.01755.0117-.0117-.02925-.00585.01755h-10.02105zM1054.21605 57.00355zM994.781563 65.5192l-.23595.63375 9.984-.02925.2028-.5421zM988.103943 9.9793l-.0819-.1443.01755-.02535h10.02105l.01755.0117.03705.09945-.00585.01755-9.9684.04095h-.03705zM1130.21605 57.00355zM1072.69223 63.62185l-.94575 2.5311 9.984-.02925.8151-2.1684zM1064.535216 10.4902l-.273-.6552.01755-.02535h10.02105l.01755.0117.18135.4875-.00585.01755-9.9216.1638h-.03705zM1206.21605 57.00355zM1151.035902 60.457l-2.1294 5.69595 9.984-.02925 1.833-4.8789zM1141.08117 11.33065l-.58695-1.49565.01755-.02535h10.02105l.01755.0117.41925 1.12515-.00585.01755-9.84555.3666h-.03705zM1282.21605 57.00355zM1229.810627 56.02855l-3.78495 10.1244 9.984-.02925 3.25845-8.67165zM1217.741805 12.4948l-1.02375-2.6598.01755-.02535h10.02105l.01755.0117.74685 2.0085-.00585.01755-9.73635.6474h-.03705zM1358.21605 57.00355zM1309.020307 50.3326l-5.9163 15.82035 9.984-.02925 5.0934-13.55055zM1294.507371 13.9612l-1.57365-4.1262.01755-.02535h10.02105l.01755.0117 1.1622 3.12195-.00585.01755-9.6018 1.00035h-.03705zM1434.21605 57.00355zM1388.65909 43.37305l-8.5176 22.7799 9.984-.02925 7.33395-19.5117zM1371.370068 15.7162l-2.22885-5.8812.01755-.02535h10.02105l.01755.0117 1.65945 4.4538-.00585.01755-9.44385 1.4235h-.03705zM1510.21605 57.00355zM1468.732829 35.146l-11.5947 31.00695 9.984-.02925 9.98205-26.559zM1448.325996 17.73445l-2.98545-7.89945.01755-.02535h10.02105l.01755.0117 2.22885 5.9865-.00585.01755-9.25665 1.90905h-.03705zM1586.21605 57.00355zM1549.237621 25.65535l-15.1437 40.4976 9.984-.02925 13.0377-34.68855zM1525.361504 19.9867l-3.8298-10.1517.01755-.02535h10.02105l.01755.0117 2.8665 7.69665-.00585.01755-9.04995 2.45115h-.03705zM1662.21605 57.00355zM1630.175417 14.8972l-19.16655 51.25575 9.984-.02925 16.49895-43.9023zM1602.464893 22.4476l-4.7502-12.6126.01755-.02535h10.02105l.01755.0117 3.56265 9.56475-.00585.01755-8.8257 3.04395h-.03705zM1738.21605 57.00355zM1709.147718 9.2851l-21.26475 56.86785 9.984-.02925 18.3066-48.711.4524-1.6809zM1679.626414 25.08205l-5.7369-15.24705.01755-.02535h10.02105l.01755.0117 4.30755 11.5635-.00585.01755-8.5839 3.67965h-.03705zM1814.21605 57.00355zM1785.980973 9.2851l-21.26475 56.86785 9.984-.02925 18.3066-48.711.25545.09165 1.5951-5.8149-.24375-.08775-.04095-.01365zM1756.832415 27.85495l-6.77625-18.01995.01755-.02535h10.02105l.01755.0117 5.09145 13.66755-.00585.0195-8.32845 4.34655h-.03705zM1890.21605 57.00355zM1862.773382 9.2851l-21.26475 56.86785 9.984-.02925 18.3066-48.711 3.4398 1.24215h-.00195.00195l1.96365-5.70765-3.2721-1.1817-.5655-.17745zM1834.067296 30.7312l-7.85265-20.8962.01755-.02535h10.02105l.01755.0117 5.9046 15.85155-.00585.01755-8.0652 5.04075h-.03705z" fill="#ffffff"/><g><path d="M1966.21605 57.00355zM1939.524945 9.2851l-21.26475 56.86785 9.984-.02925 18.3066-48.711 6.6222 2.3907h-.00195.00195l2.33415-5.5965-6.3024-2.2776-1.0881-.34125zM1911.319359 33.6718l-8.9544-23.8368.01755-.02535h10.02105l.01755.0117 6.73725 18.08235-.00585.0195-7.7961 5.7486h-.03705z" fill="#ffffff"/></g><g><path d="M2042.21605 57.00355zM2016.235662 9.2851l-21.26475 56.86785 9.984-.02925 18.3066-48.711 7.06875 2.55255c.33735.1209.6708.3081.8697.61815.156.2457.2691.5226.17745.8151h.00195l-.2184.68835 3.0459-4.3641c.3354-.69225.4875-1.5327.05655-2.22885-.34515-.55575-.9516-.89505-1.5483-1.1115l-6.72555-2.4297-1.1622-.36465zM1988.571052 36.63775L1978.507102 9.835l.01755-.02535h10.02105l.01755.0117 7.57575 20.3346-.00585.01755-7.52505 6.46425h-.03705z" fill="#ffffff"/></g><g><path d="M2118.21605 57.00355zM2092.905534 9.2851l-21.26475 56.86785 9.984-.02925 18.3066-48.711 7.06875 2.55255c.73125.26325 1.4508.66495 1.88175 1.3377.3393.52845.58305 1.12905.3861 1.76475h.00195l-.47385 1.4859 3.8142-2.9445c.7254-1.5015 1.053-3.3189.12285-4.8243-.7449-1.20315-2.0553-1.9344-3.34815-2.4024l-6.72555-2.4297-1.1622-.36465zM2065.810677 39.5881l-11.1696-29.7531.01755-.02535h10.02105l.01755.0117 8.41035 22.57515-.00585.01755-7.254 7.17405h-.03705z" fill="#ffffff"/></g><g><path d="M2194.21605 57.00355zM2169.53456 9.2851l-21.26475 56.86785 9.984-.02925 18.3066-48.711 7.06875 2.55255c1.1232.4056 2.2308 1.0218 2.8938 2.05725.52065.81315.897 1.73745.5967 2.71245l-.7293 2.2854 4.5825-1.52685c1.1154-2.30685 1.62045-5.1012.18915-7.4178-1.14465-1.8486-3.16095-2.9757-5.148-3.6933l-6.72555-2.4297-1.1622-.36465zM2143.022632 42.48775L2130.766882 9.835l.01755-.02535h10.02105l.01755.0117 9.22935 24.77475-.00585.0195-6.98685 7.87215h-.03705z" fill="#ffffff"/></g><g><path d="M2270.21605 57.00355zM2246.12274 9.2851l-21.26475 56.86785 9.984-.02925 18.3066-48.711 7.06875 2.55255c1.5171.546 3.01275 1.3806 3.9039 2.77485.70395 1.09785 1.2129 2.34585.8073 3.6621l-.98475 3.08295 5.3508-.1053c1.50735-3.11415 2.1879-6.8874.25545-10.01325-1.5444-2.49405-4.2666-4.01505-6.94785-4.9842l-6.72555-2.4297-1.1622-.36465zM2220.191318 45.29575l-13.3068-35.46075.01755-.02535h10.02105l.01755.0117 10.023 26.9061-.00585.0195-6.72945 8.5488h-.03705z" fill="#ffffff"/></g><g><path d="M2346.21605 57.00355zM2322.670073 9.2851l-21.26475 56.86785 9.984-.02925 18.3066-48.711 7.06875 2.55255c1.90905.68835 3.79275 1.73745 4.91595 3.4944.8853 1.38255 1.5249 2.9523 1.01595 4.6098l-1.2402 3.88245 6.1191 1.31235c1.89735-3.92145 2.75535-8.6697.32175-12.6048-1.94415-3.14145-5.3703-5.05635-8.7477-6.27705l-6.72555-2.4297-1.1622-.36465zM2297.305035 47.97505L2282.993985 9.835l.01755-.02535h10.02105l.01755.0117 10.78155 28.93995-.00585.0195-6.48375 9.19425h-.03705z" fill="#ffffff"/></g><g><path d="M2422.21605 57.00355zM2399.176562 9.2851l-21.26475 56.86785 9.984-.02925 18.3066-48.711 7.06875 2.55255c2.30295.8307 4.57275 2.0943 5.928 4.21395 1.06665 1.6653 1.83885 3.55875 1.2246 5.5575l-1.4937 4.68195 6.88545 2.73c2.28735-4.7268 3.32085-10.45395.39-15.1983-2.34585-3.7869-6.4779-6.0957-10.5495-7.56795l-6.72555-2.4297-1.1622-.36465zM2374.348182 50.49055l-15.2529-40.65555.01755-.02535h10.02105l.01755.0117 11.4933 30.85095-.00585.01755-6.25365 9.8007h-.03705z" fill="#ffffff"/></g><g><path d="M2498.21605 57.00355zM2475.642204 9.2851l-21.26475 56.86785 9.984-.02925 18.3066-48.711 7.06875 2.55255c2.42775.87555 4.82235 2.20935 6.2517 4.44405 1.12515 1.75695 1.94025 3.75375 1.2909 5.8617l-1.5756 4.9374c-.16965.51285-.6591.819-1.2012.9009l7.4412 3.38325c.39195-.2808.68445-.66885.8931-1.0998 2.41215-4.98615 3.5022-11.0253.4095-16.029-2.4726-3.9936-6.83085-6.42915-11.12475-7.98135l-6.72555-2.4297-1.1622-.36465zM2451.31101 52.81105L2435.18841 9.835l.01755-.02535h10.02105l.01755.0117 12.1485 32.60985-.00585.0195-6.03915 10.36035h-.03705z" fill="#ffffff"/></g><g><path d="M2574.21605 57.00355zM2552.067 9.2851l-21.26475 56.86785 9.984-.02925 18.3066-48.711 7.06875 2.55255c2.42775.87555 4.82235 2.20935 6.2517 4.44405 1.12515 1.75695 1.94025 3.75375 1.2909 5.8617l-1.5756 4.9374c-.41925 1.26555-1.62825 2.0202-2.96985 2.22495l7.89555 3.67575c.96915-.69225 1.69065-1.6497 2.2074-2.71635 2.41215-4.98615 3.5022-11.0253.4095-16.029-2.4726-3.9936-6.83085-6.42915-11.12475-7.98135l-6.72555-2.4297-1.1622-.36465zM2528.17792 54.90145L2511.27337 9.835l.01755-.02535h10.02105l.01755.0117 12.73935 34.19715-.00585.0195-5.84805 10.86345h-.03705z" fill="#ffffff"/></g><g><path d="M2650.21605 57.00355zM2628.450951 9.2851l-21.26475 56.86785 9.984-.02925 18.3066-48.711 7.06875 2.55255c2.42775.87555 4.82235 2.20935 6.2517 4.44405 1.12515 1.75695 1.94025 3.75375 1.2909 5.8617l-1.5756 4.9374c-.6708 2.0202-2.5974 3.22335-4.73655 3.549l8.34795 3.96825c1.5483-1.1037 2.69685-2.6325 3.5217-4.3329 2.41215-4.98615 3.5022-11.0253.4095-16.029-2.4726-3.9936-6.83085-6.42915-11.12475-7.98135l-6.72555-2.4297-1.1622-.36465zM2604.94306 56.73835L2587.35016 9.835l.01755-.02535h10.02105l.01755.0117 13.26 35.5914-.00585.0195-5.68035 11.3061h-.03705z" fill="#ffffff"/></g><g><path d="M2726.21605 57.00355zM2704.794056 9.2851l-21.26475 56.86785 9.984-.02925 18.3066-48.711 7.06875 2.55255c2.42775.87555 4.82235 2.20935 6.2517 4.44405 1.12515 1.75695 1.94025 3.75375 1.2909 5.8617l-1.5756 4.9374c-.9204 2.77485-3.56655 4.4265-6.5052 4.87305l8.8023 4.26075c2.1255-1.5171 3.70305-3.61335 4.836-5.94945 2.41215-4.98615 3.5022-11.0253.4095-16.029-2.4726-3.9936-6.83085-6.42915-11.12475-7.98135l-6.72555-2.4297-1.1622-.36465zM2681.594731 58.29445L2663.418781 9.835l.01755-.02535h10.02105l.01755.0117 13.69875 36.7731-.00585.0195-5.53605 11.6805h-.03705z" fill="#ffffff"/></g><g><path d="M2802.21605 57.00355zM2781.096315 9.2851l-21.26475 56.86785 9.984-.02925 18.3066-48.711 7.06875 2.55255c2.42775.87555 4.82235 2.20935 6.2517 4.44405 1.12515 1.75695 1.94025 3.75375 1.2909 5.8617l-1.5756 4.9374c-.93015 2.8041-3.60555 4.47525-6.5754 4.9257-.3237.04875-.65325-.01755-.9633-.1287l7.1214 4.48695c.8424.30615 1.8759.47775 2.66175-.0858 2.1489-1.5327 3.744-3.65235 4.88865-6.0138 2.41215-4.98615 3.5022-11.0253.4095-16.029-2.4726-3.9936-6.83085-6.42915-11.12475-7.98135l-6.72555-2.4297-1.1622-.36465zM2758.125133 59.55025l-18.6459-49.71525.01755-.02535h10.02105l.01755.0117 14.0556 37.72665-.00585.0195-5.42295 11.98275h-.03705z" fill="#ffffff"/></g><g><path d="M2878.21605 57.00355zM2857.357728 9.2851l-21.26475 56.86785 9.984-.02925 18.3066-48.711 7.06875 2.55255c2.42775.87555 4.82235 2.20935 6.2517 4.44405 1.12515 1.75695 1.94025 3.75375 1.2909 5.8617l-1.5756 4.9374c-.93015 2.8041-3.60555 4.47525-6.5754 4.9257-.663.1014-1.3338-.0351-1.96755-.26325l5.35275 4.7112c1.72185.624 3.82785.97695 5.43465-.1755 2.1489-1.5327 3.744-3.65235 4.88865-6.0138 2.41215-4.98615 3.5022-11.0253.4095-16.029-2.4726-3.9936-6.83085-6.42915-11.12475-7.98135l-6.72555-2.4297-1.1622-.36465zM2834.530366 60.4882l-18.99885-50.6532.01755-.02535h10.02105l.01755.0117 14.3208 38.4384-.00585.0195-5.3352 12.20895h-.03705z" fill="#ffffff"/></g><g><path d="M2954.21605 57.00355zM2933.578296 9.2851l-21.26475 56.86785 9.984-.02925 18.3066-48.711 7.06875 2.55255c2.42775.87555 4.82235 2.20935 6.2517 4.44405 1.12515 1.75695 1.94025 3.75375 1.2909 5.8617l-1.5756 4.9374c-.93015 2.8041-3.60555 4.47525-6.5754 4.9257-1.00035.1521-2.01435-.05265-2.9718-.3978l3.5841 4.9335c2.59935.9438 5.78175 1.47615 8.20755-.26325 2.1489-1.5327 3.744-3.65235 4.88865-6.0138 2.41215-4.98615 3.5022-11.0253.4095-16.029-2.4726-3.9936-6.83085-6.42915-11.12475-7.98135l-6.72555-2.4297-1.1622-.36465zM2910.80263 61.09855l-19.227-51.26355.01755-.02535h10.02105l.01755.0117 14.4924 38.9025-.00585.0195-5.27865 12.3552h-.03705z" fill="#ffffff"/></g><g><path d="M3030.21605 57.00355zM3009.758018 9.2851l-21.26475 56.86785 9.984-.02925 18.3066-48.711 7.06875 2.55255c2.42775.87555 4.82235 2.20935 6.2517 4.44405 1.12515 1.75695 1.94025 3.75375 1.2909 5.8617l-1.5756 4.9374c-.93015 2.8041-3.60555 4.47525-6.5754 4.9257-1.3377.20475-2.6949-.0702-3.97605-.5343l1.8174 5.1597c3.4749 1.26165 7.7337 1.9734 10.9785-.35295 2.1489-1.5327 3.744-3.65235 4.88865-6.0138 2.41215-4.98615 3.5022-11.0253.4095-16.029-2.4726-3.9936-6.83085-6.42915-11.12475-7.98135l-6.72555-2.4297-1.1622-.36465zM2986.939974 61.37155l-19.3284-51.53655.01755-.02535h10.02105l.01755.0117 14.5704 39.1092-.00585.0195-5.25525 12.4215h-.03705z" fill="#ffffff"/></g><g><path d="M3106.21605 57.00355zM3085.896893 9.2851l-21.26475 56.86785 9.984-.02925 18.3066-48.711 7.06875 2.55255c2.42775.87555 4.82235 2.20935 6.2517 4.44405 1.12515 1.75695 1.94025 3.75375 1.2909 5.8617l-1.5756 4.9374c-.93015 2.8041-3.60555 4.47525-6.5754 4.9257-1.67505.25545-3.3735-.08775-4.9803-.66885l.04875 5.38395c4.35435 1.5795 9.6876 2.47065 13.7514-.44265 2.1489-1.5327 3.744-3.65235 4.88865-6.0138 2.41215-4.98615 3.5022-11.0253.4095-16.029-2.4726-3.9936-6.83085-6.42915-11.12475-7.98135l-6.72555-2.4297-1.1622-.36465zM3062.973599 61.38715L3043.639349 9.835l.01755-.02535h10.02105l.01755.0117 14.5743 39.1209-.00585.0195-5.2533 12.4254h-.03705z" fill="#ffffff"/></g><g><path d="M3182.21605 57.00355zM3161.994923 9.2851l-21.26475 56.86785 9.984-.02925 18.3066-48.711 7.06875 2.55255c2.42775.87555 4.82235 2.20935 6.2517 4.44405 1.12515 1.75695 1.94025 3.75375 1.2909 5.8617l-1.5756 4.9374c-.93015 2.8041-3.60555 4.47525-6.5754 4.9257-2.0124.3081-4.05405-.10335-5.98455-.8034l-1.7199 5.60625c5.23185 1.8993 11.6415 2.9718 16.5243-.5304 2.1489-1.5327 3.744-3.65235 4.88865-6.0138 2.41215-4.98615 3.5022-11.0253.4095-16.029-2.4726-3.9936-6.83085-6.42915-11.12475-7.98135l-6.72555-2.4297-1.1622-.36465zM3138.993205 61.38715L3119.658955 9.835l.01755-.02535h10.02105l.01755.0117 14.5743 39.1209-.00585.0195-5.2533 12.4254h-.03705z" fill="#ffffff"/></g><g><path d="M3258.21605 57.00355zM3238.052107 9.2851l-21.26475 56.86785 9.984-.02925 18.3066-48.711 7.06875 2.55255c2.42775.87555 4.82235 2.20935 6.2517 4.44405 1.12515 1.75695 1.94025 3.75375 1.2909 5.8617l-1.5756 4.9374c-.93015 2.8041-3.60555 4.47525-6.5754 4.9257-2.10795.32175-4.24515-.1092-6.26535-.84045l-2.9484-1.1349-2.65395 5.58675 3.38715 1.2168c5.47755 1.989 12.1875 3.11025 17.3004-.55575 2.1489-1.5327 3.744-3.65235 4.88865-6.0138 2.41215-4.98615 3.5022-11.0253.4095-16.029-2.4726-3.9936-6.83085-6.42915-11.12475-7.98135l-6.72555-2.4297-1.1622-.36465zM3215.004641 61.38715L3195.670391 9.835l.01755-.02535h10.02105l.01755.0117 14.5743 39.1209-.00585.0195-5.2533 12.4254h-.03705z" fill="#ffffff"/></g><g><path d="M3334.21605 57.00355zM3314.06865 9.2851l-21.26475 56.86785 9.984-.02925 18.3066-48.711 7.06875 2.55255c2.42775.87555 4.82235 2.20935 6.2517 4.44405 1.12515 1.75695 1.94025 3.75375 1.2909 5.8617l-1.5756 4.9374c-.93015 2.8041-3.60555 4.47525-6.5754 4.9257-2.10795.32175-4.24515-.1092-6.26535-.84045l-5.15775-1.98705-2.9835 5.5263 5.92605 2.1294c5.47755 1.989 12.1875 3.11025 17.3004-.55575 2.1489-1.5327 3.744-3.65235 4.88865-6.0138 2.41215-4.98615 3.5022-11.0253.4095-16.029-2.4726-3.9936-6.83085-6.42915-11.12475-7.98135l-6.72555-2.4297-1.1622-.36465zM3291.00795 61.38715L3271.6737 9.835l.01755-.02535h10.02105l.01755.0117 14.5743 39.1209-.00585.0195-5.2533 12.4254h-.03705z" fill="#ffffff"/></g><g><path d="M3410.21605 57.00355zM3390.06865 9.2851l-21.26475 56.86785 9.984-.02925 18.3066-48.711 7.06875 2.55255c2.42775.87555 4.82235 2.20935 6.2517 4.44405 1.12515 1.75695 1.94025 3.75375 1.2909 5.8617l-1.5756 4.9374c-.93015 2.8041-3.60555 4.47525-6.5754 4.9257-2.10795.32175-4.24515-.1092-6.26535-.84045l-6.4272-2.47455-3.17265 5.48925 7.38465 2.65395c5.47755 1.989 12.1875 3.11025 17.3004-.55575 2.1489-1.5327 3.744-3.65235 4.88865-6.0138 2.41215-4.98615 3.5022-11.0253.4095-16.029-2.4726-3.9936-6.83085-6.42915-11.12475-7.98135l-6.72555-2.4297-1.1622-.36465zM3367.00795 61.38715L3347.6737 9.835l.01755-.02535h10.02105l.01755.0117 14.5743 39.1209-.00585.0195-5.2533 12.4254h-.03705z" fill="#ffffff"/></g><g><path d="M3486.21605 57.00355zM3466.06865 9.2851l-21.26475 56.86785 9.984-.02925 18.3066-48.711 7.06875 2.55255c2.42775.87555 4.82235 2.20935 6.2517 4.44405 1.12515 1.75695 1.94025 3.75375 1.2909 5.8617l-1.5756 4.9374c-.93015 2.8041-3.60555 4.47525-6.5754 4.9257-2.10795.32175-4.24515-.1092-6.26535-.84045l-7.11165-2.7378-3.2721 5.46975 8.16855 2.9367c5.47755 1.989 12.1875 3.11025 17.3004-.55575 2.1489-1.5327 3.744-3.65235 4.88865-6.0138 2.41215-4.98615 3.5022-11.0253.4095-16.029-2.4726-3.9936-6.83085-6.42915-11.12475-7.98135l-6.72555-2.4297-1.1622-.36465zM3443.00795 61.38715L3423.6737 9.835l.01755-.02535h10.02105l.01755.0117 14.5743 39.1209-.00585.0195-5.2533 12.4254h-.03705z" fill="#ffffff"/></g><g><path d="M3562.3194 57.0874v.47775h-.2067-.00195v-.4758-.00195h-.468v-.00195l.04875-.2067h.41925v-.3549-.00195h.00195l.20475-.07995h.00195v.4368H3562.78935v.00195l-.0312.2067H3562.3194M3542.06865 9.2851l-21.26475 56.86785 9.984-.02925 18.3066-48.711 7.06875 2.55255c2.42775.87555 4.82235 2.20935 6.2517 4.44405 1.12515 1.75695 1.94025 3.75375 1.2909 5.8617l-1.5756 4.9374c-.93015 2.8041-3.60555 4.47525-6.5754 4.9257-2.10795.32175-4.24515-.1092-6.26535-.84045l-7.37295-2.8392-3.3111 5.4639 8.46885 3.04395c5.47755 1.989 12.1875 3.11025 17.3004-.55575 2.1489-1.5327 3.744-3.65235 4.88865-6.0138 2.41215-4.98615 3.5022-11.0253.4095-16.029-2.4726-3.9936-6.83085-6.42915-11.12475-7.98135l-6.72555-2.4297-1.1622-.36465zM3519.00795 61.38715L3499.6737 9.835l.01755-.02535h10.02105l.01755.0117 14.5743 39.1209-.00585.0195-5.2533 12.4254h-.03705z" fill="#ffffff"/></g><g><path d="M3638.66455 57.3682c-.00195.00195-.00195.00195-.00195.0039l.00195 2.04945v.0039c-.00195 0-.00195.00195-.0039.00195h-.8931s-.00195 0-.00195-.00195c-.00195 0-.00195-.00195-.00195-.0039V57.3721v-.0039c-.00195 0-.0039-.00195-.0039-.00195H3635.74345l-.00195-.00195v-.0039l.2145-.89115.00195-.00195c.00195-.00195.00195-.00195.0039-.00195h1.8018V54.9346v-.00195c0-.00195 0-.00195.00195-.00195 0-.00195 0-.00195.00195-.00195l.8892-.34905h.00195c.00195 0 .00195.00195.0039.00195v1.8798c0 .00195 0 .00195.00195.00195 0 .00195 0 .00195.00195.00195 0 .00195.00195.00195.00195 0h2.0163c.00195 0 .00195 0 .0039.00195l.00195.00195v.0039l-.1365.8892s-.00195.00195-.00195.0039h-1.8837-.00195c-.00195 0-.00195.00195-.00195.00195M3618.06865 9.2851l-21.26475 56.86785 9.984-.02925 18.3066-48.711 7.06875 2.55255c2.42775.87555 4.82235 2.20935 6.2517 4.44405 1.12515 1.75695 1.94025 3.75375 1.2909 5.8617l-1.5756 4.9374c-.93015 2.8041-3.60555 4.47525-6.5754 4.9257-2.10795.32175-4.24515-.1092-6.26535-.84045l-7.3827-2.8431-3.31305 5.4639 8.48055 3.04785c5.47755 1.989 12.1875 3.11025 17.3004-.55575 2.1489-1.5327 3.744-3.65235 4.88865-6.0138 2.41215-4.98615 3.5022-11.0253.4095-16.029-2.4726-3.9936-6.83085-6.42915-11.12475-7.98135l-6.72555-2.4297-1.1622-.36465zM3595.00795 61.38715L3575.6737 9.835l.01755-.02535h10.02105l.01755.0117 14.5743 39.1209-.00585.0195-5.2533 12.4254h-.03705z" fill="#ffffff"/></g><g><path d="M3714.96485 57.6139c0 .00195-.00195.0039-.00195.00585l.00195 3.43005c.00195.00195 0 .0039 0 .00585 0 .00195-.00195.00195-.0039.0039H3713.46725c-.00195 0-.0039-.00195-.00585-.0039-.00195-.00195-.00195-.0039-.00195-.00585v-3.43005c0-.00195-.00195-.0039-.00195-.00585-.00195-.00195-.0039-.00195-.00585-.00195h-3.36765c-.00195 0-.0039 0-.00585-.00195 0-.00195-.00195-.00195-.00195-.0039v-.00585l.3588-1.4898c0-.00195.00195-.0039.0039-.0039.00195-.00195.0039-.00195.00585-.00195h3.0069c.00195 0 .0039 0 .00585-.00195 0-.00195.00195-.0039.00195-.00585v-2.5545s-.00195-.00195 0-.0039c0-.00195 0-.00195.00195-.0039 0-.00195.00195-.00195.0039-.00195l1.48785-.58305c.00195-.00195.0039-.00195.0039-.00195.00195.00195.0039.00195.00585.0039 0 .00195.00195.0039 0 .00585v3.1395c0 .00195.00195.0039.00195.0039 0 .00195.00195.0039.0039.0039h3.37935c.00195 0 .0039 0 .00585.00195 0 0 .00195.00195.00195.0039v.0039l-.22815 1.48785c0 .00195-.00195.00585-.0039.0078-.00195 0-.00195.00195-.0039.00195H3714.96875c-.00195 0-.0039 0-.0039.00195M3694.06865 9.2851l-21.26475 56.86785 9.984-.02925 18.3066-48.711 7.06875 2.55255c2.42775.87555 4.82235 2.20935 6.2517 4.44405 1.12515 1.75695 1.94025 3.75375 1.2909 5.8617l-1.5756 4.9374c-.93015 2.8041-3.60555 4.47525-6.5754 4.9257-2.10795.32175-4.24515-.1092-6.26535-.84045l-7.3827-2.8431-3.31305 5.4639 8.48055 3.04785c5.47755 1.989 12.1875 3.11025 17.3004-.55575 2.1489-1.5327 3.744-3.65235 4.88865-6.0138 2.41215-4.98615 3.5022-11.0253.4095-16.029-2.4726-3.9936-6.83085-6.42915-11.12475-7.98135l-6.72555-2.4297-1.1622-.36465zM3671.00795 61.38715L3651.6737 9.835l.01755-.02535h10.02105l.01755.0117 14.5743 39.1209-.00585.0195-5.2533 12.4254h-.03705z" fill="#ffffff"/></g><g><path d="M3791.2242 57.82645c-.00195.00195-.00195.0039-.00195.00585l.00195 4.61565c.00195.00195 0 .00585 0 .0078-.00195.00195-.0039.0039-.00585.0039-.00195.00195-.00585.00195-.0078 0h-2.00265c-.00195 0-.0039 0-.00585-.00195-.0039-.0039-.0039-.00585-.0039-.00975V57.8323c0-.0039-.00195-.00585-.00195-.0078-.0039-.00195-.00585-.00195-.00975-.0039H3784.6488c-.00195-.0039-.0039-.0039-.0039-.00585v-.0078l.4836-2.00655c0-.00195.0039-.0039.0039-.0039.00195-.00195.00585-.00195.0078-.00195h4.04625c.0039 0 .00585-.00195.00975-.0039 0-.00195.00195-.00585.00195-.0078v-3.4359c0-.00195-.00195-.0039 0-.00585 0-.00195 0-.0039.00195-.00585.00195-.00195.0039-.00195.0039-.00195l2.00265-.78585h.0078c.00195 0 .0039.00195.00585.0039.00195.00195.00195.00585.00195.0078v4.2237c0 .00195 0 .00585.00195.00585 0 .00195.0039.0039.00585.00585h4.54545c.0039 0 .00585 0 .0078.00195.00195 0 .0039.0039.0039.0039v.0078l-.3081 2.00265c0 .00195-.00195.00585-.0039.0078-.00195.00195-.0039.00195-.00585.00195h-4.2393c-.00195.00195-.00585.00195-.00585.00585M3770.06865 9.2851l-21.26475 56.86785 9.984-.02925 18.3066-48.711 7.06875 2.55255c2.42775.87555 4.82235 2.20935 6.2517 4.44405 1.12515 1.75695 1.94025 3.75375 1.2909 5.8617l-1.5756 4.9374c-.93015 2.8041-3.60555 4.47525-6.5754 4.9257-2.10795.32175-4.24515-.1092-6.26535-.84045l-7.3827-2.8431-3.31305 5.4639 8.48055 3.04785c5.47755 1.989 12.1875 3.11025 17.3004-.55575 2.1489-1.5327 3.744-3.65235 4.88865-6.0138 2.41215-4.98615 3.5022-11.0253.4095-16.029-2.4726-3.9936-6.83085-6.42915-11.12475-7.98135l-6.72555-2.4297-1.1622-.36465zM3747.00795 61.38715L3727.6737 9.835l.01755-.02535h10.02105l.01755.0117 14.5743 39.1209-.00585.0195-5.2533 12.4254h-.03705z" fill="#ffffff"/></g><g><path d="M3867.44065 58.00195c-.00195.0039-.0039.00585-.0039.00975l.0039 5.60625c.00195.00195 0 .0078 0 .0078-.00195.0039-.0039.00585-.0078.00585-.00195.00195-.00585.00195-.0078 0h-2.4336c-.00195 0-.00585 0-.0078-.0039-.0039-.00195-.0039-.00585-.0039-.00975V58.0117c0-.00585-.00195-.0078-.0039-.0117-.00195 0-.00585-.00195-.00975-.0039h-5.51265c-.0039-.0039-.0039-.00585-.00585-.0078 0-.0039 0-.00585.00195-.00975l.58695-2.43555c0-.0039.0039-.0039.0039-.00585.0039-.0039.00585-.0039.00975-.0039h4.91595c.0039 0 .0078 0 .00975-.0039.00195-.00195.0039-.00585.0039-.00975v-4.173c0-.00195-.00195-.0039 0-.0078 0-.00195 0-.0039.00195-.00585.00195-.00195.0039-.0039.00585-.0039l2.4336-.95355h.0078c.00195 0 .00585.00195.0078.00585 0 .00195.00195.00585 0 .0078v5.13045c0 .0039.00195.0078.0039.0078 0 .0039.0039.00585.00585.00585.0039.00195.00585.00195.00975 0h5.5146c.00195 0 .00585 0 .0078.0039.00195.00195.0039.0039.0039.00585.00195.00195.00195.00585 0 .0078l-.37245 2.4336c0 .00195-.00195.00585-.00585.00975-.00195.00195-.00585.00195-.0078.00195H3867.4465c-.00195.00195-.00585.0039-.00585.00585M3846.06865 9.2851l-21.26475 56.86785 9.984-.02925 18.3066-48.711 7.06875 2.55255c2.42775.87555 4.82235 2.20935 6.2517 4.44405 1.12515 1.75695 1.94025 3.75375 1.2909 5.8617l-1.5756 4.9374c-.93015 2.8041-3.60555 4.47525-6.5754 4.9257-2.10795.32175-4.24515-.1092-6.26535-.84045l-7.3827-2.8431-3.31305 5.4639 8.48055 3.04785c5.47755 1.989 12.1875 3.11025 17.3004-.55575 2.1489-1.5327 3.744-3.65235 4.88865-6.0138 2.41215-4.98615 3.5022-11.0253.4095-16.029-2.4726-3.9936-6.83085-6.42915-11.12475-7.98135l-6.72555-2.4297-1.1622-.36465zM3823.00795 61.38715L3803.6737 9.835l.01755-.02535h10.02105l.01755.0117 14.5743 39.1209-.00585.0195-5.2533 12.4254h-.03705z" fill="#ffffff"/></g><g><path d="M3943.6142 58.1443c-.00195.0039-.0039.00585-.0039.00975l.00585 6.4038c.00195.0039 0 .0078-.00195.00975-.00195.0039-.00585.00585-.0078.00585-.0039.00195-.0078.00195-.00975 0h-2.77875c-.0039 0-.00585 0-.00975-.0039s-.00585-.00585-.00585-.0117v-6.4038c0-.00585 0-.0078-.00195-.0117-.0039-.00195-.0078-.0039-.0117-.0039h-6.2868c-.0039 0-.00585 0-.00975-.00195-.0039-.0039-.0039-.00585-.00585-.0078 0-.0039 0-.0078.00195-.00975l.6708-2.7846c0-.00195.00195-.0039.0039-.00585.0039-.0039.0078-.0039.00975-.0039h5.616c.0039 0 .0078-.00195.0117-.0039.00195-.0039.00195-.0078.00195-.0117v-4.7658-.00975c0-.00195.00195-.0039.0039-.0078.00195-.00195.00585-.00195.0078-.00195l2.7768-1.09005h.00975c.0039 0 .0078.00195.0078.00585.00195.0039.0039.00585.00195.00975V55.309c0 .0039.00195.0078.0039.00975.00195.0039.0039.0039.0078.00585.0039.00195.0078.00195.00975 0h6.2985c.0039 0 .00585 0 .00975.0039.00195.00195.0039.0039.0039.00585.00195.0039.00195.0078 0 .00975l-.4251 2.77875c0 .0039-.00195.0078-.00585.0117-.0039.00195-.00585.0039-.00975.0039H3943.622c-.0039 0-.00585.00195-.0078.00585M3922.06865 9.2851l-21.26475 56.86785 9.984-.02925 18.3066-48.711 7.06875 2.55255c2.42775.87555 4.82235 2.20935 6.2517 4.44405 1.12515 1.75695 1.94025 3.75375 1.2909 5.8617l-1.5756 4.9374c-.93015 2.8041-3.60555 4.47525-6.5754 4.9257-2.10795.32175-4.24515-.1092-6.26535-.84045l-7.3827-2.8431-3.31305 5.4639 8.48055 3.04785c5.47755 1.989 12.1875 3.11025 17.3004-.55575 2.1489-1.5327 3.744-3.65235 4.88865-6.0138 2.41215-4.98615 3.5022-11.0253.4095-16.029-2.4726-3.9936-6.83085-6.42915-11.12475-7.98135l-6.72555-2.4297-1.1622-.36465zM3899.00795 61.38715L3879.6737 9.835l.01755-.02535h10.02105l.01755.0117 14.5743 39.1209-.00585.0195-5.2533 12.4254h-.03705z" fill="#ffffff"/></g><g><path d="M4019.74485 58.25155c0 .0039-.00195.0078-.00195.00975l.0039 7.0083c.00195.00195 0 .0078-.00195.00975 0 .0039-.0039.00585-.0078.0078-.0039.00195-.0078.00195-.0117 0h-3.0381c-.0039 0-.0078-.00195-.0117-.00585-.0039-.0039-.00585-.0078-.00585-.0117v-7.0083c0-.0039-.00195-.0078-.0039-.0117-.00195-.00195-.00585-.0039-.0117-.00585h-6.87765c-.0039 0-.0078 0-.0117-.00195-.00195-.00195-.0039-.0039-.00585-.0078 0-.0039 0-.0078.00195-.0117l.7332-3.04395c0-.0039.0039-.00585.00585-.0078.0039-.0039.0078-.0039.0117-.0039h6.1425c.00585 0 .00975-.00195.0117-.0039.00195-.0039.0039-.0078.0039-.01365v-5.2143c0-.00195-.00195-.00585 0-.00975 0-.00195.00195-.0039.0039-.0078.00195-.00195.00585-.0039.0078-.0039l3.04005-1.19145c.00195-.00195.00585-.00195.00975-.00195.0039.00195.0078.0039.00975.0078.00195.0039.0039.0078.00195.00975v6.4116c0 .00585.00195.00975.00195.0117.00195.00195.00585.0039.00975.00585.0039.00195.0078.00195.0117 0h6.88935c.0039 0 .0078 0 .0117.0039.00195.00195.0039.00585.0039.0078.00195.0039.00195.00585 0 .00975l-.46605 3.04005c0 .0039-.00195.00975-.00585.01365-.0039 0-.0078.00195-.00975.00195H4019.7546c-.0039.00195-.0078.0039-.00975.0078M3998.06865 9.2851l-21.26475 56.86785 9.984-.02925 18.3066-48.711 7.06875 2.55255c2.42775.87555 4.82235 2.20935 6.2517 4.44405 1.12515 1.75695 1.94025 3.75375 1.2909 5.8617l-1.5756 4.9374c-.93015 2.8041-3.60555 4.47525-6.5754 4.9257-2.10795.32175-4.24515-.1092-6.26535-.84045l-7.3827-2.8431-3.31305 5.4639 8.48055 3.04785c5.47755 1.989 12.1875 3.11025 17.3004-.55575 2.1489-1.5327 3.744-3.65235 4.88865-6.0138 2.41215-4.98615 3.5022-11.0253.4095-16.029-2.4726-3.9936-6.83085-6.42915-11.12475-7.98135l-6.72555-2.4297-1.1622-.36465zM3975.00795 61.38715L3955.6737 9.835l.01755-.02535h10.02105l.01755.0117 14.5743 39.1209-.00585.0195-5.2533 12.4254h-.03705z" fill="#ffffff"/></g><g><path d="M4095.83455 58.3237c-.00195.0039-.0039.0078-.0039.0117l.00585 7.4139c.00195.0039 0 .00975-.00195.0117-.00195.0039-.00585.00585-.00975.0078-.0039.00195-.0078.00195-.00975 0h-3.2175c-.0039 0-.0078-.00195-.0117-.00585-.0039-.0039-.00585-.0078-.00585-.01365v-7.4139c0-.00585-.00195-.00975-.0039-.01365-.0039-.00195-.0078-.0039-.01365-.00585h-7.2774c-.0039 0-.0078 0-.0117-.00195-.0039-.00195-.00585-.0039-.0078-.0078 0-.0039 0-.0078.00195-.0117l.77805-3.22335c0-.0039.0039-.00585.00585-.0078.00195-.0039.00585-.0039.00975-.0039h6.5013c.00585 0 .00975-.00195.01365-.0039.00195-.0039.0039-.0078.0039-.01365v-5.5185c0-.00195-.00195-.00585 0-.00975 0-.0039.00195-.00585.0039-.00975.00195-.00195.00585-.0039.0078-.0039l3.2175-1.2597c.0039-.00195.00585-.00195.00975-.00195.0039.00195.0078.0039.00975.0078.00195.0039.0039.0078.00195.0117v6.78405c0 .00585.00195.00975.0039.0117.00195.0039.00585.0039.00975.00585.0039.00195.0078.00195.0117 0h7.29105c.0039 0 .0078 0 .0117.0039.00195.00195.00585.00585.00585.0078.00195.0039.00195.0078 0 .0117l-.49335 3.2175c0 .0039-.00195.00975-.00585.0117-.0039.00195-.0078.0039-.0117.0039h-6.8094c-.0039.00195-.0078.0039-.00975.0078M4074.06865 9.2851l-21.26475 56.86785 9.984-.02925 18.3066-48.711 7.06875 2.55255c2.42775.87555 4.82235 2.20935 6.2517 4.44405 1.12515 1.75695 1.94025 3.75375 1.2909 5.8617l-1.5756 4.9374c-.93015 2.8041-3.60555 4.47525-6.5754 4.9257-2.10795.32175-4.24515-.1092-6.26535-.84045l-7.3827-2.8431-3.31305 5.4639 8.48055 3.04785c5.47755 1.989 12.1875 3.11025 17.3004-.55575 2.1489-1.5327 3.744-3.65235 4.88865-6.0138 2.41215-4.98615 3.5022-11.0253.4095-16.029-2.4726-3.9936-6.83085-6.42915-11.12475-7.98135l-6.72555-2.4297-1.1622-.36465zM4051.00795 61.38715L4031.6737 9.835l.01755-.02535h10.02105l.01755.0117 14.5743 39.1209-.00585.0195-5.2533 12.4254h-.03705z" fill="#ffffff"/></g><g><path d="M4171.88135 58.3627c-.00195.0039-.0039.0078-.0039.0117l.00585 7.6284c.00195.0039 0 .00975-.00195.0117-.00195.0039-.00585.00585-.00975.0078-.0039.00195-.0078.00195-.0117 0h-3.30915c-.0039 0-.0078-.00195-.0117-.00585-.0039-.0039-.00585-.0078-.00585-.01365v-7.6284c0-.00585-.00195-.00975-.0039-.01365-.0039-.00195-.0078-.0039-.01365-.00585h-7.488c-.0039 0-.0078 0-.0117-.00195-.0039-.0039-.00585-.00585-.0078-.00975 0-.0039 0-.0078.00195-.0117l.7995-3.315c0-.0039.0039-.00585.00585-.0078.0039-.0039.0078-.0039.0117-.0039h6.6885c.00585 0 .00975-.00195.01365-.00585.00195-.0039.0039-.0078.0039-.01365v-5.6784c0-.00195-.00195-.00585 0-.00975 0-.0039.00195-.00585.0039-.00975.00195-.00195.00585-.0039.0078-.0039l3.30915-1.29675c.0039-.00195.0078-.00195.0117-.00195.0039.00195.0078.0039.00975.0078.00195.0039.0039.0078.00195.0117v6.981c0 .00585.00195.00975.0039.0117.00195.0039.00585.00585.00975.0078.0039.00195.0078.00195.0117 0h7.50165c.0039 0 .0078 0 .0117.0039.00195.00195.00585.00585.00585.0078.00195.0039.00195.0078 0 .0117l-.507 3.30915c0 .0039-.00195.00975-.00585.01365-.0039.00195-.0078.0039-.0117.0039h-7.00635c-.0039.00195-.0078.0039-.00975.0078M4150.06865 9.2851l-21.26475 56.86785 9.984-.02925 18.3066-48.711 7.06875 2.55255c2.42775.87555 4.82235 2.20935 6.2517 4.44405 1.12515 1.75695 1.94025 3.75375 1.2909 5.8617l-1.5756 4.9374c-.93015 2.8041-3.60555 4.47525-6.5754 4.9257-2.10795.32175-4.24515-.1092-6.26535-.84045l-7.3827-2.8431-3.31305 5.4639 8.48055 3.04785c5.47755 1.989 12.1875 3.11025 17.3004-.55575 2.1489-1.5327 3.744-3.65235 4.88865-6.0138 2.41215-4.98615 3.5022-11.0253.4095-16.029-2.4726-3.9936-6.83085-6.42915-11.12475-7.98135l-6.72555-2.4297-1.1622-.36465zM4127.00795 61.38715L4107.6737 9.835l.01755-.02535h10.02105l.01755.0117 14.5743 39.1209-.00585.0195-5.2533 12.4254h-.03705z" fill="#ffffff"/></g><g><path d="M4247.88915 58.36855c-.00195.0039-.0039.0078-.0039.0117l.00585 7.6635c.00195.0039 0 .00975-.00195.0117-.00195.0039-.00585.00585-.00975.0078-.0039.00195-.0078.00195-.0117 0h-3.32475c-.0039 0-.0078-.00195-.0117-.00585-.0039-.0039-.00585-.0078-.00585-.01365v-7.6635c0-.00585-.00195-.00975-.0039-.01365-.0039-.00195-.0078-.0039-.01365-.00585h-7.5231c-.0039 0-.0078 0-.0117-.00195-.0039-.0039-.00585-.00585-.0078-.00975 0-.0039 0-.0078.00195-.0117l.8034-3.3306c0-.0039.0039-.00585.00585-.0078.0039-.0039.0078-.0039.0117-.0039h6.7197c.00585 0 .00975-.00195.01365-.00585.00195-.0039.0039-.0078.0039-.01365V49.2718c0-.00195-.00195-.00585 0-.00975 0-.0039.00195-.00585.0039-.00975.00195-.00195.00585-.0039.0078-.0039l3.32475-1.3026c.0039-.00195.0078-.00195.0117-.00195.0039.00195.0078.0039.00975.0078.00195.0039.0039.0078.00195.0117v7.0122c0 .00585.00195.00975.0039.0117.00195.0039.00585.00585.00975.0078.0039.00195.0078.00195.0117 0h7.53675c.0039 0 .0078 0 .0117.0039.00195.00195.00585.00585.00585.0078.00195.0039.00195.0078 0 .0117l-.5109 3.32475c0 .0039-.00195.00975-.00585.01365-.0039.00195-.0078.0039-.0117.0039h-7.03755c-.0039.00195-.0078.0039-.00975.0078M4226.06865 9.2851l-21.26475 56.86785 9.984-.02925 18.3066-48.711 7.06875 2.55255c2.42775.87555 4.82235 2.20935 6.2517 4.44405 1.12515 1.75695 1.94025 3.75375 1.2909 5.8617l-1.5756 4.9374c-.93015 2.8041-3.60555 4.47525-6.5754 4.9257-2.10795.32175-4.24515-.1092-6.26535-.84045l-7.3827-2.8431-3.31305 5.4639 8.48055 3.04785c5.47755 1.989 12.1875 3.11025 17.3004-.55575 2.1489-1.5327 3.744-3.65235 4.88865-6.0138 2.41215-4.98615 3.5022-11.0253.4095-16.029-2.4726-3.9936-6.83085-6.42915-11.12475-7.98135l-6.72555-2.4297-1.1622-.36465zM4203.00795 61.38715L4183.6737 9.835l.01755-.02535h10.02105l.01755.0117 14.5743 39.1209-.00585.0195-5.2533 12.4254h-.03705z" fill="#ffffff"/></g><g><path d="M4323.88915 58.36855c-.00195.0039-.0039.0078-.0039.0117l.00585 7.6635c.00195.0039 0 .00975-.00195.0117-.00195.0039-.00585.00585-.00975.0078-.0039.00195-.0078.00195-.0117 0h-3.32475c-.0039 0-.0078-.00195-.0117-.00585-.0039-.0039-.00585-.0078-.00585-.01365v-7.6635c0-.00585-.00195-.00975-.0039-.01365-.0039-.00195-.0078-.0039-.01365-.00585h-7.5231c-.0039 0-.0078 0-.0117-.00195-.0039-.0039-.00585-.00585-.0078-.00975 0-.0039 0-.0078.00195-.0117l.8034-3.3306c0-.0039.0039-.00585.00585-.0078.0039-.0039.0078-.0039.0117-.0039h6.7197c.00585 0 .00975-.00195.01365-.00585.00195-.0039.0039-.0078.0039-.01365V49.2718c0-.00195-.00195-.00585 0-.00975 0-.0039.00195-.00585.0039-.00975.00195-.00195.00585-.0039.0078-.0039l3.32475-1.3026c.0039-.00195.0078-.00195.0117-.00195.0039.00195.0078.0039.00975.0078.00195.0039.0039.0078.00195.0117v7.0122c0 .00585.00195.00975.0039.0117.00195.0039.00585.00585.00975.0078.0039.00195.0078.00195.0117 0h7.53675c.0039 0 .0078 0 .0117.0039.00195.00195.00585.00585.00585.0078.00195.0039.00195.0078 0 .0117l-.5109 3.32475c0 .0039-.00195.00975-.00585.01365-.0039.00195-.0078.0039-.0117.0039h-7.03755c-.0039.00195-.0078.0039-.00975.0078M4302.06865 9.2851l-21.26475 56.86785 9.984-.02925 18.3066-48.711 7.06875 2.55255c2.42775.87555 4.82235 2.20935 6.2517 4.44405 1.12515 1.75695 1.94025 3.75375 1.2909 5.8617l-1.5756 4.9374c-.93015 2.8041-3.60555 4.47525-6.5754 4.9257-2.10795.32175-4.24515-.1092-6.26535-.84045l-7.3827-2.8431-3.31305 5.4639 8.48055 3.04785c5.47755 1.989 12.1875 3.11025 17.3004-.55575 2.1489-1.5327 3.744-3.65235 4.88865-6.0138 2.41215-4.98615 3.5022-11.0253.4095-16.029-2.4726-3.9936-6.83085-6.42915-11.12475-7.98135l-6.72555-2.4297-1.1622-.36465zM4279.00795 61.38715L4259.6737 9.835l.01755-.02535h10.02105l.01755.0117 14.5743 39.1209-.00585.0195-5.2533 12.4254h-.03705z" fill="#ffffff"/></g><g><path d="M4399.88915 58.36855c-.00195.0039-.0039.0078-.0039.0117l.00585 7.6635c.00195.0039 0 .00975-.00195.0117-.00195.0039-.00585.00585-.00975.0078-.0039.00195-.0078.00195-.0117 0h-3.32475c-.0039 0-.0078-.00195-.0117-.00585-.0039-.0039-.00585-.0078-.00585-.01365v-7.6635c0-.00585-.00195-.00975-.0039-.01365-.0039-.00195-.0078-.0039-.01365-.00585h-7.5231c-.0039 0-.0078 0-.0117-.00195-.0039-.0039-.00585-.00585-.0078-.00975 0-.0039 0-.0078.00195-.0117l.8034-3.3306c0-.0039.0039-.00585.00585-.0078.0039-.0039.0078-.0039.0117-.0039h6.7197c.00585 0 .00975-.00195.01365-.00585.00195-.0039.0039-.0078.0039-.01365V49.2718c0-.00195-.00195-.00585 0-.00975 0-.0039.00195-.00585.0039-.00975.00195-.00195.00585-.0039.0078-.0039l3.32475-1.3026c.0039-.00195.0078-.00195.0117-.00195.0039.00195.0078.0039.00975.0078.00195.0039.0039.0078.00195.0117v7.0122c0 .00585.00195.00975.0039.0117.00195.0039.00585.00585.00975.0078.0039.00195.0078.00195.0117 0h7.53675c.0039 0 .0078 0 .0117.0039.00195.00195.00585.00585.00585.0078.00195.0039.00195.0078 0 .0117l-.5109 3.32475c0 .0039-.00195.00975-.00585.01365-.0039.00195-.0078.0039-.0117.0039h-7.03755c-.0039.00195-.0078.0039-.00975.0078M4378.06865 9.2851l-21.26475 56.86785 9.984-.02925 18.3066-48.711 7.06875 2.55255c2.42775.87555 4.82235 2.20935 6.2517 4.44405 1.12515 1.75695 1.94025 3.75375 1.2909 5.8617l-1.5756 4.9374c-.93015 2.8041-3.60555 4.47525-6.5754 4.9257-2.10795.32175-4.24515-.1092-6.26535-.84045l-7.3827-2.8431-3.31305 5.4639 8.48055 3.04785c5.47755 1.989 12.1875 3.11025 17.3004-.55575 2.1489-1.5327 3.744-3.65235 4.88865-6.0138 2.41215-4.98615 3.5022-11.0253.4095-16.029-2.4726-3.9936-6.83085-6.42915-11.12475-7.98135l-6.72555-2.4297-1.1622-.36465zM4355.00795 61.38715L4335.6737 9.835l.01755-.02535h10.02105l.01755.0117 14.5743 39.1209-.00585.0195-5.2533 12.4254h-.03705z" fill="#ffffff"/></g><g><path d="M4475.88915 58.36855c-.00195.0039-.0039.0078-.0039.0117l.00585 7.6635c.00195.0039 0 .00975-.00195.0117-.00195.0039-.00585.00585-.00975.0078-.0039.00195-.0078.00195-.0117 0h-3.32475c-.0039 0-.0078-.00195-.0117-.00585-.0039-.0039-.00585-.0078-.00585-.01365v-7.6635c0-.00585-.00195-.00975-.0039-.01365-.0039-.00195-.0078-.0039-.01365-.00585h-7.5231c-.0039 0-.0078 0-.0117-.00195-.0039-.0039-.00585-.00585-.0078-.00975 0-.0039 0-.0078.00195-.0117l.8034-3.3306c0-.0039.0039-.00585.00585-.0078.0039-.0039.0078-.0039.0117-.0039h6.7197c.00585 0 .00975-.00195.01365-.00585.00195-.0039.0039-.0078.0039-.01365V49.2718c0-.00195-.00195-.00585 0-.00975 0-.0039.00195-.00585.0039-.00975.00195-.00195.00585-.0039.0078-.0039l3.32475-1.3026c.0039-.00195.0078-.00195.0117-.00195.0039.00195.0078.0039.00975.0078.00195.0039.0039.0078.00195.0117v7.0122c0 .00585.00195.00975.0039.0117.00195.0039.00585.00585.00975.0078.0039.00195.0078.00195.0117 0h7.53675c.0039 0 .0078 0 .0117.0039.00195.00195.00585.00585.00585.0078.00195.0039.00195.0078 0 .0117l-.5109 3.32475c0 .0039-.00195.00975-.00585.01365-.0039.00195-.0078.0039-.0117.0039h-7.03755c-.0039.00195-.0078.0039-.00975.0078M4454.06865 9.2851l-21.26475 56.86785 9.984-.02925 18.3066-48.711 7.06875 2.55255c2.42775.87555 4.82235 2.20935 6.2517 4.44405 1.12515 1.75695 1.94025 3.75375 1.2909 5.8617l-1.5756 4.9374c-.93015 2.8041-3.60555 4.47525-6.5754 4.9257-2.10795.32175-4.24515-.1092-6.26535-.84045l-7.3827-2.8431-3.31305 5.4639 8.48055 3.04785c5.47755 1.989 12.1875 3.11025 17.3004-.55575 2.1489-1.5327 3.744-3.65235 4.88865-6.0138 2.41215-4.98615 3.5022-11.0253.4095-16.029-2.4726-3.9936-6.83085-6.42915-11.12475-7.98135l-6.72555-2.4297-1.1622-.36465zM4431.00795 61.38715L4411.6737 9.835l.01755-.02535h10.02105l.01755.0117 14.5743 39.1209-.00585.0195-5.2533 12.4254h-.03705z" fill="#ffffff"/></g><g><path d="M4551.88915 58.36855c-.00195.0039-.0039.0078-.0039.0117l.00585 7.6635c.00195.0039 0 .00975-.00195.0117-.00195.0039-.00585.00585-.00975.0078-.0039.00195-.0078.00195-.0117 0h-3.32475c-.0039 0-.0078-.00195-.0117-.00585-.0039-.0039-.00585-.0078-.00585-.01365v-7.6635c0-.00585-.00195-.00975-.0039-.01365-.0039-.00195-.0078-.0039-.01365-.00585h-7.5231c-.0039 0-.0078 0-.0117-.00195-.0039-.0039-.00585-.00585-.0078-.00975 0-.0039 0-.0078.00195-.0117l.8034-3.3306c0-.0039.0039-.00585.00585-.0078.0039-.0039.0078-.0039.0117-.0039h6.7197c.00585 0 .00975-.00195.01365-.00585.00195-.0039.0039-.0078.0039-.01365V49.2718c0-.00195-.00195-.00585 0-.00975 0-.0039.00195-.00585.0039-.00975.00195-.00195.00585-.0039.0078-.0039l3.32475-1.3026c.0039-.00195.0078-.00195.0117-.00195.0039.00195.0078.0039.00975.0078.00195.0039.0039.0078.00195.0117v7.0122c0 .00585.00195.00975.0039.0117.00195.0039.00585.00585.00975.0078.0039.00195.0078.00195.0117 0h7.53675c.0039 0 .0078 0 .0117.0039.00195.00195.00585.00585.00585.0078.00195.0039.00195.0078 0 .0117l-.5109 3.32475c0 .0039-.00195.00975-.00585.01365-.0039.00195-.0078.0039-.0117.0039h-7.03755c-.0039.00195-.0078.0039-.00975.0078M4530.06865 9.2851l-21.26475 56.86785 9.984-.02925 18.3066-48.711 7.06875 2.55255c2.42775.87555 4.82235 2.20935 6.2517 4.44405 1.12515 1.75695 1.94025 3.75375 1.2909 5.8617l-1.5756 4.9374c-.93015 2.8041-3.60555 4.47525-6.5754 4.9257-2.10795.32175-4.24515-.1092-6.26535-.84045l-7.3827-2.8431-3.31305 5.4639 8.48055 3.04785c5.47755 1.989 12.1875 3.11025 17.3004-.55575 2.1489-1.5327 3.744-3.65235 4.88865-6.0138 2.41215-4.98615 3.5022-11.0253.4095-16.029-2.4726-3.9936-6.83085-6.42915-11.12475-7.98135l-6.72555-2.4297-1.1622-.36465zM4507.00795 61.38715L4487.6737 9.835l.01755-.02535h10.02105l.01755.0117 14.5743 39.1209-.00585.0195-5.2533 12.4254h-.03705z" fill="#ffffff"/></g><g><path d="M4627.88915 58.36855c-.00195.0039-.0039.0078-.0039.0117l.00585 7.6635c.00195.0039 0 .00975-.00195.0117-.00195.0039-.00585.00585-.00975.0078-.0039.00195-.0078.00195-.0117 0h-3.32475c-.0039 0-.0078-.00195-.0117-.00585-.0039-.0039-.00585-.0078-.00585-.01365v-7.6635c0-.00585-.00195-.00975-.0039-.01365-.0039-.00195-.0078-.0039-.01365-.00585h-7.5231c-.0039 0-.0078 0-.0117-.00195-.0039-.0039-.00585-.00585-.0078-.00975 0-.0039 0-.0078.00195-.0117l.8034-3.3306c0-.0039.0039-.00585.00585-.0078.0039-.0039.0078-.0039.0117-.0039h6.7197c.00585 0 .00975-.00195.01365-.00585.00195-.0039.0039-.0078.0039-.01365V49.2718c0-.00195-.00195-.00585 0-.00975 0-.0039.00195-.00585.0039-.00975.00195-.00195.00585-.0039.0078-.0039l3.32475-1.3026c.0039-.00195.0078-.00195.0117-.00195.0039.00195.0078.0039.00975.0078.00195.0039.0039.0078.00195.0117v7.0122c0 .00585.00195.00975.0039.0117.00195.0039.00585.00585.00975.0078.0039.00195.0078.00195.0117 0h7.53675c.0039 0 .0078 0 .0117.0039.00195.00195.00585.00585.00585.0078.00195.0039.00195.0078 0 .0117l-.5109 3.32475c0 .0039-.00195.00975-.00585.01365-.0039.00195-.0078.0039-.0117.0039h-7.03755c-.0039.00195-.0078.0039-.00975.0078" fill="#eff7f3"/><path d="M4606.06865 9.2851l-21.26475 56.86785 9.984-.02925 18.3066-48.711 7.06875 2.55255c2.42775.87555 4.82235 2.20935 6.2517 4.44405 1.12515 1.75695 1.94025 3.75375 1.2909 5.8617l-1.5756 4.9374c-.93015 2.8041-3.60555 4.47525-6.5754 4.9257-2.10795.32175-4.24515-.1092-6.26535-.84045l-7.3827-2.8431-3.31305 5.4639 8.48055 3.04785c5.47755 1.989 12.1875 3.11025 17.3004-.55575 2.1489-1.5327 3.744-3.65235 4.88865-6.0138 2.41215-4.98615 3.5022-11.0253.4095-16.029-2.4726-3.9936-6.83085-6.42915-11.12475-7.98135l-6.72555-2.4297-1.1622-.36465zM4583.00795 61.38715L4563.6737 9.835l.01755-.02535h10.02105l.01755.0117 14.5743 39.1209-.00585.0195-5.2533 12.4254h-.03705z" fill="#ffffff"/></g><g><path d="M4703.88915 58.36855c-.00195.0039-.0039.0078-.0039.0117l.00585 7.6635c.00195.0039 0 .00975-.00195.0117-.00195.0039-.00585.00585-.00975.0078-.0039.00195-.0078.00195-.0117 0h-3.32475c-.0039 0-.0078-.00195-.0117-.00585-.0039-.0039-.00585-.0078-.00585-.01365v-7.6635c0-.00585-.00195-.00975-.0039-.01365-.0039-.00195-.0078-.0039-.01365-.00585h-7.5231c-.0039 0-.0078 0-.0117-.00195-.0039-.0039-.00585-.00585-.0078-.00975 0-.0039 0-.0078.00195-.0117l.8034-3.3306c0-.0039.0039-.00585.00585-.0078.0039-.0039.0078-.0039.0117-.0039h6.7197c.00585 0 .00975-.00195.01365-.00585.00195-.0039.0039-.0078.0039-.01365V49.2718c0-.00195-.00195-.00585 0-.00975 0-.0039.00195-.00585.0039-.00975.00195-.00195.00585-.0039.0078-.0039l3.32475-1.3026c.0039-.00195.0078-.00195.0117-.00195.0039.00195.0078.0039.00975.0078.00195.0039.0039.0078.00195.0117v7.0122c0 .00585.00195.00975.0039.0117.00195.0039.00585.00585.00975.0078.0039.00195.0078.00195.0117 0h7.53675c.0039 0 .0078 0 .0117.0039.00195.00195.00585.00585.00585.0078.00195.0039.00195.0078 0 .0117l-.5109 3.32475c0 .0039-.00195.00975-.00585.01365-.0039.00195-.0078.0039-.0117.0039h-7.03755c-.0039.00195-.0078.0039-.00975.0078" fill="#deefe6"/><path d="M4682.06865 9.2851l-21.26475 56.86785 9.984-.02925 18.3066-48.711 7.06875 2.55255c2.42775.87555 4.82235 2.20935 6.2517 4.44405 1.12515 1.75695 1.94025 3.75375 1.2909 5.8617l-1.5756 4.9374c-.93015 2.8041-3.60555 4.47525-6.5754 4.9257-2.10795.32175-4.24515-.1092-6.26535-.84045l-7.3827-2.8431-3.31305 5.4639 8.48055 3.04785c5.47755 1.989 12.1875 3.11025 17.3004-.55575 2.1489-1.5327 3.744-3.65235 4.88865-6.0138 2.41215-4.98615 3.5022-11.0253.4095-16.029-2.4726-3.9936-6.83085-6.42915-11.12475-7.98135l-6.72555-2.4297-1.1622-.36465zM4659.00795 61.38715L4639.6737 9.835l.01755-.02535h10.02105l.01755.0117 14.5743 39.1209-.00585.0195-5.2533 12.4254h-.03705z" fill="#ffffff"/></g><g><path d="M4779.88915 58.36855c-.00195.0039-.0039.0078-.0039.0117l.00585 7.6635c.00195.0039 0 .00975-.00195.0117-.00195.0039-.00585.00585-.00975.0078-.0039.00195-.0078.00195-.0117 0h-3.32475c-.0039 0-.0078-.00195-.0117-.00585-.0039-.0039-.00585-.0078-.00585-.01365v-7.6635c0-.00585-.00195-.00975-.0039-.01365-.0039-.00195-.0078-.0039-.01365-.00585h-7.5231c-.0039 0-.0078 0-.0117-.00195-.0039-.0039-.00585-.00585-.0078-.00975 0-.0039 0-.0078.00195-.0117l.8034-3.3306c0-.0039.0039-.00585.00585-.0078.0039-.0039.0078-.0039.0117-.0039h6.7197c.00585 0 .00975-.00195.01365-.00585.00195-.0039.0039-.0078.0039-.01365V49.2718c0-.00195-.00195-.00585 0-.00975 0-.0039.00195-.00585.0039-.00975.00195-.00195.00585-.0039.0078-.0039l3.32475-1.3026c.0039-.00195.0078-.00195.0117-.00195.0039.00195.0078.0039.00975.0078.00195.0039.0039.0078.00195.0117v7.0122c0 .00585.00195.00975.0039.0117.00195.0039.00585.00585.00975.0078.0039.00195.0078.00195.0117 0h7.53675c.0039 0 .0078 0 .0117.0039.00195.00195.00585.00585.00585.0078.00195.0039.00195.0078 0 .0117l-.5109 3.32475c0 .0039-.00195.00975-.00585.01365-.0039.00195-.0078.0039-.0117.0039h-7.03755c-.0039.00195-.0078.0039-.00975.0078" fill="#cde6d9"/><path d="M4758.06865 9.2851l-21.26475 56.86785 9.984-.02925 18.3066-48.711 7.06875 2.55255c2.42775.87555 4.82235 2.20935 6.2517 4.44405 1.12515 1.75695 1.94025 3.75375 1.2909 5.8617l-1.5756 4.9374c-.93015 2.8041-3.60555 4.47525-6.5754 4.9257-2.10795.32175-4.24515-.1092-6.26535-.84045l-7.3827-2.8431-3.31305 5.4639 8.48055 3.04785c5.47755 1.989 12.1875 3.11025 17.3004-.55575 2.1489-1.5327 3.744-3.65235 4.88865-6.0138 2.41215-4.98615 3.5022-11.0253.4095-16.029-2.4726-3.9936-6.83085-6.42915-11.12475-7.98135l-6.72555-2.4297-1.1622-.36465zM4735.00795 61.38715L4715.6737 9.835l.01755-.02535h10.02105l.01755.0117 14.5743 39.1209-.00585.0195-5.2533 12.4254h-.03705z" fill="#ffffff"/></g><g><path d="M4855.88915 58.36855c-.00195.0039-.0039.0078-.0039.0117l.00585 7.6635c.00195.0039 0 .00975-.00195.0117-.00195.0039-.00585.00585-.00975.0078-.0039.00195-.0078.00195-.0117 0h-3.32475c-.0039 0-.0078-.00195-.0117-.00585-.0039-.0039-.00585-.0078-.00585-.01365v-7.6635c0-.00585-.00195-.00975-.0039-.01365-.0039-.00195-.0078-.0039-.01365-.00585h-7.5231c-.0039 0-.0078 0-.0117-.00195-.0039-.0039-.00585-.00585-.0078-.00975 0-.0039 0-.0078.00195-.0117l.8034-3.3306c0-.0039.0039-.00585.00585-.0078.0039-.0039.0078-.0039.0117-.0039h6.7197c.00585 0 .00975-.00195.01365-.00585.00195-.0039.0039-.0078.0039-.01365V49.2718c0-.00195-.00195-.00585 0-.00975 0-.0039.00195-.00585.0039-.00975.00195-.00195.00585-.0039.0078-.0039l3.32475-1.3026c.0039-.00195.0078-.00195.0117-.00195.0039.00195.0078.0039.00975.0078.00195.0039.0039.0078.00195.0117v7.0122c0 .00585.00195.00975.0039.0117.00195.0039.00585.00585.00975.0078.0039.00195.0078.00195.0117 0h7.53675c.0039 0 .0078 0 .0117.0039.00195.00195.00585.00585.00585.0078.00195.0039.00195.0078 0 .0117l-.5109 3.32475c0 .0039-.00195.00975-.00585.01365-.0039.00195-.0078.0039-.0117.0039h-7.03755c-.0039.00195-.0078.0039-.00975.0078" fill="#bbddcc"/><path d="M4834.06865 9.2851l-21.26475 56.86785 9.984-.02925 18.3066-48.711 7.06875 2.55255c2.42775.87555 4.82235 2.20935 6.2517 4.44405 1.12515 1.75695 1.94025 3.75375 1.2909 5.8617l-1.5756 4.9374c-.93015 2.8041-3.60555 4.47525-6.5754 4.9257-2.10795.32175-4.24515-.1092-6.26535-.84045l-7.3827-2.8431-3.31305 5.4639 8.48055 3.04785c5.47755 1.989 12.1875 3.11025 17.3004-.55575 2.1489-1.5327 3.744-3.65235 4.88865-6.0138 2.41215-4.98615 3.5022-11.0253.4095-16.029-2.4726-3.9936-6.83085-6.42915-11.12475-7.98135l-6.72555-2.4297-1.1622-.36465zM4811.00795 61.38715L4791.6737 9.835l.01755-.02535h10.02105l.01755.0117 14.5743 39.1209-.00585.0195-5.2533 12.4254h-.03705z" fill="#ffffff"/></g><g><path d="M4931.88915 58.36855c-.00195.0039-.0039.0078-.0039.0117l.00585 7.6635c.00195.0039 0 .00975-.00195.0117-.00195.0039-.00585.00585-.00975.0078-.0039.00195-.0078.00195-.0117 0h-3.32475c-.0039 0-.0078-.00195-.0117-.00585-.0039-.0039-.00585-.0078-.00585-.01365v-7.6635c0-.00585-.00195-.00975-.0039-.01365-.0039-.00195-.0078-.0039-.01365-.00585h-7.5231c-.0039 0-.0078 0-.0117-.00195-.0039-.0039-.00585-.00585-.0078-.00975 0-.0039 0-.0078.00195-.0117l.8034-3.3306c0-.0039.0039-.00585.00585-.0078.0039-.0039.0078-.0039.0117-.0039h6.7197c.00585 0 .00975-.00195.01365-.00585.00195-.0039.0039-.0078.0039-.01365V49.2718c0-.00195-.00195-.00585 0-.00975 0-.0039.00195-.00585.0039-.00975.00195-.00195.00585-.0039.0078-.0039l3.32475-1.3026c.0039-.00195.0078-.00195.0117-.00195.0039.00195.0078.0039.00975.0078.00195.0039.0039.0078.00195.0117v7.0122c0 .00585.00195.00975.0039.0117.00195.0039.00585.00585.00975.0078.0039.00195.0078.00195.0117 0h7.53675c.0039 0 .0078 0 .0117.0039.00195.00195.00585.00585.00585.0078.00195.0039.00195.0078 0 .0117l-.5109 3.32475c0 .0039-.00195.00975-.00585.01365-.0039.00195-.0078.0039-.0117.0039h-7.03755c-.0039.00195-.0078.0039-.00975.0078" fill="#aad4bf"/><path d="M4910.06865 9.2851l-21.26475 56.86785 9.984-.02925 18.3066-48.711 7.06875 2.55255c2.42775.87555 4.82235 2.20935 6.2517 4.44405 1.12515 1.75695 1.94025 3.75375 1.2909 5.8617l-1.5756 4.9374c-.93015 2.8041-3.60555 4.47525-6.5754 4.9257-2.10795.32175-4.24515-.1092-6.26535-.84045l-7.3827-2.8431-3.31305 5.4639 8.48055 3.04785c5.47755 1.989 12.1875 3.11025 17.3004-.55575 2.1489-1.5327 3.744-3.65235 4.88865-6.0138 2.41215-4.98615 3.5022-11.0253.4095-16.029-2.4726-3.9936-6.83085-6.42915-11.12475-7.98135l-6.72555-2.4297-1.1622-.36465zM4887.00795 61.38715L4867.6737 9.835l.01755-.02535h10.02105l.01755.0117 14.5743 39.1209-.00585.0195-5.2533 12.4254h-.03705z" fill="#ffffff"/></g><g><path d="M5007.88915 58.36855c-.00195.0039-.0039.0078-.0039.0117l.00585 7.6635c.00195.0039 0 .00975-.00195.0117-.00195.0039-.00585.00585-.00975.0078-.0039.00195-.0078.00195-.0117 0h-3.32475c-.0039 0-.0078-.00195-.0117-.00585-.0039-.0039-.00585-.0078-.00585-.01365v-7.6635c0-.00585-.00195-.00975-.0039-.01365-.0039-.00195-.0078-.0039-.01365-.00585h-7.5231c-.0039 0-.0078 0-.0117-.00195-.0039-.0039-.00585-.00585-.0078-.00975 0-.0039 0-.0078.00195-.0117l.8034-3.3306c0-.0039.0039-.00585.00585-.0078.0039-.0039.0078-.0039.0117-.0039h6.7197c.00585 0 .00975-.00195.01365-.00585.00195-.0039.0039-.0078.0039-.01365V49.2718c0-.00195-.00195-.00585 0-.00975 0-.0039.00195-.00585.0039-.00975.00195-.00195.00585-.0039.0078-.0039l3.32475-1.3026c.0039-.00195.0078-.00195.0117-.00195.0039.00195.0078.0039.00975.0078.00195.0039.0039.0078.00195.0117v7.0122c0 .00585.00195.00975.0039.0117.00195.0039.00585.00585.00975.0078.0039.00195.0078.00195.0117 0h7.53675c.0039 0 .0078 0 .0117.0039.00195.00195.00585.00585.00585.0078.00195.0039.00195.0078 0 .0117l-.5109 3.32475c0 .0039-.00195.00975-.00585.01365-.0039.00195-.0078.0039-.0117.0039h-7.03755c-.0039.00195-.0078.0039-.00975.0078" fill="#99ccb2"/><path d="M4986.06865 9.2851l-21.26475 56.86785 9.984-.02925 18.3066-48.711 7.06875 2.55255c2.42775.87555 4.82235 2.20935 6.2517 4.44405 1.12515 1.75695 1.94025 3.75375 1.2909 5.8617l-1.5756 4.9374c-.93015 2.8041-3.60555 4.47525-6.5754 4.9257-2.10795.32175-4.24515-.1092-6.26535-.84045l-7.3827-2.8431-3.31305 5.4639 8.48055 3.04785c5.47755 1.989 12.1875 3.11025 17.3004-.55575 2.1489-1.5327 3.744-3.65235 4.88865-6.0138 2.41215-4.98615 3.5022-11.0253.4095-16.029-2.4726-3.9936-6.83085-6.42915-11.12475-7.98135l-6.72555-2.4297-1.1622-.36465zM4963.00795 61.38715L4943.6737 9.835l.01755-.02535h10.02105l.01755.0117 14.5743 39.1209-.00585.0195-5.2533 12.4254h-.03705z" fill="#ffffff"/></g><g><path d="M5083.88915 58.36855c-.00195.0039-.0039.0078-.0039.0117l.00585 7.6635c.00195.0039 0 .00975-.00195.0117-.00195.0039-.00585.00585-.00975.0078-.0039.00195-.0078.00195-.0117 0h-3.32475c-.0039 0-.0078-.00195-.0117-.00585-.0039-.0039-.00585-.0078-.00585-.01365v-7.6635c0-.00585-.00195-.00975-.0039-.01365-.0039-.00195-.0078-.0039-.01365-.00585h-7.5231c-.0039 0-.0078 0-.0117-.00195-.0039-.0039-.00585-.00585-.0078-.00975 0-.0039 0-.0078.00195-.0117l.8034-3.3306c0-.0039.0039-.00585.00585-.0078.0039-.0039.0078-.0039.0117-.0039h6.7197c.00585 0 .00975-.00195.01365-.00585.00195-.0039.0039-.0078.0039-.01365V49.2718c0-.00195-.00195-.00585 0-.00975 0-.0039.00195-.00585.0039-.00975.00195-.00195.00585-.0039.0078-.0039l3.32475-1.3026c.0039-.00195.0078-.00195.0117-.00195.0039.00195.0078.0039.00975.0078.00195.0039.0039.0078.00195.0117v7.0122c0 .00585.00195.00975.0039.0117.00195.0039.00585.00585.00975.0078.0039.00195.0078.00195.0117 0h7.53675c.0039 0 .0078 0 .0117.0039.00195.00195.00585.00585.00585.0078.00195.0039.00195.0078 0 .0117l-.5109 3.32475c0 .0039-.00195.00975-.00585.01365-.0039.00195-.0078.0039-.0117.0039h-7.03755c-.0039.00195-.0078.0039-.00975.0078" fill="#87c3a5"/><path d="M5062.06865 9.2851l-21.26475 56.86785 9.984-.02925 18.3066-48.711 7.06875 2.55255c2.42775.87555 4.82235 2.20935 6.2517 4.44405 1.12515 1.75695 1.94025 3.75375 1.2909 5.8617l-1.5756 4.9374c-.93015 2.8041-3.60555 4.47525-6.5754 4.9257-2.10795.32175-4.24515-.1092-6.26535-.84045l-7.3827-2.8431-3.31305 5.4639 8.48055 3.04785c5.47755 1.989 12.1875 3.11025 17.3004-.55575 2.1489-1.5327 3.744-3.65235 4.88865-6.0138 2.41215-4.98615 3.5022-11.0253.4095-16.029-2.4726-3.9936-6.83085-6.42915-11.12475-7.98135l-6.72555-2.4297-1.1622-.36465zM5039.00795 61.38715L5019.6737 9.835l.01755-.02535h10.02105l.01755.0117 14.5743 39.1209-.00585.0195-5.2533 12.4254h-.03705z" fill="#ffffff"/></g><g><path d="M5159.88915 58.36855c-.00195.0039-.0039.0078-.0039.0117l.00585 7.6635c.00195.0039 0 .00975-.00195.0117-.00195.0039-.00585.00585-.00975.0078-.0039.00195-.0078.00195-.0117 0h-3.32475c-.0039 0-.0078-.00195-.0117-.00585-.0039-.0039-.00585-.0078-.00585-.01365v-7.6635c0-.00585-.00195-.00975-.0039-.01365-.0039-.00195-.0078-.0039-.01365-.00585h-7.5231c-.0039 0-.0078 0-.0117-.00195-.0039-.0039-.00585-.00585-.0078-.00975 0-.0039 0-.0078.00195-.0117l.8034-3.3306c0-.0039.0039-.00585.00585-.0078.0039-.0039.0078-.0039.0117-.0039h6.7197c.00585 0 .00975-.00195.01365-.00585.00195-.0039.0039-.0078.0039-.01365V49.2718c0-.00195-.00195-.00585 0-.00975 0-.0039.00195-.00585.0039-.00975.00195-.00195.00585-.0039.0078-.0039l3.32475-1.3026c.0039-.00195.0078-.00195.0117-.00195.0039.00195.0078.0039.00975.0078.00195.0039.0039.0078.00195.0117v7.0122c0 .00585.00195.00975.0039.0117.00195.0039.00585.00585.00975.0078.0039.00195.0078.00195.0117 0h7.53675c.0039 0 .0078 0 .0117.0039.00195.00195.00585.00585.00585.0078.00195.0039.00195.0078 0 .0117l-.5109 3.32475c0 .0039-.00195.00975-.00585.01365-.0039.00195-.0078.0039-.0117.0039h-7.03755c-.0039.00195-.0078.0039-.00975.0078" fill="#76ba98"/><path d="M5138.06865 9.2851l-21.26475 56.86785 9.984-.02925 18.3066-48.711 7.06875 2.55255c2.42775.87555 4.82235 2.20935 6.2517 4.44405 1.12515 1.75695 1.94025 3.75375 1.2909 5.8617l-1.5756 4.9374c-.93015 2.8041-3.60555 4.47525-6.5754 4.9257-2.10795.32175-4.24515-.1092-6.26535-.84045l-7.3827-2.8431-3.31305 5.4639 8.48055 3.04785c5.47755 1.989 12.1875 3.11025 17.3004-.55575 2.1489-1.5327 3.744-3.65235 4.88865-6.0138 2.41215-4.98615 3.5022-11.0253.4095-16.029-2.4726-3.9936-6.83085-6.42915-11.12475-7.98135l-6.72555-2.4297-1.1622-.36465zM5115.00795 61.38715L5095.6737 9.835l.01755-.02535h10.02105l.01755.0117 14.5743 39.1209-.00585.0195-5.2533 12.4254h-.03705z" fill="#ffffff"/></g><g><path d="M5235.88915 58.36855c-.00195.0039-.0039.0078-.0039.0117l.00585 7.6635c.00195.0039 0 .00975-.00195.0117-.00195.0039-.00585.00585-.00975.0078-.0039.00195-.0078.00195-.0117 0h-3.32475c-.0039 0-.0078-.00195-.0117-.00585-.0039-.0039-.00585-.0078-.00585-.01365v-7.6635c0-.00585-.00195-.00975-.0039-.01365-.0039-.00195-.0078-.0039-.01365-.00585h-7.5231c-.0039 0-.0078 0-.0117-.00195-.0039-.0039-.00585-.00585-.0078-.00975 0-.0039 0-.0078.00195-.0117l.8034-3.3306c0-.0039.0039-.00585.00585-.0078.0039-.0039.0078-.0039.0117-.0039h6.7197c.00585 0 .00975-.00195.01365-.00585.00195-.0039.0039-.0078.0039-.01365V49.2718c0-.00195-.00195-.00585 0-.00975 0-.0039.00195-.00585.0039-.00975.00195-.00195.00585-.0039.0078-.0039l3.32475-1.3026c.0039-.00195.0078-.00195.0117-.00195.0039.00195.0078.0039.00975.0078.00195.0039.0039.0078.00195.0117v7.0122c0 .00585.00195.00975.0039.0117.00195.0039.00585.00585.00975.0078.0039.00195.0078.00195.0117 0h7.53675c.0039 0 .0078 0 .0117.0039.00195.00195.00585.00585.00585.0078.00195.0039.00195.0078 0 .0117l-.5109 3.32475c0 .0039-.00195.00975-.00585.01365-.0039.00195-.0078.0039-.0117.0039h-7.03755c-.0039.00195-.0078.0039-.00975.0078" fill="#64b28a"/><path d="M5214.06865 9.2851l-21.26475 56.86785 9.984-.02925 18.3066-48.711 7.06875 2.55255c2.42775.87555 4.82235 2.20935 6.2517 4.44405 1.12515 1.75695 1.94025 3.75375 1.2909 5.8617l-1.5756 4.9374c-.93015 2.8041-3.60555 4.47525-6.5754 4.9257-2.10795.32175-4.24515-.1092-6.26535-.84045l-7.3827-2.8431-3.31305 5.4639 8.48055 3.04785c5.47755 1.989 12.1875 3.11025 17.3004-.55575 2.1489-1.5327 3.744-3.65235 4.88865-6.0138 2.41215-4.98615 3.5022-11.0253.4095-16.029-2.4726-3.9936-6.83085-6.42915-11.12475-7.98135l-6.72555-2.4297-1.1622-.36465zM5191.00795 61.38715L5171.6737 9.835l.01755-.02535h10.02105l.01755.0117 14.5743 39.1209-.00585.0195-5.2533 12.4254h-.03705z" fill="#ffffff"/></g><g><path d="M5311.88915 58.36855c-.00195.0039-.0039.0078-.0039.0117l.00585 7.6635c.00195.0039 0 .00975-.00195.0117-.00195.0039-.00585.00585-.00975.0078-.0039.00195-.0078.00195-.0117 0h-3.32475c-.0039 0-.0078-.00195-.0117-.00585-.0039-.0039-.00585-.0078-.00585-.01365v-7.6635c0-.00585-.00195-.00975-.0039-.01365-.0039-.00195-.0078-.0039-.01365-.00585h-7.5231c-.0039 0-.0078 0-.0117-.00195-.0039-.0039-.00585-.00585-.0078-.00975 0-.0039 0-.0078.00195-.0117l.8034-3.3306c0-.0039.0039-.00585.00585-.0078.0039-.0039.0078-.0039.0117-.0039h6.7197c.00585 0 .00975-.00195.01365-.00585.00195-.0039.0039-.0078.0039-.01365V49.2718c0-.00195-.00195-.00585 0-.00975 0-.0039.00195-.00585.0039-.00975.00195-.00195.00585-.0039.0078-.0039l3.32475-1.3026c.0039-.00195.0078-.00195.0117-.00195.0039.00195.0078.0039.00975.0078.00195.0039.0039.0078.00195.0117v7.0122c0 .00585.00195.00975.0039.0117.00195.0039.00585.00585.00975.0078.0039.00195.0078.00195.0117 0h7.53675c.0039 0 .0078 0 .0117.0039.00195.00195.00585.00585.00585.0078.00195.0039.00195.0078 0 .0117l-.5109 3.32475c0 .0039-.00195.00975-.00585.01365-.0039.00195-.0078.0039-.0117.0039h-7.03755c-.0039.00195-.0078.0039-.00975.0078" fill="#53a97d"/><path d="M5290.06865 9.2851l-21.26475 56.86785 9.984-.02925 18.3066-48.711 7.06875 2.55255c2.42775.87555 4.82235 2.20935 6.2517 4.44405 1.12515 1.75695 1.94025 3.75375 1.2909 5.8617l-1.5756 4.9374c-.93015 2.8041-3.60555 4.47525-6.5754 4.9257-2.10795.32175-4.24515-.1092-6.26535-.84045l-7.3827-2.8431-3.31305 5.4639 8.48055 3.04785c5.47755 1.989 12.1875 3.11025 17.3004-.55575 2.1489-1.5327 3.744-3.65235 4.88865-6.0138 2.41215-4.98615 3.5022-11.0253.4095-16.029-2.4726-3.9936-6.83085-6.42915-11.12475-7.98135l-6.72555-2.4297-1.1622-.36465zM5267.00795 61.38715L5247.6737 9.835l.01755-.02535h10.02105l.01755.0117 14.5743 39.1209-.00585.0195-5.2533 12.4254h-.03705z" fill="#ffffff"/></g><g><path d="M5387.88915 58.36855c-.00195.0039-.0039.0078-.0039.0117l.00585 7.6635c.00195.0039 0 .00975-.00195.0117-.00195.0039-.00585.00585-.00975.0078-.0039.00195-.0078.00195-.0117 0h-3.32475c-.0039 0-.0078-.00195-.0117-.00585-.0039-.0039-.00585-.0078-.00585-.01365v-7.6635c0-.00585-.00195-.00975-.0039-.01365-.0039-.00195-.0078-.0039-.01365-.00585h-7.5231c-.0039 0-.0078 0-.0117-.00195-.0039-.0039-.00585-.00585-.0078-.00975 0-.0039 0-.0078.00195-.0117l.8034-3.3306c0-.0039.0039-.00585.00585-.0078.0039-.0039.0078-.0039.0117-.0039h6.7197c.00585 0 .00975-.00195.01365-.00585.00195-.0039.0039-.0078.0039-.01365V49.2718c0-.00195-.00195-.00585 0-.00975 0-.0039.00195-.00585.0039-.00975.00195-.00195.00585-.0039.0078-.0039l3.32475-1.3026c.0039-.00195.0078-.00195.0117-.00195.0039.00195.0078.0039.00975.0078.00195.0039.0039.0078.00195.0117v7.0122c0 .00585.00195.00975.0039.0117.00195.0039.00585.00585.00975.0078.0039.00195.0078.00195.0117 0h7.53675c.0039 0 .0078 0 .0117.0039.00195.00195.00585.00585.00585.0078.00195.0039.00195.0078 0 .0117l-.5109 3.32475c0 .0039-.00195.00975-.00585.01365-.0039.00195-.0078.0039-.0117.0039h-7.03755c-.0039.00195-.0078.0039-.00975.0078" fill="#42a070"/><path d="M5366.06865 9.2851l-21.26475 56.86785 9.984-.02925 18.3066-48.711 7.06875 2.55255c2.42775.87555 4.82235 2.20935 6.2517 4.44405 1.12515 1.75695 1.94025 3.75375 1.2909 5.8617l-1.5756 4.9374c-.93015 2.8041-3.60555 4.47525-6.5754 4.9257-2.10795.32175-4.24515-.1092-6.26535-.84045l-7.3827-2.8431-3.31305 5.4639 8.48055 3.04785c5.47755 1.989 12.1875 3.11025 17.3004-.55575 2.1489-1.5327 3.744-3.65235 4.88865-6.0138 2.41215-4.98615 3.5022-11.0253.4095-16.029-2.4726-3.9936-6.83085-6.42915-11.12475-7.98135l-6.72555-2.4297-1.1622-.36465zM5343.00795 61.38715L5323.6737 9.835l.01755-.02535h10.02105l.01755.0117 14.5743 39.1209-.00585.0195-5.2533 12.4254h-.03705z" fill="#ffffff"/></g><g><path d="M5463.88915 58.36855c-.00195.0039-.0039.0078-.0039.0117l.00585 7.6635c.00195.0039 0 .00975-.00195.0117-.00195.0039-.00585.00585-.00975.0078-.0039.00195-.0078.00195-.0117 0h-3.32475c-.0039 0-.0078-.00195-.0117-.00585-.0039-.0039-.00585-.0078-.00585-.01365v-7.6635c0-.00585-.00195-.00975-.0039-.01365-.0039-.00195-.0078-.0039-.01365-.00585h-7.5231c-.0039 0-.0078 0-.0117-.00195-.0039-.0039-.00585-.00585-.0078-.00975 0-.0039 0-.0078.00195-.0117l.8034-3.3306c0-.0039.0039-.00585.00585-.0078.0039-.0039.0078-.0039.0117-.0039h6.7197c.00585 0 .00975-.00195.01365-.00585.00195-.0039.0039-.0078.0039-.01365V49.2718c0-.00195-.00195-.00585 0-.00975 0-.0039.00195-.00585.0039-.00975.00195-.00195.00585-.0039.0078-.0039l3.32475-1.3026c.0039-.00195.0078-.00195.0117-.00195.0039.00195.0078.0039.00975.0078.00195.0039.0039.0078.00195.0117v7.0122c0 .00585.00195.00975.0039.0117.00195.0039.00585.00585.00975.0078.0039.00195.0078.00195.0117 0h7.53675c.0039 0 .0078 0 .0117.0039.00195.00195.00585.00585.00585.0078.00195.0039.00195.0078 0 .0117l-.5109 3.32475c0 .0039-.00195.00975-.00585.01365-.0039.00195-.0078.0039-.0117.0039h-7.03755c-.0039.00195-.0078.0039-.00975.0078" fill="#309863"/><path d="M5442.06865 9.2851l-21.26475 56.86785 9.984-.02925 18.3066-48.711 7.06875 2.55255c2.42775.87555 4.82235 2.20935 6.2517 4.44405 1.12515 1.75695 1.94025 3.75375 1.2909 5.8617l-1.5756 4.9374c-.93015 2.8041-3.60555 4.47525-6.5754 4.9257-2.10795.32175-4.24515-.1092-6.26535-.84045l-7.3827-2.8431-3.31305 5.4639 8.48055 3.04785c5.47755 1.989 12.1875 3.11025 17.3004-.55575 2.1489-1.5327 3.744-3.65235 4.88865-6.0138 2.41215-4.98615 3.5022-11.0253.4095-16.029-2.4726-3.9936-6.83085-6.42915-11.12475-7.98135l-6.72555-2.4297-1.1622-.36465zM5419.00795 61.38715L5399.6737 9.835l.01755-.02535h10.02105l.01755.0117 14.5743 39.1209-.00585.0195-5.2533 12.4254h-.03705z" fill="#ffffff"/></g><g><path d="M5539.88915 58.36855c-.00195.0039-.0039.0078-.0039.0117l.00585 7.6635c.00195.0039 0 .00975-.00195.0117-.00195.0039-.00585.00585-.00975.0078-.0039.00195-.0078.00195-.0117 0h-3.32475c-.0039 0-.0078-.00195-.0117-.00585-.0039-.0039-.00585-.0078-.00585-.01365v-7.6635c0-.00585-.00195-.00975-.0039-.01365-.0039-.00195-.0078-.0039-.01365-.00585h-7.5231c-.0039 0-.0078 0-.0117-.00195-.0039-.0039-.00585-.00585-.0078-.00975 0-.0039 0-.0078.00195-.0117l.8034-3.3306c0-.0039.0039-.00585.00585-.0078.0039-.0039.0078-.0039.0117-.0039h6.7197c.00585 0 .00975-.00195.01365-.00585.00195-.0039.0039-.0078.0039-.01365V49.2718c0-.00195-.00195-.00585 0-.00975 0-.0039.00195-.00585.0039-.00975.00195-.00195.00585-.0039.0078-.0039l3.32475-1.3026c.0039-.00195.0078-.00195.0117-.00195.0039.00195.0078.0039.00975.0078.00195.0039.0039.0078.00195.0117v7.0122c0 .00585.00195.00975.0039.0117.00195.0039.00585.00585.00975.0078.0039.00195.0078.00195.0117 0h7.53675c.0039 0 .0078 0 .0117.0039.00195.00195.00585.00585.00585.0078.00195.0039.00195.0078 0 .0117l-.5109 3.32475c0 .0039-.00195.00975-.00585.01365-.0039.00195-.0078.0039-.0117.0039h-7.03755c-.0039.00195-.0078.0039-.00975.0078" fill="#1f8f56"/><path d="M5518.06865 9.2851l-21.26475 56.86785 9.984-.02925 18.3066-48.711 7.06875 2.55255c2.42775.87555 4.82235 2.20935 6.2517 4.44405 1.12515 1.75695 1.94025 3.75375 1.2909 5.8617l-1.5756 4.9374c-.93015 2.8041-3.60555 4.47525-6.5754 4.9257-2.10795.32175-4.24515-.1092-6.26535-.84045l-7.3827-2.8431-3.31305 5.4639 8.48055 3.04785c5.47755 1.989 12.1875 3.11025 17.3004-.55575 2.1489-1.5327 3.744-3.65235 4.88865-6.0138 2.41215-4.98615 3.5022-11.0253.4095-16.029-2.4726-3.9936-6.83085-6.42915-11.12475-7.98135l-6.72555-2.4297-1.1622-.36465zM5495.00795 61.38715L5475.6737 9.835l.01755-.02535h10.02105l.01755.0117 14.5743 39.1209-.00585.0195-5.2533 12.4254h-.03705z" fill="#ffffff"/></g></svg>