<svg xmlns="http://www.w3.org/2000/svg" viewBox="0 0 5548 76" width="5548" height="76"><path d="M51.739 47.989zM30.502 52.681l5.12-.015zM19.675 23.787l-.009.013.009-.013h5.139l.009.006-.006-.015-.003.009h-5.139zM127.739 47.989zM106.502 52.681l5.12-.015zM95.675 23.787l-.009.013.009-.013h5.139l.009.006-.006-.015-.003.009h-5.139zM203.739 47.989zM182.502 52.681l5.12-.015zM171.675 23.787l-.009.013.009-.013h5.139l.009.006-.006-.015-.003.009h-5.139zM279.739 47.989zM258.502 52.681l5.12-.015zM247.675 23.787l-.009.013.009-.013h5.139l.009.006-.006-.015-.003.009h-5.139zM355.739 47.989zM334.502 52.681l5.12-.015zM323.675 23.787l-.009.013.009-.013h5.139l.009.006-.006-.015-.003.009h-5.139zM431.739 47.989zM410.502 52.681l5.12-.015zM399.675 23.787l-.009.013.009-.013h5.139l.009.006-.006-.015-.003.009h-5.139zM507.739 47.989zM486.502 52.681l5.12-.015zM475.675 23.787l-.009.013.009-.013h5.139l.009.006-.006-.015-.003.009h-5.139zM583.739 47.989zM562.502 52.681l5.12-.015zM551.675 23.787l-.009.013.009-.013h5.139l.009.006-.006-.015-.003.009h-5.139zM659.739 47.989zM638.502 52.681l5.12-.015zM627.675 23.787l-.009.013.009-.013h5.139l.009.006-.006-.015-.003.009h-5.139zM735.739 47.989zM714.502 52.681l5.12-.015zM703.675 23.787l-.009.013.009-.013h5.139l.009.006-.006-.015-.003.009h-5.139zM811.739 47.989zM790.502 52.681l5.12-.015zM779.675 23.787l-.009.013.009-.013h5.139l.009.006-.006-.015-.003.009h-5.139zM887.739 47.989zM866.502 52.681l5.12-.015zM855.675 23.787l-.009.013.009-.013h5.139l.009.006-.006-.015-.003.009h-5.139zM963.739 47.989zM932.502 52.681l5.12-.015zM929.675 23.787l-.009.013.009-.013h5.139l.009.006-.006-.015-.003.009h-5.139zM1039.739 47.989zM1009.259776 52.356l-.121.325 5.12-.015.104-.278zM1005.835355 23.874l-.042-.074.009-.013h5.139l.009.006.019.051-.003.009-5.112.021h-.019zM1115.739 47.989zM1086.239605 51.383l-.485 1.298 5.12-.015.418-1.112zM1082.056521 24.136l-.14-.336.009-.013h5.139l.009.006.093.25-.003.009-5.088.084h-.019zM1191.739 47.989zM1163.441488 49.76l-1.092 2.921 5.12-.015.94-2.502zM1158.336498 24.567l-.301-.767.009-.013h5.139l.009.006.215.577-.003.009-5.049.188h-.019zM1267.739 47.989zM1240.864424 47.489l-1.941 5.192 5.12-.015 1.671-4.447zM1234.675285 25.164l-.525-1.364.009-.013h5.139l.009.006.383 1.03-.003.009-4.993.332h-.019zM1343.739 47.989zM1318.510414 44.568l-3.034 8.113 5.12-.015 2.612-6.949zM1311.067883 25.916l-.807-2.116.009-.013h5.139l.009.006.596 1.601-.003.009-4.924.513h-.019zM1419.739 47.989zM1396.376457 40.999l-4.368 11.682 5.12-.015 3.761-10.006zM1387.510291 26.816l-1.143-3.016.009-.013h5.139l.009.006.851 2.284-.003.009-4.843.73h-.019zM1495.739 47.989zM1474.465553 36.78l-5.946 15.901 5.12-.015 5.119-13.62zM1464.00051 27.851l-1.531-4.051.009-.013h5.139l.009.006 1.143 3.07-.003.009-4.747.979h-.019zM1571.739 47.989zM1552.775703 31.913l-7.766 20.768 5.12-.015 6.686-17.789zM1540.53154 29.006l-1.964-5.206.009-.013h5.139l.009.006 1.47 3.947-.003.009-4.641 1.257h-.019zM1647.739 47.989zM1631.307906 26.396l-9.829 26.285 5.12-.015 8.461-22.514zM1617.097381 30.268l-2.436-6.468.009-.013h5.139l.009.006 1.827 4.905-.003.009-4.526 1.561h-.019zM1723.739 47.989zM1708.832163 23.518l-10.905 29.163 5.12-.015 9.388-24.98.232-.862zM1693.693033 31.619l-2.942-7.819.009-.013h5.139l.009.006 2.209 5.93-.003.009-4.402 1.887h-.019zM1799.739 47.989zM1785.259473 23.518l-10.905 29.163 5.12-.015 9.388-24.98.131.047.818-2.982-.125-.045-.021-.007zM1770.311495 33.041l-3.475-9.241.009-.013h5.139l.009.006 2.611 7.009-.003.01-4.271 2.229h-.019zM1875.739 47.989zM1861.665837 23.518l-10.905 29.163 5.12-.015 9.388-24.98 1.764.637h-.001.001l1.007-2.927-1.678-.606-.29-.091zM1846.944767 34.516l-4.027-10.716.009-.013h5.139l.009.006 3.028 8.129-.003.009-4.136 2.585h-.019z" fill="#ffffff"/><g><path d="M1951.739 47.989zM1938.051254 23.518l-10.905 29.163 5.12-.015 9.388-24.98 3.396 1.226h-.001.001l1.197-2.87-3.232-1.168-.558-.175zM1923.58685 36.024l-4.592-12.224.009-.013h5.139l.009.006 3.455 9.273-.003.01-3.998 2.948h-.019z" fill="#ffffff"/></g><g><path d="M2027.739 47.989zM2014.415724 23.518l-10.905 29.163 5.12-.015 9.388-24.98 3.625 1.309c.173.062.344.158.446.317.08.126.138.268.091.418h.001l-.112.353 1.562-2.238c.172-.355.25-.786.029-1.143-.177-.285-.488-.459-.794-.57l-3.449-1.246-.596-.187zM2000.228745 37.545l-5.161-13.745.009-.013h5.139l.009.006 3.885 10.428-.003.009-3.859 3.315h-.019z" fill="#ffffff"/></g><g><path d="M2103.739 47.989zM2090.759248 23.518l-10.905 29.163 5.12-.015 9.388-24.98 3.625 1.309c.375.135.744.341.965.686.174.271.299.579.198.905h.001l-.243.762 1.956-1.51c.372-.77.54-1.702.063-2.474-.382-.617-1.054-.992-1.717-1.232l-3.449-1.246-.596-.187zM2076.86445 39.058l-5.728-15.258.009-.013h5.139l.009.006 4.313 11.577-.003.009-3.72 3.679h-.019z" fill="#ffffff"/></g><g><path d="M2179.739 47.989zM2167.081825 23.518l-10.905 29.163 5.12-.015 9.388-24.98 3.625 1.309c.576.208 1.144.524 1.484 1.055.267.417.46.891.306 1.391l-.374 1.172 2.35-.783c.572-1.183.831-2.616.097-3.804-.587-.948-1.621-1.526-2.64-1.894l-3.449-1.246-.596-.187zM2153.485965 40.545l-6.285-16.745.009-.013h5.139l.009.006 4.733 12.705-.003.01-3.583 4.037h-.019z" fill="#ffffff"/></g><g><path d="M2255.739 47.989zM2243.383456 23.518l-10.905 29.163 5.12-.015 9.388-24.98 3.625 1.309c.778.28 1.545.708 2.002 1.423.361.563.622 1.203.414 1.878l-.505 1.581 2.744-.054c.773-1.597 1.122-3.532.131-5.135-.792-1.279-2.188-2.059-3.563-2.556l-3.449-1.246-.596-.187zM2230.085291 41.985l-6.824-18.185.009-.013h5.139l.009.006 5.14 13.798-.003.01-3.451 4.384h-.019z" fill="#ffffff"/></g><g><path d="M2331.739 47.989zM2319.66414 23.518l-10.905 29.163 5.12-.015 9.388-24.98 3.625 1.309c.979.353 1.945.891 2.521 1.792.454.709.782 1.514.521 2.364l-.636 1.991 3.138.673c.973-2.011 1.413-4.446.165-6.464-.997-1.611-2.754-2.593-4.486-3.219l-3.449-1.246-.596-.187zM2306.656428 43.359l-7.339-19.559.009-.013h5.139l.009.006 5.529 14.841-.003.01-3.325 4.715h-.019z" fill="#ffffff"/></g><g><path d="M2407.739 47.989zM2395.923878 23.518l-10.905 29.163 5.12-.015 9.388-24.98 3.625 1.309c1.181.426 2.345 1.074 3.04 2.161.547.854.943 1.825.628 2.85l-.766 2.401 3.531 1.4c1.173-2.424 1.703-5.361.2-7.794-1.203-1.942-3.322-3.126-5.41-3.881l-3.449-1.246-.596-.187zM2383.191376 44.649l-7.822-20.849.009-.013h5.139l.009.006 5.894 15.821-.003.009-3.207 5.026h-.019z" fill="#ffffff"/></g><g><path d="M2483.739 47.989zM2472.162669 23.518l-10.905 29.163 5.12-.015 9.388-24.98 3.625 1.309c1.245.449 2.473 1.133 3.206 2.279.577.901.995 1.925.662 3.006l-.808 2.532c-.087.263-.338.42-.616.462l3.816 1.735c.201-.144.351-.343.458-.564 1.237-2.557 1.796-5.654.21-8.22-1.268-2.048-3.503-3.297-5.705-4.093l-3.449-1.246-.596-.187zM2459.685134 45.839l-8.268-22.039.009-.013h5.139l.009.006 6.23 16.723-.003.01-3.097 5.313h-.019z" fill="#ffffff"/></g><g><path d="M2559.739 47.989zM2548.380513 23.518l-10.905 29.163 5.12-.015 9.388-24.98 3.625 1.309c1.245.449 2.473 1.133 3.206 2.279.577.901.995 1.925.662 3.006l-.808 2.532c-.215.649-.835 1.036-1.523 1.141l4.049 1.885c.497-.355.867-.846 1.132-1.393 1.237-2.557 1.796-5.654.21-8.22-1.268-2.048-3.503-3.297-5.705-4.093l-3.449-1.246-.596-.187zM2536.129703 46.911l-8.669-23.111.009-.013h5.139l.009.006 6.533 17.537-.003.01-2.999 5.571h-.019z" fill="#ffffff"/></g><g><path d="M2635.739 47.989zM2624.57741 23.518l-10.905 29.163 5.12-.015 9.388-24.98 3.625 1.309c1.245.449 2.473 1.133 3.206 2.279.577.901.995 1.925.662 3.006l-.808 2.532c-.344 1.036-1.332 1.653-2.429 1.82l4.281 2.035c.794-.566 1.383-1.35 1.806-2.222 1.237-2.557 1.796-5.654.21-8.22-1.268-2.048-3.503-3.297-5.705-4.093l-3.449-1.246-.596-.187zM2612.522082 47.853l-9.022-24.053.009-.013h5.139l.009.006 6.8 18.252-.003.01-2.913 5.798h-.019z" fill="#ffffff"/></g><g><path d="M2711.739 47.989zM2700.753362 23.518l-10.905 29.163 5.12-.015 9.388-24.98 3.625 1.309c1.245.449 2.473 1.133 3.206 2.279.577.901.995 1.925.662 3.006l-.808 2.532c-.472 1.423-1.829 2.27-3.336 2.499l4.514 2.185c1.09-.778 1.899-1.853 2.48-3.051 1.237-2.557 1.796-5.654.21-8.22-1.268-2.048-3.503-3.297-5.705-4.093l-3.449-1.246-.596-.187zM2688.856272 48.651l-9.321-24.851.009-.013h5.139l.009.006 7.025 18.858-.003.01-2.839 5.99h-.019z" fill="#ffffff"/></g><g><path d="M2787.739 47.989zM2776.908367 23.518l-10.905 29.163 5.12-.015 9.388-24.98 3.625 1.309c1.245.449 2.473 1.133 3.206 2.279.577.901.995 1.925.662 3.006l-.808 2.532c-.477 1.438-1.849 2.295-3.372 2.526-.166.025-.335-.009-.494-.066l3.652 2.301c.432.157.962.245 1.365-.044 1.102-.786 1.92-1.873 2.507-3.084 1.237-2.557 1.796-5.654.21-8.22-1.268-2.048-3.503-3.297-5.705-4.093l-3.449-1.246-.596-.187zM2765.128273 49.295l-9.562-25.495.009-.013h5.139l.009.006 7.208 19.347-.003.01-2.781 6.145h-.019z" fill="#ffffff"/></g><g><path d="M2863.739 47.989zM2853.042425 23.518l-10.905 29.163 5.12-.015 9.388-24.98 3.625 1.309c1.245.449 2.473 1.133 3.206 2.279.577.901.995 1.925.662 3.006l-.808 2.532c-.477 1.438-1.849 2.295-3.372 2.526-.34.052-.684-.018-1.009-.135l2.745 2.416c.883.32 1.963.501 2.787-.09 1.102-.786 1.92-1.873 2.507-3.084 1.237-2.557 1.796-5.654.21-8.22-1.268-2.048-3.503-3.297-5.705-4.093l-3.449-1.246-.596-.187zM2841.336085 49.776l-9.743-25.976.009-.013h5.139l.009.006 7.344 19.712-.003.01-2.736 6.261h-.019z" fill="#ffffff"/></g><g><path d="M2939.739 47.989zM2929.155536 23.518l-10.905 29.163 5.12-.015 9.388-24.98 3.625 1.309c1.245.449 2.473 1.133 3.206 2.279.577.901.995 1.925.662 3.006l-.808 2.532c-.477 1.438-1.849 2.295-3.372 2.526-.513.078-1.033-.027-1.524-.204l1.838 2.53c1.333.484 2.965.757 4.209-.135 1.102-.786 1.92-1.873 2.507-3.084 1.237-2.557 1.796-5.654.21-8.22-1.268-2.048-3.503-3.297-5.705-4.093l-3.449-1.246-.596-.187zM2917.475707 50.089l-9.86-26.289.009-.013h5.139l.009.006 7.432 19.95-.003.01-2.707 6.336h-.019z" fill="#ffffff"/></g><g><path d="M3015.739 47.989zM3005.247701 23.518l-10.905 29.163 5.12-.015 9.388-24.98 3.625 1.309c1.245.449 2.473 1.133 3.206 2.279.577.901.995 1.925.662 3.006l-.808 2.532c-.477 1.438-1.849 2.295-3.372 2.526-.686.105-1.382-.036-2.039-.274l.932 2.646c1.782.647 3.966 1.012 5.63-.181 1.102-.786 1.92-1.873 2.507-3.084 1.237-2.557 1.796-5.654.21-8.22-1.268-2.048-3.503-3.297-5.705-4.093l-3.449-1.246-.596-.187zM2993.54614 50.229l-9.912-26.429.009-.013h5.139l.009.006 7.472 20.056-.003.01-2.695 6.37h-.019z" fill="#ffffff"/></g><g><path d="M3091.739 47.989zM3081.31892 23.518l-10.905 29.163 5.12-.015 9.388-24.98 3.625 1.309c1.245.449 2.473 1.133 3.206 2.279.577.901.995 1.925.662 3.006l-.808 2.532c-.477 1.438-1.849 2.295-3.372 2.526-.859.131-1.73-.045-2.554-.343l.025 2.761c2.233.81 4.968 1.267 7.052-.227 1.102-.786 1.92-1.873 2.507-3.084 1.237-2.557 1.796-5.654.21-8.22-1.268-2.048-3.503-3.297-5.705-4.093l-3.449-1.246-.596-.187zM3069.563384 50.237l-9.915-26.437.009-.013h5.139l.009.006 7.474 20.062-.003.01-2.694 6.372h-.019z" fill="#ffffff"/></g><g><path d="M3167.739 47.989zM3157.369191 23.518l-10.905 29.163 5.12-.015 9.388-24.98 3.625 1.309c1.245.449 2.473 1.133 3.206 2.279.577.901.995 1.925.662 3.006l-.808 2.532c-.477 1.438-1.849 2.295-3.372 2.526-1.032.158-2.079-.053-3.069-.412l-.882 2.875c2.683.974 5.97 1.524 8.474-.272 1.102-.786 1.92-1.873 2.507-3.084 1.237-2.557 1.796-5.654.21-8.22-1.268-2.048-3.503-3.297-5.705-4.093l-3.449-1.246-.596-.187zM3145.573438 50.237l-9.915-26.437.009-.013h5.139l.009.006 7.474 20.062-.003.01-2.694 6.372h-.019z" fill="#ffffff"/></g><g><path d="M3243.739 47.989zM3233.398517 23.518l-10.905 29.163 5.12-.015 9.388-24.98 3.625 1.309c1.245.449 2.473 1.133 3.206 2.279.577.901.995 1.925.662 3.006l-.808 2.532c-.477 1.438-1.849 2.295-3.372 2.526-1.081.165-2.177-.056-3.213-.431l-1.512-.582-1.361 2.865 1.737.624c2.809 1.02 6.25 1.595 8.872-.285 1.102-.786 1.92-1.873 2.507-3.084 1.237-2.557 1.796-5.654.21-8.22-1.268-2.048-3.503-3.297-5.705-4.093l-3.449-1.246-.596-.187zM3221.579303 50.237l-9.915-26.437.009-.013h5.139l.009.006 7.474 20.062-.003.01-2.694 6.372h-.019z" fill="#ffffff"/></g><g><path d="M3319.739 47.989zM3309.407 23.518l-10.905 29.163 5.12-.015 9.388-24.98 3.625 1.309c1.245.449 2.473 1.133 3.206 2.279.577.901.995 1.925.662 3.006l-.808 2.532c-.477 1.438-1.849 2.295-3.372 2.526-1.081.165-2.177-.056-3.213-.431l-2.645-1.019-1.53 2.834 3.039 1.092c2.809 1.02 6.25 1.595 8.872-.285 1.102-.786 1.92-1.873 2.507-3.084 1.237-2.557 1.796-5.654.21-8.22-1.268-2.048-3.503-3.297-5.705-4.093l-3.449-1.246-.596-.187zM3297.581 50.237l-9.915-26.437.009-.013h5.139l.009.006 7.474 20.062-.003.01-2.694 6.372h-.019z" fill="#ffffff"/></g><g><path d="M3395.739 47.989zM3385.407 23.518l-10.905 29.163 5.12-.015 9.388-24.98 3.625 1.309c1.245.449 2.473 1.133 3.206 2.279.577.901.995 1.925.662 3.006l-.808 2.532c-.477 1.438-1.849 2.295-3.372 2.526-1.081.165-2.177-.056-3.213-.431l-3.296-1.269-1.627 2.815 3.787 1.361c2.809 1.02 6.25 1.595 8.872-.285 1.102-.786 1.92-1.873 2.507-3.084 1.237-2.557 1.796-5.654.21-8.22-1.268-2.048-3.503-3.297-5.705-4.093l-3.449-1.246-.596-.187zM3373.581 50.237l-9.915-26.437.009-.013h5.139l.009.006 7.474 20.062-.003.01-2.694 6.372h-.019z" fill="#ffffff"/></g><g><path d="M3471.739 47.989zM3461.407 23.518l-10.905 29.163 5.12-.015 9.388-24.98 3.625 1.309c1.245.449 2.473 1.133 3.206 2.279.577.901.995 1.925.662 3.006l-.808 2.532c-.477 1.438-1.849 2.295-3.372 2.526-1.081.165-2.177-.056-3.213-.431l-3.647-1.404-1.678 2.805 4.189 1.506c2.809 1.02 6.25 1.595 8.872-.285 1.102-.786 1.92-1.873 2.507-3.084 1.237-2.557 1.796-5.654.21-8.22-1.268-2.048-3.503-3.297-5.705-4.093l-3.449-1.246-.596-.187zM3449.581 50.237l-9.915-26.437.009-.013h5.139l.009.006 7.474 20.062-.003.01-2.694 6.372h-.019z" fill="#ffffff"/></g><g><path d="M3547.792 48.032v.245h-.106-.001v-.244-.001h-.24v-.001l.025-.106h.215v-.182-.001h.001l.105-.041h.001v.224h.241v.001l-.016.106h-.225M3537.407 23.518l-10.905 29.163 5.12-.015 9.388-24.98 3.625 1.309c1.245.449 2.473 1.133 3.206 2.279.577.901.995 1.925.662 3.006l-.808 2.532c-.477 1.438-1.849 2.295-3.372 2.526-1.081.165-2.177-.056-3.213-.431l-3.781-1.456-1.698 2.802 4.343 1.561c2.809 1.02 6.25 1.595 8.872-.285 1.102-.786 1.92-1.873 2.507-3.084 1.237-2.557 1.796-5.654.21-8.22-1.268-2.048-3.503-3.297-5.705-4.093l-3.449-1.246-.596-.187zM3525.581 50.237l-9.915-26.437.009-.013h5.139l.009.006 7.474 20.062-.003.01-2.694 6.372h-.019z" fill="#ffffff"/></g><g><path d="M3623.969 48.176c-.001.001-.001.001-.001.002l.001 1.051v.002c-.001 0-.001.001-.002.001h-.458s-.001 0-.001-.001c-.001 0-.001-.001-.001-.002v-1.051-.002c-.001 0-.002-.001-.002-.001h-1.034l-.001-.001v-.002l.11-.457.001-.001c.001-.001.001-.001.002-.001h.924v-.785-.001c0-.001 0-.001.001-.001 0-.001 0-.001.001-.001l.456-.179h.001c.001 0 .001.001.002.001v.964c0 .001 0 .001.001.001 0 .001 0 .001.001.001 0 .001.001.001.001 0h1.034c.001 0 .001 0 .002.001l.001.001v.002l-.07.456s-.001.001-.001.002h-.966-.001c-.001 0-.001.001-.001.001M3613.407 23.518l-10.905 29.163 5.12-.015 9.388-24.98 3.625 1.309c1.245.449 2.473 1.133 3.206 2.279.577.901.995 1.925.662 3.006l-.808 2.532c-.477 1.438-1.849 2.295-3.372 2.526-1.081.165-2.177-.056-3.213-.431l-3.786-1.458-1.699 2.802 4.349 1.563c2.809 1.02 6.25 1.595 8.872-.285 1.102-.786 1.92-1.873 2.507-3.084 1.237-2.557 1.796-5.654.21-8.22-1.268-2.048-3.503-3.297-5.705-4.093l-3.449-1.246-.596-.187zM3601.581 50.237l-9.915-26.437.009-.013h5.139l.009.006 7.474 20.062-.003.01-2.694 6.372h-.019z" fill="#ffffff"/></g><g><path d="M3700.123 48.302c0 .001-.001.002-.001.003l.001 1.759c.001.001 0 .002 0 .003s-.001.001-.002.002h-.766c-.001 0-.002-.001-.003-.002s-.001-.002-.001-.003v-1.759c0-.001-.001-.002-.001-.003-.001-.001-.002-.001-.003-.001h-1.727c-.001 0-.002 0-.003-.001 0-.001-.001-.001-.001-.002v-.003l.184-.764c0-.001.001-.002.002-.002.001-.001.002-.001.003-.001h1.542c.001 0 .002 0 .003-.001 0-.001.001-.002.001-.003v-1.31s-.001-.001 0-.002c0-.001 0-.001.001-.002 0-.001.001-.001.002-.001l.763-.299c.001-.001.002-.001.002-.001.001.001.002.001.003.002 0 .001.001.002 0 .003v1.61c0 .001.001.002.001.002 0 .001.001.002.002.002H3701.858c.001 0 .002 0 .003.001 0 0 .001.001.001.002v.002l-.117.763c0 .001-.001.003-.002.004-.001 0-.001.001-.002.001H3700.125c-.001 0-.002 0-.002.001M3689.407 23.518l-10.905 29.163 5.12-.015 9.388-24.98 3.625 1.309c1.245.449 2.473 1.133 3.206 2.279.577.901.995 1.925.662 3.006l-.808 2.532c-.477 1.438-1.849 2.295-3.372 2.526-1.081.165-2.177-.056-3.213-.431l-3.786-1.458-1.699 2.802 4.349 1.563c2.809 1.02 6.25 1.595 8.872-.285 1.102-.786 1.92-1.873 2.507-3.084 1.237-2.557 1.796-5.654.21-8.22-1.268-2.048-3.503-3.297-5.705-4.093l-3.449-1.246-.596-.187zM3677.581 50.237l-9.915-26.437.009-.013h5.139l.009.006 7.474 20.062-.003.01-2.694 6.372h-.019z" fill="#ffffff"/></g><g><path d="M3776.256 48.411c-.001.001-.001.002-.001.003l.001 2.367c.001.001 0 .003 0 .004-.001.001-.002.002-.003.002-.001.001-.003.001-.004 0h-1.027c-.001 0-.002 0-.003-.001-.002-.002-.002-.003-.002-.005v-2.367c0-.002-.001-.003-.001-.004-.002-.001-.003-.001-.005-.002h-2.327c-.001-.002-.002-.002-.002-.003v-.004l.248-1.029c0-.001.002-.002.002-.002.001-.001.003-.001.004-.001h2.075c.002 0 .003-.001.005-.002 0-.001.001-.003.001-.004v-1.762c0-.001-.001-.002 0-.003 0-.001 0-.002.001-.003s.002-.001.002-.001l1.027-.403h.004c.001 0 .002.001.003.002s.001.003.001.004v2.166c0 .001 0 .003.001.003 0 .001.002.002.003.003h2.331c.002 0 .003 0 .004.001.001 0 .002.002.002.002v.004l-.158 1.027c0 .001-.001.003-.002.004s-.002.001-.003.001h-2.174c-.001.001-.003.001-.003.003M3765.407 23.518l-10.905 29.163 5.12-.015 9.388-24.98 3.625 1.309c1.245.449 2.473 1.133 3.206 2.279.577.901.995 1.925.662 3.006l-.808 2.532c-.477 1.438-1.849 2.295-3.372 2.526-1.081.165-2.177-.056-3.213-.431l-3.786-1.458-1.699 2.802 4.349 1.563c2.809 1.02 6.25 1.595 8.872-.285 1.102-.786 1.92-1.873 2.507-3.084 1.237-2.557 1.796-5.654.21-8.22-1.268-2.048-3.503-3.297-5.705-4.093l-3.449-1.246-.596-.187zM3753.581 50.237l-9.915-26.437.009-.013h5.139l.009.006 7.474 20.062-.003.01-2.694 6.372h-.019z" fill="#ffffff"/></g><g><path d="M3852.367 48.501c-.001.002-.002.003-.002.005l.002 2.875c.001.001 0 .004 0 .004-.001.002-.002.003-.004.003-.001.001-.003.001-.004 0h-1.248c-.001 0-.003 0-.004-.002-.002-.001-.002-.003-.002-.005v-2.875c0-.003-.001-.004-.002-.006-.001 0-.003-.001-.005-.002h-2.827c-.002-.002-.002-.003-.003-.004 0-.002 0-.003.001-.005l.301-1.249c0-.002.002-.002.002-.003.002-.002.003-.002.005-.002h2.521c.002 0 .004 0 .005-.002.001-.001.002-.003.002-.005v-2.14c0-.001-.001-.002 0-.004 0-.001 0-.002.001-.003s.002-.002.003-.002l1.248-.489h.004c.001 0 .003.001.004.003 0 .001.001.003 0 .004v2.631c0 .002.001.004.002.004 0 .002.002.003.003.003.002.001.003.001.005 0h2.828c.001 0 .003 0 .004.002.001.001.002.002.002.003.001.001.001.003 0 .004l-.191 1.248c0 .001-.001.003-.003.005-.001.001-.003.001-.004.001h-2.641c-.001.001-.003.002-.003.003M3841.407 23.518l-10.905 29.163 5.12-.015 9.388-24.98 3.625 1.309c1.245.449 2.473 1.133 3.206 2.279.577.901.995 1.925.662 3.006l-.808 2.532c-.477 1.438-1.849 2.295-3.372 2.526-1.081.165-2.177-.056-3.213-.431l-3.786-1.458-1.699 2.802 4.349 1.563c2.809 1.02 6.25 1.595 8.872-.285 1.102-.786 1.92-1.873 2.507-3.084 1.237-2.557 1.796-5.654.21-8.22-1.268-2.048-3.503-3.297-5.705-4.093l-3.449-1.246-.596-.187zM3829.581 50.237l-9.915-26.437.009-.013h5.139l.009.006 7.474 20.062-.003.01-2.694 6.372h-.019z" fill="#ffffff"/></g><g><path d="M3928.456 48.574c-.001.002-.002.003-.002.005l.003 3.284c.001.002 0 .004-.001.005-.001.002-.003.003-.004.003-.002.001-.004.001-.005 0h-1.425c-.002 0-.003 0-.005-.002s-.003-.003-.003-.006v-3.284c0-.003 0-.004-.001-.006-.002-.001-.004-.002-.006-.002h-3.224c-.002 0-.003 0-.005-.001-.002-.002-.002-.003-.003-.004 0-.002 0-.004.001-.005l.344-1.428c0-.001.001-.002.002-.003.002-.002.004-.002.005-.002h2.88c.002 0 .004-.001.006-.002.001-.002.001-.004.001-.006v-2.444-.005c0-.001.001-.002.002-.004.001-.001.003-.001.004-.001l1.424-.559h.005c.002 0 .004.001.004.003.001.002.002.003.001.005v3.005c0 .002.001.004.002.005.001.002.002.002.004.003s.004.001.005 0h3.23c.002 0 .003 0 .005.002.001.001.002.002.002.003.001.002.001.004 0 .005l-.218 1.425c0 .002-.001.004-.003.006-.002.001-.003.002-.005.002h-3.016c-.002 0-.003.001-.004.003M3917.407 23.518l-10.905 29.163 5.12-.015 9.388-24.98 3.625 1.309c1.245.449 2.473 1.133 3.206 2.279.577.901.995 1.925.662 3.006l-.808 2.532c-.477 1.438-1.849 2.295-3.372 2.526-1.081.165-2.177-.056-3.213-.431l-3.786-1.458-1.699 2.802 4.349 1.563c2.809 1.02 6.25 1.595 8.872-.285 1.102-.786 1.92-1.873 2.507-3.084 1.237-2.557 1.796-5.654.21-8.22-1.268-2.048-3.503-3.297-5.705-4.093l-3.449-1.246-.596-.187zM3905.581 50.237l-9.915-26.437.009-.013h5.139l.009.006 7.474 20.062-.003.01-2.694 6.372h-.019z" fill="#ffffff"/></g><g><path d="M4004.523 48.629c0 .002-.001.004-.001.005l.002 3.594c.001.001 0 .004-.001.005 0 .002-.002.003-.004.004s-.004.001-.006 0h-1.558c-.002 0-.004-.001-.006-.003s-.003-.004-.003-.006v-3.594c0-.002-.001-.004-.002-.006-.001-.001-.003-.002-.006-.003h-3.527c-.002 0-.004 0-.006-.001-.001-.001-.002-.002-.003-.004 0-.002 0-.004.001-.006l.376-1.561c0-.002.002-.003.003-.004.002-.002.004-.002.006-.002h3.15c.003 0 .005-.001.006-.002.001-.002.002-.004.002-.007v-2.674c0-.001-.001-.003 0-.005 0-.001.001-.002.002-.004.001-.001.003-.002.004-.002l1.559-.611c.001-.001.003-.001.005-.001.002.001.004.002.005.004s.002.004.001.005v3.288c0 .003.001.005.001.006.001.001.003.002.005.003s.004.001.006 0h3.533c.002 0 .004 0 .006.002.001.001.002.003.002.004.001.002.001.003 0 .005l-.239 1.559c0 .002-.001.005-.003.007-.002 0-.004.001-.005.001h-3.3c-.002.001-.004.002-.005.004M3993.407 23.518l-10.905 29.163 5.12-.015 9.388-24.98 3.625 1.309c1.245.449 2.473 1.133 3.206 2.279.577.901.995 1.925.662 3.006l-.808 2.532c-.477 1.438-1.849 2.295-3.372 2.526-1.081.165-2.177-.056-3.213-.431l-3.786-1.458-1.699 2.802 4.349 1.563c2.809 1.02 6.25 1.595 8.872-.285 1.102-.786 1.92-1.873 2.507-3.084 1.237-2.557 1.796-5.654.21-8.22-1.268-2.048-3.503-3.297-5.705-4.093l-3.449-1.246-.596-.187zM3981.581 50.237l-9.915-26.437.009-.013h5.139l.009.006 7.474 20.062-.003.01-2.694 6.372h-.019z" fill="#ffffff"/></g><g><path d="M4080.569 48.666c-.001.002-.002.004-.002.006l.003 3.802c.001.002 0 .005-.001.006-.001.002-.003.003-.005.004s-.004.001-.005 0h-1.65c-.002 0-.004-.001-.006-.003s-.003-.004-.003-.007v-3.802c0-.003-.001-.005-.002-.007-.002-.001-.004-.002-.007-.003h-3.732c-.002 0-.004 0-.006-.001s-.003-.002-.004-.004c0-.002 0-.004.001-.006l.399-1.653c0-.002.002-.003.003-.004.001-.002.003-.002.005-.002h3.334c.003 0 .005-.001.007-.002.001-.002.002-.004.002-.007v-2.83c0-.001-.001-.003 0-.005 0-.002.001-.003.002-.005.001-.001.003-.002.004-.002l1.65-.646c.002-.001.003-.001.005-.001.002.001.004.002.005.004s.002.004.001.006v3.479c0 .003.001.005.002.006.001.002.003.002.005.003s.004.001.006 0h3.739c.002 0 .004 0 .006.002.001.001.003.003.003.004.001.002.001.004 0 .006l-.253 1.65c0 .002-.001.005-.003.006s-.004.002-.006.002h-3.492c-.002.001-.004.002-.005.004M4069.407 23.518l-10.905 29.163 5.12-.015 9.388-24.98 3.625 1.309c1.245.449 2.473 1.133 3.206 2.279.577.901.995 1.925.662 3.006l-.808 2.532c-.477 1.438-1.849 2.295-3.372 2.526-1.081.165-2.177-.056-3.213-.431l-3.786-1.458-1.699 2.802 4.349 1.563c2.809 1.02 6.25 1.595 8.872-.285 1.102-.786 1.92-1.873 2.507-3.084 1.237-2.557 1.796-5.654.21-8.22-1.268-2.048-3.503-3.297-5.705-4.093l-3.449-1.246-.596-.187zM4057.581 50.237l-9.915-26.437.009-.013h5.139l.009.006 7.474 20.062-.003.01-2.694 6.372h-.019z" fill="#ffffff"/></g><g><path d="M4156.593 48.686c-.001.002-.002.004-.002.006l.003 3.912c.001.002 0 .005-.001.006-.001.002-.003.003-.005.004s-.004.001-.006 0h-1.697c-.002 0-.004-.001-.006-.003s-.003-.004-.003-.007v-3.912c0-.003-.001-.005-.002-.007-.002-.001-.004-.002-.007-.003h-3.84c-.002 0-.004 0-.006-.001-.002-.002-.003-.003-.004-.005 0-.002 0-.004.001-.006l.41-1.7c0-.002.002-.003.003-.004.002-.002.004-.002.006-.002h3.43c.003 0 .005-.001.007-.003.001-.002.002-.004.002-.007v-2.912c0-.001-.001-.003 0-.005 0-.002.001-.003.002-.005.001-.001.003-.002.004-.002l1.697-.665c.002-.001.004-.001.006-.001.002.001.004.002.005.004s.002.004.001.006v3.58c0 .003.001.005.002.006.001.002.003.003.005.004s.004.001.006 0h3.847c.002 0 .004 0 .006.002.001.001.003.003.003.004.001.002.001.004 0 .006l-.26 1.697c0 .002-.001.005-.003.007-.002.001-.004.002-.006.002h-3.593c-.002.001-.004.002-.005.004M4145.407 23.518l-10.905 29.163 5.12-.015 9.388-24.98 3.625 1.309c1.245.449 2.473 1.133 3.206 2.279.577.901.995 1.925.662 3.006l-.808 2.532c-.477 1.438-1.849 2.295-3.372 2.526-1.081.165-2.177-.056-3.213-.431l-3.786-1.458-1.699 2.802 4.349 1.563c2.809 1.02 6.25 1.595 8.872-.285 1.102-.786 1.92-1.873 2.507-3.084 1.237-2.557 1.796-5.654.21-8.22-1.268-2.048-3.503-3.297-5.705-4.093l-3.449-1.246-.596-.187zM4133.581 50.237l-9.915-26.437.009-.013h5.139l.009.006 7.474 20.062-.003.01-2.694 6.372h-.019z" fill="#ffffff"/></g><g><path d="M4232.597 48.689c-.001.002-.002.004-.002.006l.003 3.93c.001.002 0 .005-.001.006-.001.002-.003.003-.005.004s-.004.001-.006 0h-1.705c-.002 0-.004-.001-.006-.003s-.003-.004-.003-.007v-3.93c0-.003-.001-.005-.002-.007-.002-.001-.004-.002-.007-.003h-3.858c-.002 0-.004 0-.006-.001-.002-.002-.003-.003-.004-.005 0-.002 0-.004.001-.006l.412-1.708c0-.002.002-.003.003-.004.002-.002.004-.002.006-.002h3.446c.003 0 .005-.001.007-.003.001-.002.002-.004.002-.007v-2.925c0-.001-.001-.003 0-.005 0-.002.001-.003.002-.005.001-.001.003-.002.004-.002l1.705-.668c.002-.001.004-.001.006-.001.002.001.004.002.005.004s.002.004.001.006v3.596c0 .003.001.005.002.006.001.002.003.003.005.004s.004.001.006 0h3.865c.002 0 .004 0 .006.002.001.001.003.003.003.004.001.002.001.004 0 .006l-.262 1.705c0 .002-.001.005-.003.007-.002.001-.004.002-.006.002h-3.609c-.002.001-.004.002-.005.004M4221.407 23.518l-10.905 29.163 5.12-.015 9.388-24.98 3.625 1.309c1.245.449 2.473 1.133 3.206 2.279.577.901.995 1.925.662 3.006l-.808 2.532c-.477 1.438-1.849 2.295-3.372 2.526-1.081.165-2.177-.056-3.213-.431l-3.786-1.458-1.699 2.802 4.349 1.563c2.809 1.02 6.25 1.595 8.872-.285 1.102-.786 1.92-1.873 2.507-3.084 1.237-2.557 1.796-5.654.21-8.22-1.268-2.048-3.503-3.297-5.705-4.093l-3.449-1.246-.596-.187zM4209.581 50.237l-9.915-26.437.009-.013h5.139l.009.006 7.474 20.062-.003.01-2.694 6.372h-.019z" fill="#ffffff"/></g><g><path d="M4308.597 48.689c-.001.002-.002.004-.002.006l.003 3.93c.001.002 0 .005-.001.006-.001.002-.003.003-.005.004s-.004.001-.006 0h-1.705c-.002 0-.004-.001-.006-.003s-.003-.004-.003-.007v-3.93c0-.003-.001-.005-.002-.007-.002-.001-.004-.002-.007-.003h-3.858c-.002 0-.004 0-.006-.001-.002-.002-.003-.003-.004-.005 0-.002 0-.004.001-.006l.412-1.708c0-.002.002-.003.003-.004.002-.002.004-.002.006-.002h3.446c.003 0 .005-.001.007-.003.001-.002.002-.004.002-.007v-2.925c0-.001-.001-.003 0-.005 0-.002.001-.003.002-.005.001-.001.003-.002.004-.002l1.705-.668c.002-.001.004-.001.006-.001.002.001.004.002.005.004s.002.004.001.006v3.596c0 .003.001.005.002.006.001.002.003.003.005.004s.004.001.006 0h3.865c.002 0 .004 0 .006.002.001.001.003.003.003.004.001.002.001.004 0 .006l-.262 1.705c0 .002-.001.005-.003.007-.002.001-.004.002-.006.002h-3.609c-.002.001-.004.002-.005.004M4297.407 23.518l-10.905 29.163 5.12-.015 9.388-24.98 3.625 1.309c1.245.449 2.473 1.133 3.206 2.279.577.901.995 1.925.662 3.006l-.808 2.532c-.477 1.438-1.849 2.295-3.372 2.526-1.081.165-2.177-.056-3.213-.431l-3.786-1.458-1.699 2.802 4.349 1.563c2.809 1.02 6.25 1.595 8.872-.285 1.102-.786 1.92-1.873 2.507-3.084 1.237-2.557 1.796-5.654.21-8.22-1.268-2.048-3.503-3.297-5.705-4.093l-3.449-1.246-.596-.187zM4285.581 50.237l-9.915-26.437.009-.013h5.139l.009.006 7.474 20.062-.003.01-2.694 6.372h-.019z" fill="#ffffff"/></g><g><path d="M4384.597 48.689c-.001.002-.002.004-.002.006l.003 3.93c.001.002 0 .005-.001.006-.001.002-.003.003-.005.004s-.004.001-.006 0h-1.705c-.002 0-.004-.001-.006-.003s-.003-.004-.003-.007v-3.93c0-.003-.001-.005-.002-.007-.002-.001-.004-.002-.007-.003h-3.858c-.002 0-.004 0-.006-.001-.002-.002-.003-.003-.004-.005 0-.002 0-.004.001-.006l.412-1.708c0-.002.002-.003.003-.004.002-.002.004-.002.006-.002h3.446c.003 0 .005-.001.007-.003.001-.002.002-.004.002-.007v-2.925c0-.001-.001-.003 0-.005 0-.002.001-.003.002-.005.001-.001.003-.002.004-.002l1.705-.668c.002-.001.004-.001.006-.001.002.001.004.002.005.004s.002.004.001.006v3.596c0 .003.001.005.002.006.001.002.003.003.005.004s.004.001.006 0h3.865c.002 0 .004 0 .006.002.001.001.003.003.003.004.001.002.001.004 0 .006l-.262 1.705c0 .002-.001.005-.003.007-.002.001-.004.002-.006.002h-3.609c-.002.001-.004.002-.005.004M4373.407 23.518l-10.905 29.163 5.12-.015 9.388-24.98 3.625 1.309c1.245.449 2.473 1.133 3.206 2.279.577.901.995 1.925.662 3.006l-.808 2.532c-.477 1.438-1.849 2.295-3.372 2.526-1.081.165-2.177-.056-3.213-.431l-3.786-1.458-1.699 2.802 4.349 1.563c2.809 1.02 6.25 1.595 8.872-.285 1.102-.786 1.92-1.873 2.507-3.084 1.237-2.557 1.796-5.654.21-8.22-1.268-2.048-3.503-3.297-5.705-4.093l-3.449-1.246-.596-.187zM4361.581 50.237l-9.915-26.437.009-.013h5.139l.009.006 7.474 20.062-.003.01-2.694 6.372h-.019z" fill="#ffffff"/></g><g><path d="M4460.597 48.689c-.001.002-.002.004-.002.006l.003 3.93c.001.002 0 .005-.001.006-.001.002-.003.003-.005.004s-.004.001-.006 0h-1.705c-.002 0-.004-.001-.006-.003s-.003-.004-.003-.007v-3.93c0-.003-.001-.005-.002-.007-.002-.001-.004-.002-.007-.003h-3.858c-.002 0-.004 0-.006-.001-.002-.002-.003-.003-.004-.005 0-.002 0-.004.001-.006l.412-1.708c0-.002.002-.003.003-.004.002-.002.004-.002.006-.002h3.446c.003 0 .005-.001.007-.003.001-.002.002-.004.002-.007v-2.925c0-.001-.001-.003 0-.005 0-.002.001-.003.002-.005.001-.001.003-.002.004-.002l1.705-.668c.002-.001.004-.001.006-.001.002.001.004.002.005.004s.002.004.001.006v3.596c0 .003.001.005.002.006.001.002.003.003.005.004s.004.001.006 0h3.865c.002 0 .004 0 .006.002.001.001.003.003.003.004.001.002.001.004 0 .006l-.262 1.705c0 .002-.001.005-.003.007-.002.001-.004.002-.006.002h-3.609c-.002.001-.004.002-.005.004M4449.407 23.518l-10.905 29.163 5.12-.015 9.388-24.98 3.625 1.309c1.245.449 2.473 1.133 3.206 2.279.577.901.995 1.925.662 3.006l-.808 2.532c-.477 1.438-1.849 2.295-3.372 2.526-1.081.165-2.177-.056-3.213-.431l-3.786-1.458-1.699 2.802 4.349 1.563c2.809 1.02 6.25 1.595 8.872-.285 1.102-.786 1.92-1.873 2.507-3.084 1.237-2.557 1.796-5.654.21-8.22-1.268-2.048-3.503-3.297-5.705-4.093l-3.449-1.246-.596-.187zM4437.581 50.237l-9.915-26.437.009-.013h5.139l.009.006 7.474 20.062-.003.01-2.694 6.372h-.019z" fill="#ffffff"/></g><g><path d="M4536.597 48.689c-.001.002-.002.004-.002.006l.003 3.93c.001.002 0 .005-.001.006-.001.002-.003.003-.005.004s-.004.001-.006 0h-1.705c-.002 0-.004-.001-.006-.003s-.003-.004-.003-.007v-3.93c0-.003-.001-.005-.002-.007-.002-.001-.004-.002-.007-.003h-3.858c-.002 0-.004 0-.006-.001-.002-.002-.003-.003-.004-.005 0-.002 0-.004.001-.006l.412-1.708c0-.002.002-.003.003-.004.002-.002.004-.002.006-.002h3.446c.003 0 .005-.001.007-.003.001-.002.002-.004.002-.007v-2.925c0-.001-.001-.003 0-.005 0-.002.001-.003.002-.005.001-.001.003-.002.004-.002l1.705-.668c.002-.001.004-.001.006-.001.002.001.004.002.005.004s.002.004.001.006v3.596c0 .003.001.005.002.006.001.002.003.003.005.004s.004.001.006 0h3.865c.002 0 .004 0 .006.002.001.001.003.003.003.004.001.002.001.004 0 .006l-.262 1.705c0 .002-.001.005-.003.007-.002.001-.004.002-.006.002h-3.609c-.002.001-.004.002-.005.004M4525.407 23.518l-10.905 29.163 5.12-.015 9.388-24.98 3.625 1.309c1.245.449 2.473 1.133 3.206 2.279.577.901.995 1.925.662 3.006l-.808 2.532c-.477 1.438-1.849 2.295-3.372 2.526-1.081.165-2.177-.056-3.213-.431l-3.786-1.458-1.699 2.802 4.349 1.563c2.809 1.02 6.25 1.595 8.872-.285 1.102-.786 1.92-1.873 2.507-3.084 1.237-2.557 1.796-5.654.21-8.22-1.268-2.048-3.503-3.297-5.705-4.093l-3.449-1.246-.596-.187zM4513.581 50.237l-9.915-26.437.009-.013h5.139l.009.006 7.474 20.062-.003.01-2.694 6.372h-.019z" fill="#ffffff"/></g><g><path d="M4612.597 48.689c-.001.002-.002.004-.002.006l.003 3.93c.001.002 0 .005-.001.006-.001.002-.003.003-.005.004s-.004.001-.006 0h-1.705c-.002 0-.004-.001-.006-.003s-.003-.004-.003-.007v-3.93c0-.003-.001-.005-.002-.007-.002-.001-.004-.002-.007-.003h-3.858c-.002 0-.004 0-.006-.001-.002-.002-.003-.003-.004-.005 0-.002 0-.004.001-.006l.412-1.708c0-.002.002-.003.003-.004.002-.002.004-.002.006-.002h3.446c.003 0 .005-.001.007-.003.001-.002.002-.004.002-.007v-2.925c0-.001-.001-.003 0-.005 0-.002.001-.003.002-.005.001-.001.003-.002.004-.002l1.705-.668c.002-.001.004-.001.006-.001.002.001.004.002.005.004s.002.004.001.006v3.596c0 .003.001.005.002.006.001.002.003.003.005.004s.004.001.006 0h3.865c.002 0 .004 0 .006.002.001.001.003.003.003.004.001.002.001.004 0 .006l-.262 1.705c0 .002-.001.005-.003.007-.002.001-.004.002-.006.002h-3.609c-.002.001-.004.002-.005.004" fill="#eff7f3"/><path d="M4601.407 23.518l-10.905 29.163 5.12-.015 9.388-24.98 3.625 1.309c1.245.449 2.473 1.133 3.206 2.279.577.901.995 1.925.662 3.006l-.808 2.532c-.477 1.438-1.849 2.295-3.372 2.526-1.081.165-2.177-.056-3.213-.431l-3.786-1.458-1.699 2.802 4.349 1.563c2.809 1.02 6.25 1.595 8.872-.285 1.102-.786 1.92-1.873 2.507-3.084 1.237-2.557 1.796-5.654.21-8.22-1.268-2.048-3.503-3.297-5.705-4.093l-3.449-1.246-.596-.187zM4589.581 50.237l-9.915-26.437.009-.013h5.139l.009.006 7.474 20.062-.003.01-2.694 6.372h-.019z" fill="#ffffff"/></g><g><path d="M4688.597 48.689c-.001.002-.002.004-.002.006l.003 3.93c.001.002 0 .005-.001.006-.001.002-.003.003-.005.004s-.004.001-.006 0h-1.705c-.002 0-.004-.001-.006-.003s-.003-.004-.003-.007v-3.93c0-.003-.001-.005-.002-.007-.002-.001-.004-.002-.007-.003h-3.858c-.002 0-.004 0-.006-.001-.002-.002-.003-.003-.004-.005 0-.002 0-.004.001-.006l.412-1.708c0-.002.002-.003.003-.004.002-.002.004-.002.006-.002h3.446c.003 0 .005-.001.007-.003.001-.002.002-.004.002-.007v-2.925c0-.001-.001-.003 0-.005 0-.002.001-.003.002-.005.001-.001.003-.002.004-.002l1.705-.668c.002-.001.004-.001.006-.001.002.001.004.002.005.004s.002.004.001.006v3.596c0 .003.001.005.002.006.001.002.003.003.005.004s.004.001.006 0h3.865c.002 0 .004 0 .006.002.001.001.003.003.003.004.001.002.001.004 0 .006l-.262 1.705c0 .002-.001.005-.003.007-.002.001-.004.002-.006.002h-3.609c-.002.001-.004.002-.005.004" fill="#deefe6"/><path d="M4677.407 23.518l-10.905 29.163 5.12-.015 9.388-24.98 3.625 1.309c1.245.449 2.473 1.133 3.206 2.279.577.901.995 1.925.662 3.006l-.808 2.532c-.477 1.438-1.849 2.295-3.372 2.526-1.081.165-2.177-.056-3.213-.431l-3.786-1.458-1.699 2.802 4.349 1.563c2.809 1.02 6.25 1.595 8.872-.285 1.102-.786 1.92-1.873 2.507-3.084 1.237-2.557 1.796-5.654.21-8.22-1.268-2.048-3.503-3.297-5.705-4.093l-3.449-1.246-.596-.187zM4665.581 50.237l-9.915-26.437.009-.013h5.139l.009.006 7.474 20.062-.003.01-2.694 6.372h-.019z" fill="#ffffff"/></g><g><path d="M4764.597 48.689c-.001.002-.002.004-.002.006l.003 3.93c.001.002 0 .005-.001.006-.001.002-.003.003-.005.004s-.004.001-.006 0h-1.705c-.002 0-.004-.001-.006-.003s-.003-.004-.003-.007v-3.93c0-.003-.001-.005-.002-.007-.002-.001-.004-.002-.007-.003h-3.858c-.002 0-.004 0-.006-.001-.002-.002-.003-.003-.004-.005 0-.002 0-.004.001-.006l.412-1.708c0-.002.002-.003.003-.004.002-.002.004-.002.006-.002h3.446c.003 0 .005-.001.007-.003.001-.002.002-.004.002-.007v-2.925c0-.001-.001-.003 0-.005 0-.002.001-.003.002-.005.001-.001.003-.002.004-.002l1.705-.668c.002-.001.004-.001.006-.001.002.001.004.002.005.004s.002.004.001.006v3.596c0 .003.001.005.002.006.001.002.003.003.005.004s.004.001.006 0h3.865c.002 0 .004 0 .006.002.001.001.003.003.003.004.001.002.001.004 0 .006l-.262 1.705c0 .002-.001.005-.003.007-.002.001-.004.002-.006.002h-3.609c-.002.001-.004.002-.005.004" fill="#cde6d9"/><path d="M4753.407 23.518l-10.905 29.163 5.12-.015 9.388-24.98 3.625 1.309c1.245.449 2.473 1.133 3.206 2.279.577.901.995 1.925.662 3.006l-.808 2.532c-.477 1.438-1.849 2.295-3.372 2.526-1.081.165-2.177-.056-3.213-.431l-3.786-1.458-1.699 2.802 4.349 1.563c2.809 1.02 6.25 1.595 8.872-.285 1.102-.786 1.92-1.873 2.507-3.084 1.237-2.557 1.796-5.654.21-8.22-1.268-2.048-3.503-3.297-5.705-4.093l-3.449-1.246-.596-.187zM4741.581 50.237l-9.915-26.437.009-.013h5.139l.009.006 7.474 20.062-.003.01-2.694 6.372h-.019z" fill="#ffffff"/></g><g><path d="M4840.597 48.689c-.001.002-.002.004-.002.006l.003 3.93c.001.002 0 .005-.001.006-.001.002-.003.003-.005.004s-.004.001-.006 0h-1.705c-.002 0-.004-.001-.006-.003s-.003-.004-.003-.007v-3.93c0-.003-.001-.005-.002-.007-.002-.001-.004-.002-.007-.003h-3.858c-.002 0-.004 0-.006-.001-.002-.002-.003-.003-.004-.005 0-.002 0-.004.001-.006l.412-1.708c0-.002.002-.003.003-.004.002-.002.004-.002.006-.002h3.446c.003 0 .005-.001.007-.003.001-.002.002-.004.002-.007v-2.925c0-.001-.001-.003 0-.005 0-.002.001-.003.002-.005.001-.001.003-.002.004-.002l1.705-.668c.002-.001.004-.001.006-.001.002.001.004.002.005.004s.002.004.001.006v3.596c0 .003.001.005.002.006.001.002.003.003.005.004s.004.001.006 0h3.865c.002 0 .004 0 .006.002.001.001.003.003.003.004.001.002.001.004 0 .006l-.262 1.705c0 .002-.001.005-.003.007-.002.001-.004.002-.006.002h-3.609c-.002.001-.004.002-.005.004" fill="#bbddcc"/><path d="M4829.407 23.518l-10.905 29.163 5.12-.015 9.388-24.98 3.625 1.309c1.245.449 2.473 1.133 3.206 2.279.577.901.995 1.925.662 3.006l-.808 2.532c-.477 1.438-1.849 2.295-3.372 2.526-1.081.165-2.177-.056-3.213-.431l-3.786-1.458-1.699 2.802 4.349 1.563c2.809 1.02 6.25 1.595 8.872-.285 1.102-.786 1.92-1.873 2.507-3.084 1.237-2.557 1.796-5.654.21-8.22-1.268-2.048-3.503-3.297-5.705-4.093l-3.449-1.246-.596-.187zM4817.581 50.237l-9.915-26.437.009-.013h5.139l.009.006 7.474 20.062-.003.01-2.694 6.372h-.019z" fill="#ffffff"/></g><g><path d="M4916.597 48.689c-.001.002-.002.004-.002.006l.003 3.93c.001.002 0 .005-.001.006-.001.002-.003.003-.005.004s-.004.001-.006 0h-1.705c-.002 0-.004-.001-.006-.003s-.003-.004-.003-.007v-3.93c0-.003-.001-.005-.002-.007-.002-.001-.004-.002-.007-.003h-3.858c-.002 0-.004 0-.006-.001-.002-.002-.003-.003-.004-.005 0-.002 0-.004.001-.006l.412-1.708c0-.002.002-.003.003-.004.002-.002.004-.002.006-.002h3.446c.003 0 .005-.001.007-.003.001-.002.002-.004.002-.007v-2.925c0-.001-.001-.003 0-.005 0-.002.001-.003.002-.005.001-.001.003-.002.004-.002l1.705-.668c.002-.001.004-.001.006-.001.002.001.004.002.005.004s.002.004.001.006v3.596c0 .003.001.005.002.006.001.002.003.003.005.004s.004.001.006 0h3.865c.002 0 .004 0 .006.002.001.001.003.003.003.004.001.002.001.004 0 .006l-.262 1.705c0 .002-.001.005-.003.007-.002.001-.004.002-.006.002h-3.609c-.002.001-.004.002-.005.004" fill="#aad4bf"/><path d="M4905.407 23.518l-10.905 29.163 5.12-.015 9.388-24.98 3.625 1.309c1.245.449 2.473 1.133 3.206 2.279.577.901.995 1.925.662 3.006l-.808 2.532c-.477 1.438-1.849 2.295-3.372 2.526-1.081.165-2.177-.056-3.213-.431l-3.786-1.458-1.699 2.802 4.349 1.563c2.809 1.02 6.25 1.595 8.872-.285 1.102-.786 1.92-1.873 2.507-3.084 1.237-2.557 1.796-5.654.21-8.22-1.268-2.048-3.503-3.297-5.705-4.093l-3.449-1.246-.596-.187zM4893.581 50.237l-9.915-26.437.009-.013h5.139l.009.006 7.474 20.062-.003.01-2.694 6.372h-.019z" fill="#ffffff"/></g><g><path d="M4992.597 48.689c-.001.002-.002.004-.002.006l.003 3.93c.001.002 0 .005-.001.006-.001.002-.003.003-.005.004s-.004.001-.006 0h-1.705c-.002 0-.004-.001-.006-.003s-.003-.004-.003-.007v-3.93c0-.003-.001-.005-.002-.007-.002-.001-.004-.002-.007-.003h-3.858c-.002 0-.004 0-.006-.001-.002-.002-.003-.003-.004-.005 0-.002 0-.004.001-.006l.412-1.708c0-.002.002-.003.003-.004.002-.002.004-.002.006-.002h3.446c.003 0 .005-.001.007-.003.001-.002.002-.004.002-.007v-2.925c0-.001-.001-.003 0-.005 0-.002.001-.003.002-.005.001-.001.003-.002.004-.002l1.705-.668c.002-.001.004-.001.006-.001.002.001.004.002.005.004s.002.004.001.006v3.596c0 .003.001.005.002.006.001.002.003.003.005.004s.004.001.006 0h3.865c.002 0 .004 0 .006.002.001.001.003.003.003.004.001.002.001.004 0 .006l-.262 1.705c0 .002-.001.005-.003.007-.002.001-.004.002-.006.002h-3.609c-.002.001-.004.002-.005.004" fill="#99ccb2"/><path d="M4981.407 23.518l-10.905 29.163 5.12-.015 9.388-24.98 3.625 1.309c1.245.449 2.473 1.133 3.206 2.279.577.901.995 1.925.662 3.006l-.808 2.532c-.477 1.438-1.849 2.295-3.372 2.526-1.081.165-2.177-.056-3.213-.431l-3.786-1.458-1.699 2.802 4.349 1.563c2.809 1.02 6.25 1.595 8.872-.285 1.102-.786 1.92-1.873 2.507-3.084 1.237-2.557 1.796-5.654.21-8.22-1.268-2.048-3.503-3.297-5.705-4.093l-3.449-1.246-.596-.187zM4969.581 50.237l-9.915-26.437.009-.013h5.139l.009.006 7.474 20.062-.003.01-2.694 6.372h-.019z" fill="#ffffff"/></g><g><path d="M5068.597 48.689c-.001.002-.002.004-.002.006l.003 3.93c.001.002 0 .005-.001.006-.001.002-.003.003-.005.004s-.004.001-.006 0h-1.705c-.002 0-.004-.001-.006-.003s-.003-.004-.003-.007v-3.93c0-.003-.001-.005-.002-.007-.002-.001-.004-.002-.007-.003h-3.858c-.002 0-.004 0-.006-.001-.002-.002-.003-.003-.004-.005 0-.002 0-.004.001-.006l.412-1.708c0-.002.002-.003.003-.004.002-.002.004-.002.006-.002h3.446c.003 0 .005-.001.007-.003.001-.002.002-.004.002-.007v-2.925c0-.001-.001-.003 0-.005 0-.002.001-.003.002-.005.001-.001.003-.002.004-.002l1.705-.668c.002-.001.004-.001.006-.001.002.001.004.002.005.004s.002.004.001.006v3.596c0 .003.001.005.002.006.001.002.003.003.005.004s.004.001.006 0h3.865c.002 0 .004 0 .006.002.001.001.003.003.003.004.001.002.001.004 0 .006l-.262 1.705c0 .002-.001.005-.003.007-.002.001-.004.002-.006.002h-3.609c-.002.001-.004.002-.005.004" fill="#87c3a5"/><path d="M5057.407 23.518l-10.905 29.163 5.12-.015 9.388-24.98 3.625 1.309c1.245.449 2.473 1.133 3.206 2.279.577.901.995 1.925.662 3.006l-.808 2.532c-.477 1.438-1.849 2.295-3.372 2.526-1.081.165-2.177-.056-3.213-.431l-3.786-1.458-1.699 2.802 4.349 1.563c2.809 1.02 6.25 1.595 8.872-.285 1.102-.786 1.92-1.873 2.507-3.084 1.237-2.557 1.796-5.654.21-8.22-1.268-2.048-3.503-3.297-5.705-4.093l-3.449-1.246-.596-.187zM5045.581 50.237l-9.915-26.437.009-.013h5.139l.009.006 7.474 20.062-.003.01-2.694 6.372h-.019z" fill="#ffffff"/></g><g><path d="M5144.597 48.689c-.001.002-.002.004-.002.006l.003 3.93c.001.002 0 .005-.001.006-.001.002-.003.003-.005.004s-.004.001-.006 0h-1.705c-.002 0-.004-.001-.006-.003s-.003-.004-.003-.007v-3.93c0-.003-.001-.005-.002-.007-.002-.001-.004-.002-.007-.003h-3.858c-.002 0-.004 0-.006-.001-.002-.002-.003-.003-.004-.005 0-.002 0-.004.001-.006l.412-1.708c0-.002.002-.003.003-.004.002-.002.004-.002.006-.002h3.446c.003 0 .005-.001.007-.003.001-.002.002-.004.002-.007v-2.925c0-.001-.001-.003 0-.005 0-.002.001-.003.002-.005.001-.001.003-.002.004-.002l1.705-.668c.002-.001.004-.001.006-.001.002.001.004.002.005.004s.002.004.001.006v3.596c0 .003.001.005.002.006.001.002.003.003.005.004s.004.001.006 0h3.865c.002 0 .004 0 .006.002.001.001.003.003.003.004.001.002.001.004 0 .006l-.262 1.705c0 .002-.001.005-.003.007-.002.001-.004.002-.006.002h-3.609c-.002.001-.004.002-.005.004" fill="#76ba98"/><path d="M5133.407 23.518l-10.905 29.163 5.12-.015 9.388-24.98 3.625 1.309c1.245.449 2.473 1.133 3.206 2.279.577.901.995 1.925.662 3.006l-.808 2.532c-.477 1.438-1.849 2.295-3.372 2.526-1.081.165-2.177-.056-3.213-.431l-3.786-1.458-1.699 2.802 4.349 1.563c2.809 1.02 6.25 1.595 8.872-.285 1.102-.786 1.92-1.873 2.507-3.084 1.237-2.557 1.796-5.654.21-8.22-1.268-2.048-3.503-3.297-5.705-4.093l-3.449-1.246-.596-.187zM5121.581 50.237l-9.915-26.437.009-.013h5.139l.009.006 7.474 20.062-.003.01-2.694 6.372h-.019z" fill="#ffffff"/></g><g><path d="M5220.597 48.689c-.001.002-.002.004-.002.006l.003 3.93c.001.002 0 .005-.001.006-.001.002-.003.003-.005.004s-.004.001-.006 0h-1.705c-.002 0-.004-.001-.006-.003s-.003-.004-.003-.007v-3.93c0-.003-.001-.005-.002-.007-.002-.001-.004-.002-.007-.003h-3.858c-.002 0-.004 0-.006-.001-.002-.002-.003-.003-.004-.005 0-.002 0-.004.001-.006l.412-1.708c0-.002.002-.003.003-.004.002-.002.004-.002.006-.002h3.446c.003 0 .005-.001.007-.003.001-.002.002-.004.002-.007v-2.925c0-.001-.001-.003 0-.005 0-.002.001-.003.002-.005.001-.001.003-.002.004-.002l1.705-.668c.002-.001.004-.001.006-.001.002.001.004.002.005.004s.002.004.001.006v3.596c0 .003.001.005.002.006.001.002.003.003.005.004s.004.001.006 0h3.865c.002 0 .004 0 .006.002.001.001.003.003.003.004.001.002.001.004 0 .006l-.262 1.705c0 .002-.001.005-.003.007-.002.001-.004.002-.006.002h-3.609c-.002.001-.004.002-.005.004" fill="#64b28a"/><path d="M5209.407 23.518l-10.905 29.163 5.12-.015 9.388-24.98 3.625 1.309c1.245.449 2.473 1.133 3.206 2.279.577.901.995 1.925.662 3.006l-.808 2.532c-.477 1.438-1.849 2.295-3.372 2.526-1.081.165-2.177-.056-3.213-.431l-3.786-1.458-1.699 2.802 4.349 1.563c2.809 1.02 6.25 1.595 8.872-.285 1.102-.786 1.92-1.873 2.507-3.084 1.237-2.557 1.796-5.654.21-8.22-1.268-2.048-3.503-3.297-5.705-4.093l-3.449-1.246-.596-.187zM5197.581 50.237l-9.915-26.437.009-.013h5.139l.009.006 7.474 20.062-.003.01-2.694 6.372h-.019z" fill="#ffffff"/></g><g><path d="M5296.597 48.689c-.001.002-.002.004-.002.006l.003 3.93c.001.002 0 .005-.001.006-.001.002-.003.003-.005.004s-.004.001-.006 0h-1.705c-.002 0-.004-.001-.006-.003s-.003-.004-.003-.007v-3.93c0-.003-.001-.005-.002-.007-.002-.001-.004-.002-.007-.003h-3.858c-.002 0-.004 0-.006-.001-.002-.002-.003-.003-.004-.005 0-.002 0-.004.001-.006l.412-1.708c0-.002.002-.003.003-.004.002-.002.004-.002.006-.002h3.446c.003 0 .005-.001.007-.003.001-.002.002-.004.002-.007v-2.925c0-.001-.001-.003 0-.005 0-.002.001-.003.002-.005.001-.001.003-.002.004-.002l1.705-.668c.002-.001.004-.001.006-.001.002.001.004.002.005.004s.002.004.001.006v3.596c0 .003.001.005.002.006.001.002.003.003.005.004s.004.001.006 0h3.865c.002 0 .004 0 .006.002.001.001.003.003.003.004.001.002.001.004 0 .006l-.262 1.705c0 .002-.001.005-.003.007-.002.001-.004.002-.006.002h-3.609c-.002.001-.004.002-.005.004" fill="#53a97d"/><path d="M5285.407 23.518l-10.905 29.163 5.12-.015 9.388-24.98 3.625 1.309c1.245.449 2.473 1.133 3.206 2.279.577.901.995 1.925.662 3.006l-.808 2.532c-.477 1.438-1.849 2.295-3.372 2.526-1.081.165-2.177-.056-3.213-.431l-3.786-1.458-1.699 2.802 4.349 1.563c2.809 1.02 6.25 1.595 8.872-.285 1.102-.786 1.92-1.873 2.507-3.084 1.237-2.557 1.796-5.654.21-8.22-1.268-2.048-3.503-3.297-5.705-4.093l-3.449-1.246-.596-.187zM5273.581 50.237l-9.915-26.437.009-.013h5.139l.009.006 7.474 20.062-.003.01-2.694 6.372h-.019z" fill="#ffffff"/></g><g><path d="M5372.597 48.689c-.001.002-.002.004-.002.006l.003 3.93c.001.002 0 .005-.001.006-.001.002-.003.003-.005.004s-.004.001-.006 0h-1.705c-.002 0-.004-.001-.006-.003s-.003-.004-.003-.007v-3.93c0-.003-.001-.005-.002-.007-.002-.001-.004-.002-.007-.003h-3.858c-.002 0-.004 0-.006-.001-.002-.002-.003-.003-.004-.005 0-.002 0-.004.001-.006l.412-1.708c0-.002.002-.003.003-.004.002-.002.004-.002.006-.002h3.446c.003 0 .005-.001.007-.003.001-.002.002-.004.002-.007v-2.925c0-.001-.001-.003 0-.005 0-.002.001-.003.002-.005.001-.001.003-.002.004-.002l1.705-.668c.002-.001.004-.001.006-.001.002.001.004.002.005.004s.002.004.001.006v3.596c0 .003.001.005.002.006.001.002.003.003.005.004s.004.001.006 0h3.865c.002 0 .004 0 .006.002.001.001.003.003.003.004.001.002.001.004 0 .006l-.262 1.705c0 .002-.001.005-.003.007-.002.001-.004.002-.006.002h-3.609c-.002.001-.004.002-.005.004" fill="#42a070"/><path d="M5361.407 23.518l-10.905 29.163 5.12-.015 9.388-24.98 3.625 1.309c1.245.449 2.473 1.133 3.206 2.279.577.901.995 1.925.662 3.006l-.808 2.532c-.477 1.438-1.849 2.295-3.372 2.526-1.081.165-2.177-.056-3.213-.431l-3.786-1.458-1.699 2.802 4.349 1.563c2.809 1.02 6.25 1.595 8.872-.285 1.102-.786 1.92-1.873 2.507-3.084 1.237-2.557 1.796-5.654.21-8.22-1.268-2.048-3.503-3.297-5.705-4.093l-3.449-1.246-.596-.187zM5349.581 50.237l-9.915-26.437.009-.013h5.139l.009.006 7.474 20.062-.003.01-2.694 6.372h-.019z" fill="#ffffff"/></g><g><path d="M5448.597 48.689c-.001.002-.002.004-.002.006l.003 3.93c.001.002 0 .005-.001.006-.001.002-.003.003-.005.004s-.004.001-.006 0h-1.705c-.002 0-.004-.001-.006-.003s-.003-.004-.003-.007v-3.93c0-.003-.001-.005-.002-.007-.002-.001-.004-.002-.007-.003h-3.858c-.002 0-.004 0-.006-.001-.002-.002-.003-.003-.004-.005 0-.002 0-.004.001-.006l.412-1.708c0-.002.002-.003.003-.004.002-.002.004-.002.006-.002h3.446c.003 0 .005-.001.007-.003.001-.002.002-.004.002-.007v-2.925c0-.001-.001-.003 0-.005 0-.002.001-.003.002-.005.001-.001.003-.002.004-.002l1.705-.668c.002-.001.004-.001.006-.001.002.001.004.002.005.004s.002.004.001.006v3.596c0 .003.001.005.002.006.001.002.003.003.005.004s.004.001.006 0h3.865c.002 0 .004 0 .006.002.001.001.003.003.003.004.001.002.001.004 0 .006l-.262 1.705c0 .002-.001.005-.003.007-.002.001-.004.002-.006.002h-3.609c-.002.001-.004.002-.005.004" fill="#309863"/><path d="M5437.407 23.518l-10.905 29.163 5.12-.015 9.388-24.98 3.625 1.309c1.245.449 2.473 1.133 3.206 2.279.577.901.995 1.925.662 3.006l-.808 2.532c-.477 1.438-1.849 2.295-3.372 2.526-1.081.165-2.177-.056-3.213-.431l-3.786-1.458-1.699 2.802 4.349 1.563c2.809 1.02 6.25 1.595 8.872-.285 1.102-.786 1.92-1.873 2.507-3.084 1.237-2.557 1.796-5.654.21-8.22-1.268-2.048-3.503-3.297-5.705-4.093l-3.449-1.246-.596-.187zM5425.581 50.237l-9.915-26.437.009-.013h5.139l.009.006 7.474 20.062-.003.01-2.694 6.372h-.019z" fill="#ffffff"/></g><g><path d="M5524.597 48.689c-.001.002-.002.004-.002.006l.003 3.93c.001.002 0 .005-.001.006-.001.002-.003.003-.005.004s-.004.001-.006 0h-1.705c-.002 0-.004-.001-.006-.003s-.003-.004-.003-.007v-3.93c0-.003-.001-.005-.002-.007-.002-.001-.004-.002-.007-.003h-3.858c-.002 0-.004 0-.006-.001-.002-.002-.003-.003-.004-.005 0-.002 0-.004.001-.006l.412-1.708c0-.002.002-.003.003-.004.002-.002.004-.002.006-.002h3.446c.003 0 .005-.001.007-.003.001-.002.002-.004.002-.007v-2.925c0-.001-.001-.003 0-.005 0-.002.001-.003.002-.005.001-.001.003-.002.004-.002l1.705-.668c.002-.001.004-.001.006-.001.002.001.004.002.005.004s.002.004.001.006v3.596c0 .003.001.005.002.006.001.002.003.003.005.004s.004.001.006 0h3.865c.002 0 .004 0 .006.002.001.001.003.003.003.004.001.002.001.004 0 .006l-.262 1.705c0 .002-.001.005-.003.007-.002.001-.004.002-.006.002h-3.609c-.002.001-.004.002-.005.004" fill="#1f8f56"/><path d="M5513.407 23.518l-10.905 29.163 5.12-.015 9.388-24.98 3.625 1.309c1.245.449 2.473 1.133 3.206 2.279.577.901.995 1.925.662 3.006l-.808 2.532c-.477 1.438-1.849 2.295-3.372 2.526-1.081.165-2.177-.056-3.213-.431l-3.786-1.458-1.699 2.802 4.349 1.563c2.809 1.02 6.25 1.595 8.872-.285 1.102-.786 1.92-1.873 2.507-3.084 1.237-2.557 1.796-5.654.21-8.22-1.268-2.048-3.503-3.297-5.705-4.093l-3.449-1.246-.596-.187zM5501.581 50.237l-9.915-26.437.009-.013h5.139l.009.006 7.474 20.062-.003.01-2.694 6.372h-.019z" fill="#ffffff"/></g></svg>