<?xml version="1.0" encoding="UTF-8" standalone="no"?>
<svg
   viewBox="0 0 76 76"
   id="vector"
   width="76px"
   height="76px"
   version="1.1"
   sodipodi:docname="logo_#ffffff.svg"
   inkscape:version="1.2.2 (b0a8486541, 2022-12-01)"
   xmlns:inkscape="http://www.inkscape.org/namespaces/inkscape"
   xmlns:sodipodi="http://sodipodi.sourceforge.net/DTD/sodipodi-0.dtd"
   xmlns="http://www.w3.org/2000/svg"
   xmlns:svg="http://www.w3.org/2000/svg">
  <defs
     id="defs11" />
  <sodipodi:namedview
     id="namedview9"
     pagecolor="#ffffff"
     bordercolor="#000000"
     borderopacity="0.25"
     inkscape:showpageshadow="2"
     inkscape:pageopacity="0.0"
     inkscape:pagecheckerboard="0"
     inkscape:deskcolor="#d1d1d1"
     showgrid="false"
     inkscape:zoom="10.144737"
     inkscape:cx="38.049287"
     inkscape:cy="38.14786"
     inkscape:window-width="1920"
     inkscape:window-height="1012"
     inkscape:window-x="0"
     inkscape:window-y="0"
     inkscape:window-maximized="1"
     inkscape:current-layer="group_2" />
  <g
     id="group_2"
     transform="matrix(2.0475299,0,0,2.0475299,-39.911846,-39.910367)">
    <path
       id="path"
       d="m 52.597,48.689 c -0.001,0.002 -0.002,0.004 -0.002,0.006 l 0.003,3.93 c 10e-4,0.002 0,0.005 -10e-4,0.006 -0.001,0.002 -0.003,0.003 -0.005,0.004 -0.002,0.001 -0.004,0.001 -0.006,0 h -1.705 c -0.002,0 -0.004,-10e-4 -0.006,-0.003 -0.002,-0.002 -0.003,-0.004 -0.003,-0.007 v -3.93 c 0,-0.003 -10e-4,-0.005 -0.002,-0.007 -0.002,-0.001 -0.004,-0.002 -0.007,-0.003 v 0 h -3.858 c -0.002,0 -0.004,0 -0.006,-0.001 -0.002,-0.002 -0.003,-0.003 -0.004,-0.005 0,-0.002 0,-0.004 0.001,-0.006 l 0.412,-1.708 c 0,-0.002 0.002,-0.003 0.003,-0.004 0.002,-0.002 0.004,-0.002 0.006,-0.002 h 3.446 c 0.003,0 0.005,-0.001 0.007,-0.003 0.001,-0.002 0.002,-0.004 0.002,-0.007 v -2.925 c 0,-10e-4 -10e-4,-0.003 0,-0.005 0,-0.002 10e-4,-0.003 0.002,-0.005 10e-4,-0.001 0.003,-0.002 0.004,-0.002 l 1.705,-0.668 c 0.002,-10e-4 0.004,-10e-4 0.006,-10e-4 0.002,10e-4 0.004,0.002 0.005,0.004 10e-4,0.002 0.002,0.004 10e-4,0.006 v 3.596 c 0,0.003 10e-4,0.005 0.002,0.006 10e-4,0.002 0.003,0.003 0.005,0.004 0.002,10e-4 0.004,10e-4 0.006,0 h 3.865 c 0.002,0 0.004,0 0.006,0.002 10e-4,0.001 0.003,0.003 0.003,0.004 10e-4,0.002 10e-4,0.004 0,0.006 l -0.262,1.705 c 0,0.002 -10e-4,0.005 -0.003,0.007 -0.002,10e-4 -0.004,0.002 -0.006,0.002 h -3.603 c -0.002,0 -0.004,0 -0.006,0 -0.002,10e-4 -0.004,0.002 -0.005,0.004"
       fill="#1f8f56"
       stroke-width="1"
       style="fill:#000000" />
    <g
       id="group"
       style="fill:#000000">
      <path
         id="path_1"
         d="m 41.407,23.518 -10.905,29.163 5.12,-0.015 9.388,-24.98 3.625,1.309 c 1.245,0.449 2.473,1.133 3.206,2.279 0.577,0.901 0.995,1.925 0.662,3.006 v 0 l -0.808,2.532 c -0.477,1.438 -1.849,2.295 -3.372,2.526 -1.081,0.165 -2.177,-0.056 -3.213,-0.431 l -3.786,-1.458 -1.699,2.802 4.349,1.563 c 2.809,1.02 6.25,1.595 8.872,-0.285 1.102,-0.786 1.92,-1.873 2.507,-3.084 1.237,-2.557 1.796,-5.654 0.21,-8.22 -1.268,-2.048 -3.503,-3.297 -5.705,-4.093 l -3.449,-1.246 -0.596,-0.187 z"
         fill="#000000"
         stroke-width="1"
         style="fill:#000000" />
      <g
         id="group_1"
         style="fill:#000000">
        <path
           id="path_2"
           d="M 29.581,50.237 19.666,23.8 19.675,23.787 h 5.139 l 0.009,0.006 7.474,20.062 -0.003,0.01 -2.694,6.372 z"
           fill="#000000"
           stroke-width="1"
           style="fill:#000000" />
      </g>
    </g>
  </g>
</svg>
