<svg
    xmlns="http://www.w3.org/2000/svg"
    viewBox="0 0 76 76"
    id="vector"
    width="76px"
    height="76px">
    <g id="group_2">
        <path
            id="path"
            d="M 51.739 47.989 L 51.739 47.989 L 51.739 47.989 L 51.739 47.989 L 51.739 47.989 L 51.739 47.989 L 51.739 47.989 L 51.739 47.989 L 51.739 47.989 L 51.739 47.989 L 51.739 47.989 L 51.739 47.989 L 51.739 47.989 L 51.739 47.989 L 51.739 47.989 L 51.739 47.989 Z"
            fill="#000000"
            stroke-width="1"/>
        <g
            id="group"
            transform="translate(-8.747394769640033 0)">
            <path
                id="path_1"
                d="M 30.987 51.383 L 30.502 52.681 L 35.622 52.666 L 36.04 51.554 L 36.04 51.554 L 36.04 51.554 L 36.04 51.554 L 36.04 51.554 L 36.04 51.554 L 36.04 51.554 L 36.04 51.554 L 36.04 51.554 L 36.04 51.554 L 36.04 51.554 L 36.04 51.554 L 36.04 51.554 L 36.04 51.554 L 36.04 51.554 L 36.04 51.554 L 36.04 51.554 Z"
                fill="#000000"
                stroke-width="1"/>
            <g
                id="group_1"
                transform="translate(6.997915815712027 0)">
                <path
                    id="path_2"
                    d="M 19.806 24.136 L 19.666 23.8 L 19.675 23.787 L 24.814 23.787 L 24.823 23.793 L 24.916 24.043 L 24.913 24.052 L 19.825 24.136 L 19.806 24.136 Z"
                    fill="#000000"
                    stroke-width="1"/>
            </g>
        </g>
    </g>
</svg>
