<svg
    xmlns="http://www.w3.org/2000/svg"
    viewBox="0 0 76 76"
    id="vector"
    width="76px"
    height="76px">
    <g
        id="group_2"
        transform="translate(36.5 38.5) scale(1.95 1.95) translate(-36.5 -38.5)">
        <path
            id="path"
            d="M 52.593 48.686 C 52.592 48.688 52.591 48.69 52.591 48.692 L 52.594 52.604 C 52.595 52.606 52.594 52.609 52.593 52.61 C 52.592 52.612 52.59 52.613 52.588 52.614 C 52.586 52.615 52.584 52.615 52.582 52.614 L 50.885 52.614 C 50.883 52.614 50.881 52.613 50.879 52.611 C 50.877 52.609 50.876 52.607 50.876 52.604 L 50.876 48.692 C 50.876 48.689 50.875 48.687 50.874 48.685 C 50.872 48.684 50.87 48.683 50.867 48.682 L 50.867 48.682 L 47.027 48.682 C 47.025 48.682 47.023 48.682 47.021 48.681 C 47.019 48.679 47.018 48.678 47.017 48.676 C 47.017 48.674 47.017 48.672 47.018 48.67 L 47.428 46.97 C 47.428 46.968 47.43 46.967 47.431 46.966 C 47.433 46.964 47.435 46.964 47.437 46.964 L 50.867 46.964 C 50.87 46.964 50.872 46.963 50.874 46.961 C 50.875 46.959 50.876 46.957 50.876 46.954 L 50.876 44.042 C 50.876 44.041 50.875 44.039 50.876 44.037 C 50.876 44.035 50.877 44.034 50.878 44.032 C 50.879 44.031 50.881 44.03 50.882 44.03 L 52.579 43.365 C 52.581 43.364 52.583 43.364 52.585 43.364 C 52.587 43.365 52.589 43.366 52.59 43.368 C 52.591 43.37 52.592 43.372 52.591 43.374 L 52.591 46.954 C 52.591 46.957 52.592 46.959 52.593 46.96 C 52.594 46.962 52.596 46.963 52.598 46.964 C 52.6 46.965 52.602 46.965 52.604 46.964 L 56.451 46.964 C 56.453 46.964 56.455 46.964 56.457 46.966 C 56.458 46.967 56.46 46.969 56.46 46.97 C 56.461 46.972 56.461 46.974 56.46 46.976 L 56.2 48.673 C 56.2 48.675 56.199 48.678 56.197 48.68 C 56.195 48.681 56.193 48.682 56.191 48.682 L 52.604 48.682 C 52.602 48.682 52.6 48.682 52.598 48.682 C 52.596 48.683 52.594 48.684 52.593 48.686"
            fill="#000000"
            stroke-width="1"/>
        <g id="group">
            <path
                id="path_1"
                d="M 41.407 23.518 L 30.502 52.681 L 35.622 52.666 L 45.01 27.686 L 48.635 28.995 C 49.88 29.444 51.108 30.128 51.841 31.274 C 52.418 32.175 52.836 33.199 52.503 34.28 L 52.503 34.28 L 51.695 36.812 C 51.218 38.25 49.846 39.107 48.323 39.338 C 47.242 39.503 46.146 39.282 45.11 38.907 L 41.324 37.449 L 39.625 40.251 L 43.974 41.814 C 46.783 42.834 50.224 43.409 52.846 41.529 C 53.948 40.743 54.766 39.656 55.353 38.445 C 56.59 35.888 57.149 32.791 55.563 30.225 C 54.295 28.177 52.06 26.928 49.858 26.132 L 46.409 24.886 L 45.813 24.699 Z"
                fill="#000000"
                stroke-width="1"/>
            <g id="group_1">
                <path
                    id="path_2"
                    d="M 29.581 50.237 L 19.666 23.8 L 19.675 23.787 L 24.814 23.787 L 24.823 23.793 L 32.297 43.855 L 32.294 43.865 L 29.6 50.237 L 29.581 50.237 Z"
                    fill="#000000"
                    stroke-width="1"/>
            </g>
        </g>
    </g>
</svg>
