<svg
    xmlns="http://www.w3.org/2000/svg"
    viewBox="0 0 76 76"
    id="vector"
    width="76px"
    height="76px">
    <g
        id="group_2"
        transform="translate(36.5 38.5) scale(1.95 1.95) translate(-36.5 -38.5)">
        <path
            id="path"
            d="M 51.739 47.989 L 51.739 47.989 L 51.739 47.989 L 51.739 47.989 L 51.739 47.989 L 51.739 47.989 L 51.739 47.989 L 51.739 47.989 L 51.739 47.989 L 51.739 47.989 L 51.739 47.989 L 51.739 47.989 L 51.739 47.989 L 51.739 47.989 L 51.739 47.989 L 51.739 47.989 Z"
            fill="#000000"
            stroke-width="1"/>
        <g
            id="group"
            transform="translate(-5.492296896764801 0)">
            <path
                id="path_1"
                d="M 38.268 31.913 L 30.502 52.681 L 35.622 52.666 L 42.308 34.877 L 42.308 34.877 L 42.308 34.877 L 42.308 34.877 L 42.308 34.877 L 42.308 34.877 L 42.308 34.877 L 42.308 34.877 L 42.308 34.877 L 42.308 34.877 L 42.308 34.877 L 42.308 34.877 L 42.308 34.877 L 42.308 34.877 L 42.308 34.877 L 42.308 34.877 L 42.308 34.877 Z"
                fill="#000000"
                stroke-width="1"/>
            <g
                id="group_1"
                transform="translate(4.393837517411841 0)">
                <path
                    id="path_2"
                    d="M 21.63 29.006 L 19.666 23.8 L 19.675 23.787 L 24.814 23.787 L 24.823 23.793 L 26.293 27.74 L 26.29 27.749 L 21.649 29.006 L 21.63 29.006 Z"
                    fill="#000000"
                    stroke-width="1"/>
            </g>
        </g>
    </g>
</svg>
