<svg
    xmlns="http://www.w3.org/2000/svg"
    viewBox="0 0 76 76"
    id="vector"
    width="76px"
    height="76px">
    <g
        id="group_2"
        transform="translate(36.5 38.5) scale(1.95 1.95) translate(-36.5 -38.5)">
        <path
            id="path"
            d="M 52.569 48.666 C 52.568 48.668 52.567 48.67 52.567 48.672 L 52.57 52.474 C 52.571 52.476 52.57 52.479 52.569 52.48 C 52.568 52.482 52.566 52.483 52.564 52.484 C 52.562 52.485 52.56 52.485 52.559 52.484 L 50.909 52.484 C 50.907 52.484 50.905 52.483 50.903 52.481 C 50.901 52.479 50.9 52.477 50.9 52.474 L 50.9 48.672 C 50.9 48.669 50.899 48.667 50.898 48.665 C 50.896 48.664 50.894 48.663 50.891 48.662 L 50.891 48.662 L 47.159 48.662 C 47.157 48.662 47.155 48.662 47.153 48.661 C 47.151 48.66 47.15 48.659 47.149 48.657 C 47.149 48.655 47.149 48.653 47.15 48.651 L 47.549 46.998 C 47.549 46.996 47.551 46.995 47.552 46.994 C 47.553 46.992 47.555 46.992 47.557 46.992 L 50.891 46.992 C 50.894 46.992 50.896 46.991 50.898 46.99 C 50.899 46.988 50.9 46.986 50.9 46.983 L 50.9 44.153 C 50.9 44.152 50.899 44.15 50.9 44.148 C 50.9 44.146 50.901 44.145 50.902 44.143 C 50.903 44.142 50.905 44.141 50.906 44.141 L 52.556 43.495 C 52.558 43.494 52.559 43.494 52.561 43.494 C 52.563 43.495 52.565 43.496 52.566 43.498 C 52.567 43.5 52.568 43.502 52.567 43.504 L 52.567 46.983 C 52.567 46.986 52.568 46.988 52.569 46.989 C 52.57 46.991 52.572 46.991 52.574 46.992 C 52.576 46.993 52.578 46.993 52.58 46.992 L 56.319 46.992 C 56.321 46.992 56.323 46.992 56.325 46.994 C 56.326 46.995 56.328 46.997 56.328 46.998 C 56.329 47 56.329 47.002 56.328 47.004 L 56.075 48.654 C 56.075 48.656 56.074 48.659 56.072 48.66 C 56.07 48.661 56.068 48.662 56.066 48.662 L 52.58 48.662 C 52.578 48.662 52.576 48.662 52.574 48.662 C 52.572 48.663 52.57 48.664 52.569 48.666"
            fill="#000000"
            stroke-width="1"/>
        <g id="group">
            <path
                id="path_1"
                d="M 41.407 23.518 L 30.502 52.681 L 35.622 52.666 L 45.01 27.686 L 48.635 28.995 C 49.88 29.444 51.108 30.128 51.841 31.274 C 52.418 32.175 52.836 33.199 52.503 34.28 L 52.503 34.28 L 51.695 36.812 C 51.218 38.25 49.846 39.107 48.323 39.338 C 47.242 39.503 46.146 39.282 45.11 38.907 L 41.324 37.449 L 39.625 40.251 L 43.974 41.814 C 46.783 42.834 50.224 43.409 52.846 41.529 C 53.948 40.743 54.766 39.656 55.353 38.445 C 56.59 35.888 57.149 32.791 55.563 30.225 C 54.295 28.177 52.06 26.928 49.858 26.132 L 46.409 24.886 L 45.813 24.699 Z"
                fill="#000000"
                stroke-width="1"/>
            <g id="group_1">
                <path
                    id="path_2"
                    d="M 29.581 50.237 L 19.666 23.8 L 19.675 23.787 L 24.814 23.787 L 24.823 23.793 L 32.297 43.855 L 32.294 43.865 L 29.6 50.237 L 29.581 50.237 Z"
                    fill="#000000"
                    stroke-width="1"/>
            </g>
        </g>
    </g>
</svg>
