<svg
    xmlns="http://www.w3.org/2000/svg"
    viewBox="0 0 76 76"
    id="vector"
    width="76px"
    height="76px">
    <g id="group_2">
        <path
            id="path"
            d="M 52.367 48.501 C 52.366 48.503 52.365 48.504 52.365 48.506 L 52.367 51.381 C 52.368 51.382 52.367 51.385 52.367 51.385 C 52.366 51.387 52.365 51.388 52.363 51.388 C 52.362 51.389 52.36 51.389 52.359 51.388 L 51.111 51.388 C 51.11 51.388 51.108 51.388 51.107 51.386 C 51.105 51.385 51.105 51.383 51.105 51.381 L 51.105 48.506 C 51.105 48.503 51.104 48.502 51.103 48.5 C 51.102 48.5 51.1 48.499 51.098 48.498 L 51.098 48.498 L 48.275 48.498 C 48.274 48.498 48.272 48.498 48.271 48.498 C 48.269 48.496 48.269 48.495 48.268 48.494 C 48.268 48.492 48.268 48.491 48.269 48.489 L 48.57 47.24 C 48.57 47.238 48.572 47.238 48.572 47.237 C 48.574 47.235 48.575 47.235 48.577 47.235 L 51.098 47.235 C 51.1 47.235 51.102 47.235 51.103 47.233 C 51.104 47.232 51.105 47.23 51.105 47.228 L 51.105 45.088 C 51.105 45.087 51.104 45.086 51.105 45.084 C 51.105 45.083 51.105 45.082 51.106 45.081 C 51.107 45.08 51.108 45.079 51.109 45.079 L 52.357 44.59 C 52.358 44.59 52.359 44.59 52.361 44.59 C 52.362 44.59 52.364 44.591 52.365 44.593 C 52.365 44.594 52.366 44.596 52.365 44.597 L 52.365 47.228 C 52.365 47.23 52.366 47.232 52.367 47.232 C 52.367 47.234 52.369 47.235 52.37 47.235 C 52.372 47.236 52.373 47.236 52.375 47.235 L 55.203 47.235 C 55.204 47.235 55.206 47.235 55.207 47.237 C 55.208 47.238 55.209 47.239 55.209 47.24 C 55.21 47.241 55.21 47.243 55.209 47.244 L 55.018 48.492 C 55.018 48.493 55.017 48.495 55.015 48.497 C 55.014 48.498 55.012 48.498 55.011 48.498 L 52.375 48.498 C 52.373 48.498 52.372 48.498 52.37 48.498 C 52.369 48.499 52.367 48.5 52.367 48.501"
            fill="#000000"
            stroke-width="1"/>
        <g id="group">
            <path
                id="path_1"
                d="M 41.407 23.518 L 30.502 52.681 L 35.622 52.666 L 45.01 27.686 L 48.635 28.995 C 49.88 29.444 51.108 30.128 51.841 31.274 C 52.418 32.175 52.836 33.199 52.503 34.28 L 52.503 34.28 L 51.695 36.812 C 51.218 38.25 49.846 39.107 48.323 39.338 C 47.242 39.503 46.146 39.282 45.11 38.907 L 41.324 37.449 L 39.625 40.251 L 43.974 41.814 C 46.783 42.834 50.224 43.409 52.846 41.529 C 53.948 40.743 54.766 39.656 55.353 38.445 C 56.59 35.888 57.149 32.791 55.563 30.225 C 54.295 28.177 52.06 26.928 49.858 26.132 L 46.409 24.886 L 45.813 24.699 Z"
                fill="#000000"
                stroke-width="1"/>
            <g id="group_1">
                <path
                    id="path_2"
                    d="M 29.581 50.237 L 19.666 23.8 L 19.675 23.787 L 24.814 23.787 L 24.823 23.793 L 32.297 43.855 L 32.294 43.865 L 29.6 50.237 L 29.581 50.237 Z"
                    fill="#000000"
                    stroke-width="1"/>
            </g>
        </g>
    </g>
</svg>
