<svg
    xmlns="http://www.w3.org/2000/svg"
    viewBox="0 0 76 76"
    id="vector"
    width="76px"
    height="76px">
    <g
        id="group_2"
        transform="translate(36.5 38.5) scale(1.95 1.95) translate(-36.5 -38.5)">
        <path
            id="path"
            d="M 51.739 47.989 L 51.739 47.989 L 51.739 47.989 L 51.739 47.989 L 51.739 47.989 L 51.739 47.989 L 51.739 47.989 L 51.739 47.989 L 51.739 47.989 L 51.739 47.989 L 51.739 47.989 L 51.739 47.989 L 51.739 47.989 L 51.739 47.989 L 51.739 47.989 L 51.739 47.989 Z"
            fill="#000000"
            stroke-width="1"/>
        <g
            id="group"
            transform="translate(-8.152512018097843 0)">
            <path
                id="path_1"
                d="M 31.594 49.76 L 30.502 52.681 L 35.622 52.666 L 36.562 50.164 L 36.562 50.164 L 36.562 50.164 L 36.562 50.164 L 36.562 50.164 L 36.562 50.164 L 36.562 50.164 L 36.562 50.164 L 36.562 50.164 L 36.562 50.164 L 36.562 50.164 L 36.562 50.164 L 36.562 50.164 L 36.562 50.164 L 36.562 50.164 L 36.562 50.164 L 36.562 50.164 Z"
                fill="#000000"
                stroke-width="1"/>
            <g
                id="group_1"
                transform="translate(6.522009614478274 0)">
                <path
                    id="path_2"
                    d="M 19.967 24.567 L 19.666 23.8 L 19.675 23.787 L 24.814 23.787 L 24.823 23.793 L 25.038 24.37 L 25.035 24.379 L 19.986 24.567 L 19.967 24.567 Z"
                    fill="#000000"
                    stroke-width="1"/>
            </g>
        </g>
    </g>
</svg>
