<svg
    xmlns="http://www.w3.org/2000/svg"
    viewBox="0 0 76 76"
    id="vector"
    width="76px"
    height="76px">
    <g id="group_2">
        <path
            id="path"
            d="M 51.739 47.989 L 51.739 47.989 L 51.739 47.989 L 51.739 47.989 L 51.739 47.989 L 51.739 47.989 L 51.739 47.989 L 51.739 47.989 L 51.739 47.989 L 51.739 47.989 L 51.739 47.989 L 51.739 47.989 L 51.739 47.989 L 51.739 47.989 L 51.739 47.989 L 51.739 47.989 Z"
            fill="#000000"
            stroke-width="1"/>
        <g
            id="group"
            transform="translate(-2.6477519087567156 0)">
            <path
                id="path_1"
                d="M 41.407 23.518 L 30.502 52.681 L 35.622 52.666 L 45.01 27.686 L 48.635 28.995 C 49.01 29.13 49.379 29.336 49.6 29.681 C 49.774 29.952 49.899 30.26 49.798 30.586 L 49.799 30.586 L 49.556 31.348 L 49.556 31.348 L 49.556 31.348 L 49.556 31.348 L 51.512 29.838 L 51.512 29.838 L 51.512 29.838 L 51.512 29.838 C 51.884 29.068 52.052 28.136 51.575 27.364 C 51.193 26.747 50.521 26.372 49.858 26.132 L 46.409 24.886 L 45.813 24.699 Z"
                fill="#000000"
                stroke-width="1"/>
            <g
                id="group_1"
                transform="translate(2.1182015270053727 0)">
                <path
                    id="path_2"
                    d="M 25.394 39.058 L 19.666 23.8 L 19.675 23.787 L 24.814 23.787 L 24.823 23.793 L 29.136 35.37 L 29.133 35.379 L 25.413 39.058 L 25.394 39.058 Z"
                    fill="#000000"
                    stroke-width="1"/>
            </g>
        </g>
    </g>
</svg>
