<svg
    xmlns="http://www.w3.org/2000/svg"
    viewBox="0 0 76 76"
    id="vector"
    width="76px"
    height="76px">
    <g id="group_2">
        <path
            id="path"
            d="M 51.739 47.989 L 51.739 47.989 L 51.739 47.989 L 51.739 47.989 L 51.739 47.989 L 51.739 47.989 L 51.739 47.989 L 51.739 47.989 L 51.739 47.989 L 51.739 47.989 L 51.739 47.989 L 51.739 47.989 L 51.739 47.989 L 51.739 47.989 L 51.739 47.989 L 51.739 47.989 Z"
            fill="#000000"
            stroke-width="1"/>
        <g
            id="group"
            transform="translate(-0.4986332359317558 0)">
            <path
                id="path_1"
                d="M 41.407 23.518 L 30.502 52.681 L 35.622 52.666 L 45.01 27.686 L 48.635 28.995 C 49.88 29.444 51.108 30.128 51.841 31.274 C 52.418 32.175 52.836 33.199 52.503 34.28 L 52.503 34.28 L 51.695 36.812 C 51.218 38.25 49.846 39.107 48.323 39.338 C 48.157 39.363 47.988 39.329 47.829 39.272 L 47.829 39.272 L 51.481 41.573 L 51.481 41.573 C 51.913 41.73 52.443 41.818 52.846 41.529 C 53.948 40.743 54.766 39.656 55.353 38.445 C 56.59 35.888 57.149 32.791 55.563 30.225 C 54.295 28.177 52.06 26.928 49.858 26.132 L 46.409 24.886 L 45.813 24.699 Z"
                fill="#000000"
                stroke-width="1"/>
            <g
                id="group_1"
                transform="translate(0.39890658874540463 0)">
                <path
                    id="path_2"
                    d="M 29.228 49.295 L 19.666 23.8 L 19.675 23.787 L 24.814 23.787 L 24.823 23.793 L 32.031 43.14 L 32.028 43.15 L 29.247 49.295 L 29.228 49.295 Z"
                    fill="#000000"
                    stroke-width="1"/>
            </g>
        </g>
    </g>
</svg>
