<svg
    xmlns="http://www.w3.org/2000/svg"
    viewBox="0 0 76 76"
    id="vector"
    width="76px"
    height="76px">
    <g
        id="group_2"
        transform="translate(36.5 38.5) scale(1.95 1.95) translate(-36.5 -38.5)">
        <path
            id="path"
            d="M 52.456 48.574 C 52.455 48.576 52.454 48.577 52.454 48.579 L 52.457 51.863 C 52.458 51.865 52.457 51.867 52.456 51.868 C 52.455 51.87 52.453 51.871 52.452 51.871 C 52.45 51.872 52.448 51.872 52.447 51.871 L 51.022 51.871 C 51.02 51.871 51.019 51.871 51.017 51.869 C 51.015 51.867 51.014 51.866 51.014 51.863 L 51.014 48.579 C 51.014 48.576 51.014 48.575 51.013 48.573 C 51.011 48.572 51.009 48.571 51.007 48.571 L 51.007 48.571 L 47.783 48.571 C 47.781 48.571 47.78 48.571 47.778 48.57 C 47.776 48.568 47.776 48.567 47.775 48.566 C 47.775 48.564 47.775 48.562 47.776 48.561 L 48.12 47.133 C 48.12 47.132 48.121 47.131 48.122 47.13 C 48.124 47.128 48.126 47.128 48.127 47.128 L 51.007 47.128 C 51.009 47.128 51.011 47.127 51.013 47.126 C 51.014 47.124 51.014 47.122 51.014 47.12 L 51.014 44.676 C 51.014 44.675 51.014 44.673 51.014 44.671 C 51.014 44.67 51.015 44.669 51.016 44.667 C 51.017 44.666 51.019 44.666 51.02 44.666 L 52.444 44.107 C 52.446 44.107 52.448 44.107 52.449 44.107 C 52.451 44.107 52.453 44.108 52.453 44.11 C 52.454 44.112 52.455 44.113 52.454 44.115 L 52.454 47.12 C 52.454 47.122 52.455 47.124 52.456 47.125 C 52.457 47.127 52.458 47.127 52.46 47.128 C 52.462 47.129 52.464 47.129 52.465 47.128 L 55.695 47.128 C 55.697 47.128 55.698 47.128 55.7 47.13 C 55.701 47.131 55.702 47.132 55.702 47.133 C 55.703 47.135 55.703 47.137 55.702 47.138 L 55.484 48.563 C 55.484 48.565 55.483 48.567 55.481 48.569 C 55.479 48.57 55.478 48.571 55.476 48.571 L 52.465 48.571 C 52.464 48.571 52.462 48.571 52.46 48.571 C 52.458 48.571 52.457 48.572 52.456 48.574"
            fill="#000000"
            stroke-width="1"/>
        <g id="group">
            <path
                id="path_1"
                d="M 41.407 23.518 L 30.502 52.681 L 35.622 52.666 L 45.01 27.686 L 48.635 28.995 C 49.88 29.444 51.108 30.128 51.841 31.274 C 52.418 32.175 52.836 33.199 52.503 34.28 L 52.503 34.28 L 51.695 36.812 C 51.218 38.25 49.846 39.107 48.323 39.338 C 47.242 39.503 46.146 39.282 45.11 38.907 L 41.324 37.449 L 39.625 40.251 L 43.974 41.814 C 46.783 42.834 50.224 43.409 52.846 41.529 C 53.948 40.743 54.766 39.656 55.353 38.445 C 56.59 35.888 57.149 32.791 55.563 30.225 C 54.295 28.177 52.06 26.928 49.858 26.132 L 46.409 24.886 L 45.813 24.699 Z"
                fill="#000000"
                stroke-width="1"/>
            <g id="group_1">
                <path
                    id="path_2"
                    d="M 29.581 50.237 L 19.666 23.8 L 19.675 23.787 L 24.814 23.787 L 24.823 23.793 L 32.297 43.855 L 32.294 43.865 L 29.6 50.237 L 29.581 50.237 Z"
                    fill="#000000"
                    stroke-width="1"/>
            </g>
        </g>
    </g>
</svg>
