<svg
    xmlns="http://www.w3.org/2000/svg"
    viewBox="0 0 76 76"
    id="vector"
    width="76px"
    height="76px">
    <g id="group_2">
        <path
            id="path"
            d="M 51.792 48.032 C 51.792 48.033 51.792 48.033 51.792 48.033 L 51.792 48.277 C 51.792 48.277 51.792 48.277 51.792 48.277 C 51.792 48.277 51.792 48.277 51.792 48.277 C 51.792 48.277 51.792 48.277 51.792 48.277 L 51.686 48.277 C 51.686 48.277 51.685 48.277 51.685 48.277 C 51.685 48.277 51.685 48.277 51.685 48.277 L 51.685 48.033 C 51.685 48.033 51.685 48.033 51.685 48.032 C 51.685 48.032 51.685 48.032 51.685 48.032 L 51.685 48.032 L 51.445 48.032 C 51.445 48.032 51.445 48.032 51.445 48.032 C 51.445 48.032 51.445 48.032 51.445 48.032 C 51.445 48.032 51.445 48.032 51.445 48.031 L 51.47 47.925 C 51.47 47.925 51.47 47.925 51.47 47.925 C 51.47 47.925 51.471 47.925 51.471 47.925 L 51.685 47.925 C 51.685 47.925 51.685 47.925 51.685 47.925 C 51.685 47.925 51.685 47.925 51.685 47.924 L 51.685 47.743 C 51.685 47.743 51.685 47.743 51.685 47.743 C 51.685 47.742 51.685 47.742 51.685 47.742 C 51.685 47.742 51.685 47.742 51.686 47.742 L 51.791 47.701 C 51.792 47.701 51.792 47.701 51.792 47.701 C 51.792 47.701 51.792 47.701 51.792 47.701 C 51.792 47.701 51.792 47.701 51.792 47.701 L 51.792 47.924 C 51.792 47.925 51.792 47.925 51.792 47.925 C 51.792 47.925 51.792 47.925 51.793 47.925 C 51.793 47.925 51.793 47.925 51.793 47.925 L 52.033 47.925 C 52.033 47.925 52.033 47.925 52.033 47.925 C 52.033 47.925 52.033 47.925 52.033 47.925 C 52.033 47.926 52.033 47.926 52.033 47.926 L 52.017 48.032 C 52.017 48.032 52.017 48.032 52.017 48.032 C 52.017 48.032 52.017 48.032 52.017 48.032 L 51.793 48.032 C 51.793 48.032 51.793 48.032 51.793 48.032 C 51.792 48.032 51.792 48.032 51.792 48.032"
            fill="#000000"
            stroke-width="1"/>
        <g id="group">
            <path
                id="path_1"
                d="M 41.407 23.518 L 30.502 52.681 L 35.622 52.666 L 45.01 27.686 L 48.635 28.995 C 49.88 29.444 51.108 30.128 51.841 31.274 C 52.418 32.175 52.836 33.199 52.503 34.28 L 52.503 34.28 L 51.695 36.812 C 51.218 38.25 49.846 39.107 48.323 39.338 C 47.242 39.503 46.146 39.282 45.11 38.907 L 41.329 37.451 L 39.631 40.253 L 43.974 41.814 C 46.783 42.834 50.224 43.409 52.846 41.529 C 53.948 40.743 54.766 39.656 55.353 38.445 C 56.59 35.888 57.149 32.791 55.563 30.225 C 54.295 28.177 52.06 26.928 49.858 26.132 L 46.409 24.886 L 45.813 24.699 Z"
                fill="#000000"
                stroke-width="1"/>
            <g id="group_1">
                <path
                    id="path_2"
                    d="M 29.581 50.237 L 19.666 23.8 L 19.675 23.787 L 24.814 23.787 L 24.823 23.793 L 32.297 43.855 L 32.294 43.865 L 29.6 50.237 L 29.581 50.237 Z"
                    fill="#000000"
                    stroke-width="1"/>
            </g>
        </g>
    </g>
</svg>
