<svg
    xmlns="http://www.w3.org/2000/svg"
    viewBox="0 0 76 76"
    id="vector"
    width="76px"
    height="76px">
    <g id="group_2">
        <path
            id="path"
            d="M 51.739 47.989 L 51.739 47.989 L 51.739 47.989 L 51.739 47.989 L 51.739 47.989 L 51.739 47.989 L 51.739 47.989 L 51.739 47.989 L 51.739 47.989 L 51.739 47.989 L 51.739 47.989 L 51.739 47.989 L 51.739 47.989 L 51.739 47.989 L 51.739 47.989 L 51.739 47.989 Z"
            fill="#000000"
            stroke-width="1"/>
        <g
            id="group"
            transform="translate(-2.9912757511965733 0)">
            <path
                id="path_1"
                d="M 41.407 23.518 L 30.502 52.681 L 35.622 52.666 L 45.01 27.686 L 48.635 28.995 C 48.808 29.057 48.979 29.153 49.081 29.312 C 49.161 29.438 49.219 29.58 49.172 29.73 L 49.173 29.73 L 49.061 30.083 L 49.061 30.083 L 49.061 30.083 L 49.061 30.083 L 50.623 27.845 L 50.623 27.845 L 50.623 27.845 L 50.623 27.845 C 50.795 27.49 50.873 27.059 50.652 26.702 C 50.475 26.417 50.164 26.243 49.858 26.132 L 46.409 24.886 L 45.813 24.699 Z"
                fill="#000000"
                stroke-width="1"/>
            <g
                id="group_1"
                transform="translate(2.393020600957259 0)">
                <path
                    id="path_2"
                    d="M 24.827 37.545 L 19.666 23.8 L 19.675 23.787 L 24.814 23.787 L 24.823 23.793 L 28.708 34.221 L 28.705 34.23 L 24.846 37.545 L 24.827 37.545 Z"
                    fill="#000000"
                    stroke-width="1"/>
            </g>
        </g>
    </g>
</svg>
