<svg
    xmlns="http://www.w3.org/2000/svg"
    viewBox="0 0 76 76"
    id="vector"
    width="76px"
    height="76px">
    <g
        id="group_2"
        transform="translate(36.5 38.5) scale(1.95 1.95) translate(-36.5 -38.5)">
        <path
            id="path"
            d="M 51.739 47.989 L 51.739 47.989 L 51.739 47.989 L 51.739 47.989 L 51.739 47.989 L 51.739 47.989 L 51.739 47.989 L 51.739 47.989 L 51.739 47.989 L 51.739 47.989 L 51.739 47.989 L 51.739 47.989 L 51.739 47.989 L 51.739 47.989 L 51.739 47.989 L 51.739 47.989 Z"
            fill="#000000"
            stroke-width="1"/>
        <g
            id="group"
            transform="translate(-5.982446769514354 0)">
            <path
                id="path_1"
                d="M 36.448 36.78 L 30.502 52.681 L 35.622 52.666 L 40.741 39.046 L 40.741 39.046 L 40.741 39.046 L 40.741 39.046 L 40.741 39.046 L 40.741 39.046 L 40.741 39.046 L 40.741 39.046 L 40.741 39.046 L 40.741 39.046 L 40.741 39.046 L 40.741 39.046 L 40.741 39.046 L 40.741 39.046 L 40.741 39.046 L 40.741 39.046 L 40.741 39.046 Z"
                fill="#000000"
                stroke-width="1"/>
            <g
                id="group_1"
                transform="translate(4.785957415611483 0)">
                <path
                    id="path_2"
                    d="M 21.197 27.851 L 19.666 23.8 L 19.675 23.787 L 24.814 23.787 L 24.823 23.793 L 25.966 26.863 L 25.963 26.872 L 21.216 27.851 L 21.197 27.851 Z"
                    fill="#000000"
                    stroke-width="1"/>
            </g>
        </g>
    </g>
</svg>
